M48
;DRILL file {KiCad (5.0.2)-1} date 2019/02/28 20:13:51
;FORMAT={-:-/ absolute / metric / decimal}
FMAT,2
METRIC,TZ
T1C0.400
T2C0.600
T3C0.800
T4C1.100
T5C1.500
T6C1.200
T7C4.000
%
G90
G05
T1
X25.55Y-2.1
X26.5Y-3.
X27.4Y-3.9
X28.3Y-4.8
X29.2Y-5.7
X30.1Y-6.6
X40.2Y-2.1
X59.2Y-3.
X78.2Y-3.9
X97.2Y-4.8
X116.2Y-5.7
X135.2Y-6.6
T3
X90.9Y-22.5
X98.52Y-22.5
X33.9Y-60.5
X41.52Y-60.5
X52.9Y-41.5
X60.52Y-41.5
X71.9Y-22.5
X79.52Y-22.5
X128.9Y-79.5
X136.52Y-79.5
X33.9Y-41.5
X41.52Y-41.5
X71.9Y-79.5
X79.52Y-79.5
X90.9Y-60.5
X98.52Y-60.5
X33.9Y-79.5
X41.52Y-79.5
X128.9Y-60.5
X136.52Y-60.5
X128.9Y-41.5
X136.52Y-41.5
X90.9Y-79.5
X98.52Y-79.5
X90.9Y-41.5
X98.52Y-41.5
X109.9Y-41.5
X117.52Y-41.5
X109.9Y-60.5
X117.52Y-60.5
X52.9Y-22.5
X60.52Y-22.5
X71.9Y-41.5
X79.52Y-41.5
X52.9Y-79.5
X60.52Y-79.5
X33.9Y-22.5
X41.52Y-22.5
X109.9Y-22.5
X117.52Y-22.5
X52.9Y-60.5
X60.52Y-60.5
X109.9Y-79.5
X117.52Y-79.5
X128.9Y-22.5
X136.52Y-22.5
X71.9Y-60.5
X79.52Y-60.5
T4
X6.58Y-5.93
X6.58Y-8.47
X6.58Y-11.01
X6.58Y-13.55
X6.58Y-16.09
X6.58Y-18.63
X6.58Y-21.17
X6.58Y-23.71
X6.58Y-26.25
X6.58Y-28.79
X6.58Y-31.33
X6.58Y-33.87
X21.82Y-5.93
X21.82Y-8.47
X21.82Y-11.01
X21.82Y-13.55
X21.82Y-16.09
X21.82Y-18.63
X21.82Y-21.17
X21.82Y-23.71
X21.82Y-26.25
X21.82Y-28.79
X21.82Y-31.33
X21.82Y-33.87
X148.48Y-6.03
X148.48Y-8.57
X148.48Y-11.11
X148.48Y-13.65
X148.48Y-16.19
X148.48Y-18.73
X148.48Y-21.27
X148.48Y-23.81
X148.48Y-26.35
X148.48Y-28.89
X148.48Y-31.43
X148.48Y-33.97
X163.72Y-6.03
X163.72Y-8.57
X163.72Y-11.11
X163.72Y-13.65
X163.72Y-16.19
X163.72Y-18.73
X163.72Y-21.27
X163.72Y-23.81
X163.72Y-26.35
X163.72Y-28.89
X163.72Y-31.43
X163.72Y-33.97
T5
X90.85Y-11.64
X97.2Y-9.1
X52.85Y-68.64
X59.2Y-66.1
X128.85Y-30.64
X135.2Y-28.1
X71.85Y-49.64
X78.2Y-47.1
X90.85Y-30.64
X97.2Y-28.1
X71.85Y-30.64
X78.2Y-28.1
X128.85Y-68.64
X135.2Y-66.1
X90.85Y-68.64
X97.2Y-66.1
X33.85Y-68.64
X40.2Y-66.1
X90.85Y-49.64
X97.2Y-47.1
X109.85Y-49.64
X116.2Y-47.1
X71.85Y-11.64
X78.2Y-9.1
X128.85Y-49.64
X135.2Y-47.1
X33.85Y-49.64
X40.2Y-47.1
X109.85Y-30.64
X116.2Y-28.1
X52.85Y-30.64
X59.2Y-28.1
X109.85Y-68.64
X116.2Y-66.1
X52.85Y-49.64
X59.2Y-47.1
X109.85Y-11.64
X116.2Y-9.1
X33.85Y-30.64
X40.2Y-28.1
X52.85Y-11.64
X59.2Y-9.1
X128.85Y-11.64
X135.2Y-9.1
X71.85Y-68.64
X78.2Y-66.1
X33.85Y-11.64
X40.2Y-9.1
T6
X151.2Y-43.9
X158.2Y-43.9
X12.1Y-44.7
X19.1Y-44.7
T7
X132.66Y-33.18
X75.66Y-52.18
X94.66Y-33.18
X75.66Y-33.18
X132.66Y-71.18
X94.66Y-71.18
X37.66Y-71.18
X94.66Y-52.18
X113.66Y-52.18
X75.66Y-14.18
X132.66Y-52.18
X37.66Y-52.18
X113.66Y-33.18
X56.66Y-33.18
X113.66Y-71.18
X56.66Y-52.18
X113.66Y-14.18
X37.66Y-33.18
X56.66Y-14.18
X132.66Y-14.18
X75.66Y-71.18
X37.66Y-14.18
X94.66Y-14.18
X56.66Y-71.18
T2
X151.3Y-46.1G85X150.7Y-46.1
G05
X152.8Y-41.6G85X152.2Y-41.6
G05
X156.8Y-41.6G85X156.2Y-41.6
G05
X159.8Y-41.6G85X159.2Y-41.6
G05
X159.8Y-47.1G85X159.2Y-47.1
G05
X10.5Y-41.5G85X11.1Y-41.5
G05
X10.5Y-47.G85X11.1Y-47.
G05
X13.5Y-47.G85X14.1Y-47.
G05
X17.5Y-47.G85X18.1Y-47.
G05
X19.Y-42.5G85X19.6Y-42.5
G05
T0
M30
