G04 #@! TF.GenerationSoftware,KiCad,Pcbnew,(5.0.2)-1*
G04 #@! TF.CreationDate,2019-02-28T20:13:41+09:00*
G04 #@! TF.ProjectId,Keyboard,4b657962-6f61-4726-942e-6b696361645f,rev?*
G04 #@! TF.SameCoordinates,Original*
G04 #@! TF.FileFunction,Soldermask,Bot*
G04 #@! TF.FilePolarity,Negative*
%FSLAX46Y46*%
G04 Gerber Fmt 4.6, Leading zero omitted, Abs format (unit mm)*
G04 Created by KiCad (PCBNEW (5.0.2)-1) date 2019/02/28 20:13:41*
%MOMM*%
%LPD*%
G01*
G04 APERTURE LIST*
%ADD10C,0.100000*%
G04 APERTURE END LIST*
D10*
G36*
X136686821Y-78661313D02*
X136686824Y-78661314D01*
X136686825Y-78661314D01*
X136847239Y-78709975D01*
X136847241Y-78709976D01*
X136847244Y-78709977D01*
X136995078Y-78788995D01*
X137124659Y-78895341D01*
X137231005Y-79024922D01*
X137310023Y-79172756D01*
X137358687Y-79333179D01*
X137375117Y-79500000D01*
X137358687Y-79666821D01*
X137310023Y-79827244D01*
X137231005Y-79975078D01*
X137124659Y-80104659D01*
X136995078Y-80211005D01*
X136847244Y-80290023D01*
X136847241Y-80290024D01*
X136847239Y-80290025D01*
X136686825Y-80338686D01*
X136686824Y-80338686D01*
X136686821Y-80338687D01*
X136561804Y-80351000D01*
X136478196Y-80351000D01*
X136353179Y-80338687D01*
X136353176Y-80338686D01*
X136353175Y-80338686D01*
X136192761Y-80290025D01*
X136192759Y-80290024D01*
X136192756Y-80290023D01*
X136044922Y-80211005D01*
X135915341Y-80104659D01*
X135808995Y-79975078D01*
X135729977Y-79827244D01*
X135681313Y-79666821D01*
X135664883Y-79500000D01*
X135681313Y-79333179D01*
X135729977Y-79172756D01*
X135808995Y-79024922D01*
X135915341Y-78895341D01*
X136044922Y-78788995D01*
X136192756Y-78709977D01*
X136192759Y-78709976D01*
X136192761Y-78709975D01*
X136353175Y-78661314D01*
X136353176Y-78661314D01*
X136353179Y-78661313D01*
X136478196Y-78649000D01*
X136561804Y-78649000D01*
X136686821Y-78661313D01*
X136686821Y-78661313D01*
G37*
G36*
X129751000Y-80351000D02*
X128049000Y-80351000D01*
X128049000Y-78649000D01*
X129751000Y-78649000D01*
X129751000Y-80351000D01*
X129751000Y-80351000D01*
G37*
G36*
X117686821Y-78661313D02*
X117686824Y-78661314D01*
X117686825Y-78661314D01*
X117847239Y-78709975D01*
X117847241Y-78709976D01*
X117847244Y-78709977D01*
X117995078Y-78788995D01*
X118124659Y-78895341D01*
X118231005Y-79024922D01*
X118310023Y-79172756D01*
X118358687Y-79333179D01*
X118375117Y-79500000D01*
X118358687Y-79666821D01*
X118310023Y-79827244D01*
X118231005Y-79975078D01*
X118124659Y-80104659D01*
X117995078Y-80211005D01*
X117847244Y-80290023D01*
X117847241Y-80290024D01*
X117847239Y-80290025D01*
X117686825Y-80338686D01*
X117686824Y-80338686D01*
X117686821Y-80338687D01*
X117561804Y-80351000D01*
X117478196Y-80351000D01*
X117353179Y-80338687D01*
X117353176Y-80338686D01*
X117353175Y-80338686D01*
X117192761Y-80290025D01*
X117192759Y-80290024D01*
X117192756Y-80290023D01*
X117044922Y-80211005D01*
X116915341Y-80104659D01*
X116808995Y-79975078D01*
X116729977Y-79827244D01*
X116681313Y-79666821D01*
X116664883Y-79500000D01*
X116681313Y-79333179D01*
X116729977Y-79172756D01*
X116808995Y-79024922D01*
X116915341Y-78895341D01*
X117044922Y-78788995D01*
X117192756Y-78709977D01*
X117192759Y-78709976D01*
X117192761Y-78709975D01*
X117353175Y-78661314D01*
X117353176Y-78661314D01*
X117353179Y-78661313D01*
X117478196Y-78649000D01*
X117561804Y-78649000D01*
X117686821Y-78661313D01*
X117686821Y-78661313D01*
G37*
G36*
X110751000Y-80351000D02*
X109049000Y-80351000D01*
X109049000Y-78649000D01*
X110751000Y-78649000D01*
X110751000Y-80351000D01*
X110751000Y-80351000D01*
G37*
G36*
X91751000Y-80351000D02*
X90049000Y-80351000D01*
X90049000Y-78649000D01*
X91751000Y-78649000D01*
X91751000Y-80351000D01*
X91751000Y-80351000D01*
G37*
G36*
X98686821Y-78661313D02*
X98686824Y-78661314D01*
X98686825Y-78661314D01*
X98847239Y-78709975D01*
X98847241Y-78709976D01*
X98847244Y-78709977D01*
X98995078Y-78788995D01*
X99124659Y-78895341D01*
X99231005Y-79024922D01*
X99310023Y-79172756D01*
X99358687Y-79333179D01*
X99375117Y-79500000D01*
X99358687Y-79666821D01*
X99310023Y-79827244D01*
X99231005Y-79975078D01*
X99124659Y-80104659D01*
X98995078Y-80211005D01*
X98847244Y-80290023D01*
X98847241Y-80290024D01*
X98847239Y-80290025D01*
X98686825Y-80338686D01*
X98686824Y-80338686D01*
X98686821Y-80338687D01*
X98561804Y-80351000D01*
X98478196Y-80351000D01*
X98353179Y-80338687D01*
X98353176Y-80338686D01*
X98353175Y-80338686D01*
X98192761Y-80290025D01*
X98192759Y-80290024D01*
X98192756Y-80290023D01*
X98044922Y-80211005D01*
X97915341Y-80104659D01*
X97808995Y-79975078D01*
X97729977Y-79827244D01*
X97681313Y-79666821D01*
X97664883Y-79500000D01*
X97681313Y-79333179D01*
X97729977Y-79172756D01*
X97808995Y-79024922D01*
X97915341Y-78895341D01*
X98044922Y-78788995D01*
X98192756Y-78709977D01*
X98192759Y-78709976D01*
X98192761Y-78709975D01*
X98353175Y-78661314D01*
X98353176Y-78661314D01*
X98353179Y-78661313D01*
X98478196Y-78649000D01*
X98561804Y-78649000D01*
X98686821Y-78661313D01*
X98686821Y-78661313D01*
G37*
G36*
X79686821Y-78661313D02*
X79686824Y-78661314D01*
X79686825Y-78661314D01*
X79847239Y-78709975D01*
X79847241Y-78709976D01*
X79847244Y-78709977D01*
X79995078Y-78788995D01*
X80124659Y-78895341D01*
X80231005Y-79024922D01*
X80310023Y-79172756D01*
X80358687Y-79333179D01*
X80375117Y-79500000D01*
X80358687Y-79666821D01*
X80310023Y-79827244D01*
X80231005Y-79975078D01*
X80124659Y-80104659D01*
X79995078Y-80211005D01*
X79847244Y-80290023D01*
X79847241Y-80290024D01*
X79847239Y-80290025D01*
X79686825Y-80338686D01*
X79686824Y-80338686D01*
X79686821Y-80338687D01*
X79561804Y-80351000D01*
X79478196Y-80351000D01*
X79353179Y-80338687D01*
X79353176Y-80338686D01*
X79353175Y-80338686D01*
X79192761Y-80290025D01*
X79192759Y-80290024D01*
X79192756Y-80290023D01*
X79044922Y-80211005D01*
X78915341Y-80104659D01*
X78808995Y-79975078D01*
X78729977Y-79827244D01*
X78681313Y-79666821D01*
X78664883Y-79500000D01*
X78681313Y-79333179D01*
X78729977Y-79172756D01*
X78808995Y-79024922D01*
X78915341Y-78895341D01*
X79044922Y-78788995D01*
X79192756Y-78709977D01*
X79192759Y-78709976D01*
X79192761Y-78709975D01*
X79353175Y-78661314D01*
X79353176Y-78661314D01*
X79353179Y-78661313D01*
X79478196Y-78649000D01*
X79561804Y-78649000D01*
X79686821Y-78661313D01*
X79686821Y-78661313D01*
G37*
G36*
X72751000Y-80351000D02*
X71049000Y-80351000D01*
X71049000Y-78649000D01*
X72751000Y-78649000D01*
X72751000Y-80351000D01*
X72751000Y-80351000D01*
G37*
G36*
X34751000Y-80351000D02*
X33049000Y-80351000D01*
X33049000Y-78649000D01*
X34751000Y-78649000D01*
X34751000Y-80351000D01*
X34751000Y-80351000D01*
G37*
G36*
X41686821Y-78661313D02*
X41686824Y-78661314D01*
X41686825Y-78661314D01*
X41847239Y-78709975D01*
X41847241Y-78709976D01*
X41847244Y-78709977D01*
X41995078Y-78788995D01*
X42124659Y-78895341D01*
X42231005Y-79024922D01*
X42310023Y-79172756D01*
X42358687Y-79333179D01*
X42375117Y-79500000D01*
X42358687Y-79666821D01*
X42310023Y-79827244D01*
X42231005Y-79975078D01*
X42124659Y-80104659D01*
X41995078Y-80211005D01*
X41847244Y-80290023D01*
X41847241Y-80290024D01*
X41847239Y-80290025D01*
X41686825Y-80338686D01*
X41686824Y-80338686D01*
X41686821Y-80338687D01*
X41561804Y-80351000D01*
X41478196Y-80351000D01*
X41353179Y-80338687D01*
X41353176Y-80338686D01*
X41353175Y-80338686D01*
X41192761Y-80290025D01*
X41192759Y-80290024D01*
X41192756Y-80290023D01*
X41044922Y-80211005D01*
X40915341Y-80104659D01*
X40808995Y-79975078D01*
X40729977Y-79827244D01*
X40681313Y-79666821D01*
X40664883Y-79500000D01*
X40681313Y-79333179D01*
X40729977Y-79172756D01*
X40808995Y-79024922D01*
X40915341Y-78895341D01*
X41044922Y-78788995D01*
X41192756Y-78709977D01*
X41192759Y-78709976D01*
X41192761Y-78709975D01*
X41353175Y-78661314D01*
X41353176Y-78661314D01*
X41353179Y-78661313D01*
X41478196Y-78649000D01*
X41561804Y-78649000D01*
X41686821Y-78661313D01*
X41686821Y-78661313D01*
G37*
G36*
X60686821Y-78661313D02*
X60686824Y-78661314D01*
X60686825Y-78661314D01*
X60847239Y-78709975D01*
X60847241Y-78709976D01*
X60847244Y-78709977D01*
X60995078Y-78788995D01*
X61124659Y-78895341D01*
X61231005Y-79024922D01*
X61310023Y-79172756D01*
X61358687Y-79333179D01*
X61375117Y-79500000D01*
X61358687Y-79666821D01*
X61310023Y-79827244D01*
X61231005Y-79975078D01*
X61124659Y-80104659D01*
X60995078Y-80211005D01*
X60847244Y-80290023D01*
X60847241Y-80290024D01*
X60847239Y-80290025D01*
X60686825Y-80338686D01*
X60686824Y-80338686D01*
X60686821Y-80338687D01*
X60561804Y-80351000D01*
X60478196Y-80351000D01*
X60353179Y-80338687D01*
X60353176Y-80338686D01*
X60353175Y-80338686D01*
X60192761Y-80290025D01*
X60192759Y-80290024D01*
X60192756Y-80290023D01*
X60044922Y-80211005D01*
X59915341Y-80104659D01*
X59808995Y-79975078D01*
X59729977Y-79827244D01*
X59681313Y-79666821D01*
X59664883Y-79500000D01*
X59681313Y-79333179D01*
X59729977Y-79172756D01*
X59808995Y-79024922D01*
X59915341Y-78895341D01*
X60044922Y-78788995D01*
X60192756Y-78709977D01*
X60192759Y-78709976D01*
X60192761Y-78709975D01*
X60353175Y-78661314D01*
X60353176Y-78661314D01*
X60353179Y-78661313D01*
X60478196Y-78649000D01*
X60561804Y-78649000D01*
X60686821Y-78661313D01*
X60686821Y-78661313D01*
G37*
G36*
X53751000Y-80351000D02*
X52049000Y-80351000D01*
X52049000Y-78649000D01*
X53751000Y-78649000D01*
X53751000Y-80351000D01*
X53751000Y-80351000D01*
G37*
G36*
X133258252Y-69207818D02*
X133258254Y-69207819D01*
X133258255Y-69207819D01*
X133631513Y-69362427D01*
X133962905Y-69583857D01*
X133967439Y-69586886D01*
X134253114Y-69872561D01*
X134253116Y-69872564D01*
X134477573Y-70208487D01*
X134632181Y-70581745D01*
X134711000Y-70977994D01*
X134711000Y-71382006D01*
X134632181Y-71778255D01*
X134477573Y-72151513D01*
X134477572Y-72151514D01*
X134253114Y-72487439D01*
X133967439Y-72773114D01*
X133967436Y-72773116D01*
X133631513Y-72997573D01*
X133258255Y-73152181D01*
X133258254Y-73152181D01*
X133258252Y-73152182D01*
X132862007Y-73231000D01*
X132457993Y-73231000D01*
X132061748Y-73152182D01*
X132061746Y-73152181D01*
X132061745Y-73152181D01*
X131688487Y-72997573D01*
X131352564Y-72773116D01*
X131352561Y-72773114D01*
X131066886Y-72487439D01*
X130842428Y-72151514D01*
X130842427Y-72151513D01*
X130687819Y-71778255D01*
X130609000Y-71382006D01*
X130609000Y-70977994D01*
X130687819Y-70581745D01*
X130842427Y-70208487D01*
X131066884Y-69872564D01*
X131066886Y-69872561D01*
X131352561Y-69586886D01*
X131357095Y-69583857D01*
X131688487Y-69362427D01*
X132061745Y-69207819D01*
X132061746Y-69207819D01*
X132061748Y-69207818D01*
X132457993Y-69129000D01*
X132862007Y-69129000D01*
X133258252Y-69207818D01*
X133258252Y-69207818D01*
G37*
G36*
X95258252Y-69207818D02*
X95258254Y-69207819D01*
X95258255Y-69207819D01*
X95631513Y-69362427D01*
X95962905Y-69583857D01*
X95967439Y-69586886D01*
X96253114Y-69872561D01*
X96253116Y-69872564D01*
X96477573Y-70208487D01*
X96632181Y-70581745D01*
X96711000Y-70977994D01*
X96711000Y-71382006D01*
X96632181Y-71778255D01*
X96477573Y-72151513D01*
X96477572Y-72151514D01*
X96253114Y-72487439D01*
X95967439Y-72773114D01*
X95967436Y-72773116D01*
X95631513Y-72997573D01*
X95258255Y-73152181D01*
X95258254Y-73152181D01*
X95258252Y-73152182D01*
X94862007Y-73231000D01*
X94457993Y-73231000D01*
X94061748Y-73152182D01*
X94061746Y-73152181D01*
X94061745Y-73152181D01*
X93688487Y-72997573D01*
X93352564Y-72773116D01*
X93352561Y-72773114D01*
X93066886Y-72487439D01*
X92842428Y-72151514D01*
X92842427Y-72151513D01*
X92687819Y-71778255D01*
X92609000Y-71382006D01*
X92609000Y-70977994D01*
X92687819Y-70581745D01*
X92842427Y-70208487D01*
X93066884Y-69872564D01*
X93066886Y-69872561D01*
X93352561Y-69586886D01*
X93357095Y-69583857D01*
X93688487Y-69362427D01*
X94061745Y-69207819D01*
X94061746Y-69207819D01*
X94061748Y-69207818D01*
X94457993Y-69129000D01*
X94862007Y-69129000D01*
X95258252Y-69207818D01*
X95258252Y-69207818D01*
G37*
G36*
X76258252Y-69207818D02*
X76258254Y-69207819D01*
X76258255Y-69207819D01*
X76631513Y-69362427D01*
X76962905Y-69583857D01*
X76967439Y-69586886D01*
X77253114Y-69872561D01*
X77253116Y-69872564D01*
X77477573Y-70208487D01*
X77632181Y-70581745D01*
X77711000Y-70977994D01*
X77711000Y-71382006D01*
X77632181Y-71778255D01*
X77477573Y-72151513D01*
X77477572Y-72151514D01*
X77253114Y-72487439D01*
X76967439Y-72773114D01*
X76967436Y-72773116D01*
X76631513Y-72997573D01*
X76258255Y-73152181D01*
X76258254Y-73152181D01*
X76258252Y-73152182D01*
X75862007Y-73231000D01*
X75457993Y-73231000D01*
X75061748Y-73152182D01*
X75061746Y-73152181D01*
X75061745Y-73152181D01*
X74688487Y-72997573D01*
X74352564Y-72773116D01*
X74352561Y-72773114D01*
X74066886Y-72487439D01*
X73842428Y-72151514D01*
X73842427Y-72151513D01*
X73687819Y-71778255D01*
X73609000Y-71382006D01*
X73609000Y-70977994D01*
X73687819Y-70581745D01*
X73842427Y-70208487D01*
X74066884Y-69872564D01*
X74066886Y-69872561D01*
X74352561Y-69586886D01*
X74357095Y-69583857D01*
X74688487Y-69362427D01*
X75061745Y-69207819D01*
X75061746Y-69207819D01*
X75061748Y-69207818D01*
X75457993Y-69129000D01*
X75862007Y-69129000D01*
X76258252Y-69207818D01*
X76258252Y-69207818D01*
G37*
G36*
X114258252Y-69207818D02*
X114258254Y-69207819D01*
X114258255Y-69207819D01*
X114631513Y-69362427D01*
X114962905Y-69583857D01*
X114967439Y-69586886D01*
X115253114Y-69872561D01*
X115253116Y-69872564D01*
X115477573Y-70208487D01*
X115632181Y-70581745D01*
X115711000Y-70977994D01*
X115711000Y-71382006D01*
X115632181Y-71778255D01*
X115477573Y-72151513D01*
X115477572Y-72151514D01*
X115253114Y-72487439D01*
X114967439Y-72773114D01*
X114967436Y-72773116D01*
X114631513Y-72997573D01*
X114258255Y-73152181D01*
X114258254Y-73152181D01*
X114258252Y-73152182D01*
X113862007Y-73231000D01*
X113457993Y-73231000D01*
X113061748Y-73152182D01*
X113061746Y-73152181D01*
X113061745Y-73152181D01*
X112688487Y-72997573D01*
X112352564Y-72773116D01*
X112352561Y-72773114D01*
X112066886Y-72487439D01*
X111842428Y-72151514D01*
X111842427Y-72151513D01*
X111687819Y-71778255D01*
X111609000Y-71382006D01*
X111609000Y-70977994D01*
X111687819Y-70581745D01*
X111842427Y-70208487D01*
X112066884Y-69872564D01*
X112066886Y-69872561D01*
X112352561Y-69586886D01*
X112357095Y-69583857D01*
X112688487Y-69362427D01*
X113061745Y-69207819D01*
X113061746Y-69207819D01*
X113061748Y-69207818D01*
X113457993Y-69129000D01*
X113862007Y-69129000D01*
X114258252Y-69207818D01*
X114258252Y-69207818D01*
G37*
G36*
X57258252Y-69207818D02*
X57258254Y-69207819D01*
X57258255Y-69207819D01*
X57631513Y-69362427D01*
X57962905Y-69583857D01*
X57967439Y-69586886D01*
X58253114Y-69872561D01*
X58253116Y-69872564D01*
X58477573Y-70208487D01*
X58632181Y-70581745D01*
X58711000Y-70977994D01*
X58711000Y-71382006D01*
X58632181Y-71778255D01*
X58477573Y-72151513D01*
X58477572Y-72151514D01*
X58253114Y-72487439D01*
X57967439Y-72773114D01*
X57967436Y-72773116D01*
X57631513Y-72997573D01*
X57258255Y-73152181D01*
X57258254Y-73152181D01*
X57258252Y-73152182D01*
X56862007Y-73231000D01*
X56457993Y-73231000D01*
X56061748Y-73152182D01*
X56061746Y-73152181D01*
X56061745Y-73152181D01*
X55688487Y-72997573D01*
X55352564Y-72773116D01*
X55352561Y-72773114D01*
X55066886Y-72487439D01*
X54842428Y-72151514D01*
X54842427Y-72151513D01*
X54687819Y-71778255D01*
X54609000Y-71382006D01*
X54609000Y-70977994D01*
X54687819Y-70581745D01*
X54842427Y-70208487D01*
X55066884Y-69872564D01*
X55066886Y-69872561D01*
X55352561Y-69586886D01*
X55357095Y-69583857D01*
X55688487Y-69362427D01*
X56061745Y-69207819D01*
X56061746Y-69207819D01*
X56061748Y-69207818D01*
X56457993Y-69129000D01*
X56862007Y-69129000D01*
X57258252Y-69207818D01*
X57258252Y-69207818D01*
G37*
G36*
X38258252Y-69207818D02*
X38258254Y-69207819D01*
X38258255Y-69207819D01*
X38631513Y-69362427D01*
X38962905Y-69583857D01*
X38967439Y-69586886D01*
X39253114Y-69872561D01*
X39253116Y-69872564D01*
X39477573Y-70208487D01*
X39632181Y-70581745D01*
X39711000Y-70977994D01*
X39711000Y-71382006D01*
X39632181Y-71778255D01*
X39477573Y-72151513D01*
X39477572Y-72151514D01*
X39253114Y-72487439D01*
X38967439Y-72773114D01*
X38967436Y-72773116D01*
X38631513Y-72997573D01*
X38258255Y-73152181D01*
X38258254Y-73152181D01*
X38258252Y-73152182D01*
X37862007Y-73231000D01*
X37457993Y-73231000D01*
X37061748Y-73152182D01*
X37061746Y-73152181D01*
X37061745Y-73152181D01*
X36688487Y-72997573D01*
X36352564Y-72773116D01*
X36352561Y-72773114D01*
X36066886Y-72487439D01*
X35842428Y-72151514D01*
X35842427Y-72151513D01*
X35687819Y-71778255D01*
X35609000Y-71382006D01*
X35609000Y-70977994D01*
X35687819Y-70581745D01*
X35842427Y-70208487D01*
X36066884Y-69872564D01*
X36066886Y-69872561D01*
X36352561Y-69586886D01*
X36357095Y-69583857D01*
X36688487Y-69362427D01*
X37061745Y-69207819D01*
X37061746Y-69207819D01*
X37061748Y-69207818D01*
X37457993Y-69129000D01*
X37862007Y-69129000D01*
X38258252Y-69207818D01*
X38258252Y-69207818D01*
G37*
G36*
X53185734Y-67533232D02*
X53395202Y-67619996D01*
X53583723Y-67745962D01*
X53744038Y-67906277D01*
X53870004Y-68094798D01*
X53956768Y-68304266D01*
X54001000Y-68526635D01*
X54001000Y-68753365D01*
X53956768Y-68975734D01*
X53870004Y-69185202D01*
X53744038Y-69373723D01*
X53583723Y-69534038D01*
X53395202Y-69660004D01*
X53185734Y-69746768D01*
X52963365Y-69791000D01*
X52736635Y-69791000D01*
X52514266Y-69746768D01*
X52304798Y-69660004D01*
X52116277Y-69534038D01*
X51955962Y-69373723D01*
X51829996Y-69185202D01*
X51743232Y-68975734D01*
X51699000Y-68753365D01*
X51699000Y-68526635D01*
X51743232Y-68304266D01*
X51829996Y-68094798D01*
X51955962Y-67906277D01*
X52116277Y-67745962D01*
X52304798Y-67619996D01*
X52514266Y-67533232D01*
X52736635Y-67489000D01*
X52963365Y-67489000D01*
X53185734Y-67533232D01*
X53185734Y-67533232D01*
G37*
G36*
X34185734Y-67533232D02*
X34395202Y-67619996D01*
X34583723Y-67745962D01*
X34744038Y-67906277D01*
X34870004Y-68094798D01*
X34956768Y-68304266D01*
X35001000Y-68526635D01*
X35001000Y-68753365D01*
X34956768Y-68975734D01*
X34870004Y-69185202D01*
X34744038Y-69373723D01*
X34583723Y-69534038D01*
X34395202Y-69660004D01*
X34185734Y-69746768D01*
X33963365Y-69791000D01*
X33736635Y-69791000D01*
X33514266Y-69746768D01*
X33304798Y-69660004D01*
X33116277Y-69534038D01*
X32955962Y-69373723D01*
X32829996Y-69185202D01*
X32743232Y-68975734D01*
X32699000Y-68753365D01*
X32699000Y-68526635D01*
X32743232Y-68304266D01*
X32829996Y-68094798D01*
X32955962Y-67906277D01*
X33116277Y-67745962D01*
X33304798Y-67619996D01*
X33514266Y-67533232D01*
X33736635Y-67489000D01*
X33963365Y-67489000D01*
X34185734Y-67533232D01*
X34185734Y-67533232D01*
G37*
G36*
X72185734Y-67533232D02*
X72395202Y-67619996D01*
X72583723Y-67745962D01*
X72744038Y-67906277D01*
X72870004Y-68094798D01*
X72956768Y-68304266D01*
X73001000Y-68526635D01*
X73001000Y-68753365D01*
X72956768Y-68975734D01*
X72870004Y-69185202D01*
X72744038Y-69373723D01*
X72583723Y-69534038D01*
X72395202Y-69660004D01*
X72185734Y-69746768D01*
X71963365Y-69791000D01*
X71736635Y-69791000D01*
X71514266Y-69746768D01*
X71304798Y-69660004D01*
X71116277Y-69534038D01*
X70955962Y-69373723D01*
X70829996Y-69185202D01*
X70743232Y-68975734D01*
X70699000Y-68753365D01*
X70699000Y-68526635D01*
X70743232Y-68304266D01*
X70829996Y-68094798D01*
X70955962Y-67906277D01*
X71116277Y-67745962D01*
X71304798Y-67619996D01*
X71514266Y-67533232D01*
X71736635Y-67489000D01*
X71963365Y-67489000D01*
X72185734Y-67533232D01*
X72185734Y-67533232D01*
G37*
G36*
X110185734Y-67533232D02*
X110395202Y-67619996D01*
X110583723Y-67745962D01*
X110744038Y-67906277D01*
X110870004Y-68094798D01*
X110956768Y-68304266D01*
X111001000Y-68526635D01*
X111001000Y-68753365D01*
X110956768Y-68975734D01*
X110870004Y-69185202D01*
X110744038Y-69373723D01*
X110583723Y-69534038D01*
X110395202Y-69660004D01*
X110185734Y-69746768D01*
X109963365Y-69791000D01*
X109736635Y-69791000D01*
X109514266Y-69746768D01*
X109304798Y-69660004D01*
X109116277Y-69534038D01*
X108955962Y-69373723D01*
X108829996Y-69185202D01*
X108743232Y-68975734D01*
X108699000Y-68753365D01*
X108699000Y-68526635D01*
X108743232Y-68304266D01*
X108829996Y-68094798D01*
X108955962Y-67906277D01*
X109116277Y-67745962D01*
X109304798Y-67619996D01*
X109514266Y-67533232D01*
X109736635Y-67489000D01*
X109963365Y-67489000D01*
X110185734Y-67533232D01*
X110185734Y-67533232D01*
G37*
G36*
X91185734Y-67533232D02*
X91395202Y-67619996D01*
X91583723Y-67745962D01*
X91744038Y-67906277D01*
X91870004Y-68094798D01*
X91956768Y-68304266D01*
X92001000Y-68526635D01*
X92001000Y-68753365D01*
X91956768Y-68975734D01*
X91870004Y-69185202D01*
X91744038Y-69373723D01*
X91583723Y-69534038D01*
X91395202Y-69660004D01*
X91185734Y-69746768D01*
X90963365Y-69791000D01*
X90736635Y-69791000D01*
X90514266Y-69746768D01*
X90304798Y-69660004D01*
X90116277Y-69534038D01*
X89955962Y-69373723D01*
X89829996Y-69185202D01*
X89743232Y-68975734D01*
X89699000Y-68753365D01*
X89699000Y-68526635D01*
X89743232Y-68304266D01*
X89829996Y-68094798D01*
X89955962Y-67906277D01*
X90116277Y-67745962D01*
X90304798Y-67619996D01*
X90514266Y-67533232D01*
X90736635Y-67489000D01*
X90963365Y-67489000D01*
X91185734Y-67533232D01*
X91185734Y-67533232D01*
G37*
G36*
X129185734Y-67533232D02*
X129395202Y-67619996D01*
X129583723Y-67745962D01*
X129744038Y-67906277D01*
X129870004Y-68094798D01*
X129956768Y-68304266D01*
X130001000Y-68526635D01*
X130001000Y-68753365D01*
X129956768Y-68975734D01*
X129870004Y-69185202D01*
X129744038Y-69373723D01*
X129583723Y-69534038D01*
X129395202Y-69660004D01*
X129185734Y-69746768D01*
X128963365Y-69791000D01*
X128736635Y-69791000D01*
X128514266Y-69746768D01*
X128304798Y-69660004D01*
X128116277Y-69534038D01*
X127955962Y-69373723D01*
X127829996Y-69185202D01*
X127743232Y-68975734D01*
X127699000Y-68753365D01*
X127699000Y-68526635D01*
X127743232Y-68304266D01*
X127829996Y-68094798D01*
X127955962Y-67906277D01*
X128116277Y-67745962D01*
X128304798Y-67619996D01*
X128514266Y-67533232D01*
X128736635Y-67489000D01*
X128963365Y-67489000D01*
X129185734Y-67533232D01*
X129185734Y-67533232D01*
G37*
G36*
X135535734Y-64993232D02*
X135745202Y-65079996D01*
X135933723Y-65205962D01*
X136094038Y-65366277D01*
X136220004Y-65554798D01*
X136306768Y-65764266D01*
X136351000Y-65986635D01*
X136351000Y-66213365D01*
X136306768Y-66435734D01*
X136220004Y-66645202D01*
X136094038Y-66833723D01*
X135933723Y-66994038D01*
X135745202Y-67120004D01*
X135535734Y-67206768D01*
X135313365Y-67251000D01*
X135086635Y-67251000D01*
X134864266Y-67206768D01*
X134654798Y-67120004D01*
X134466277Y-66994038D01*
X134305962Y-66833723D01*
X134179996Y-66645202D01*
X134093232Y-66435734D01*
X134049000Y-66213365D01*
X134049000Y-65986635D01*
X134093232Y-65764266D01*
X134179996Y-65554798D01*
X134305962Y-65366277D01*
X134466277Y-65205962D01*
X134654798Y-65079996D01*
X134864266Y-64993232D01*
X135086635Y-64949000D01*
X135313365Y-64949000D01*
X135535734Y-64993232D01*
X135535734Y-64993232D01*
G37*
G36*
X78535734Y-64993232D02*
X78745202Y-65079996D01*
X78933723Y-65205962D01*
X79094038Y-65366277D01*
X79220004Y-65554798D01*
X79306768Y-65764266D01*
X79351000Y-65986635D01*
X79351000Y-66213365D01*
X79306768Y-66435734D01*
X79220004Y-66645202D01*
X79094038Y-66833723D01*
X78933723Y-66994038D01*
X78745202Y-67120004D01*
X78535734Y-67206768D01*
X78313365Y-67251000D01*
X78086635Y-67251000D01*
X77864266Y-67206768D01*
X77654798Y-67120004D01*
X77466277Y-66994038D01*
X77305962Y-66833723D01*
X77179996Y-66645202D01*
X77093232Y-66435734D01*
X77049000Y-66213365D01*
X77049000Y-65986635D01*
X77093232Y-65764266D01*
X77179996Y-65554798D01*
X77305962Y-65366277D01*
X77466277Y-65205962D01*
X77654798Y-65079996D01*
X77864266Y-64993232D01*
X78086635Y-64949000D01*
X78313365Y-64949000D01*
X78535734Y-64993232D01*
X78535734Y-64993232D01*
G37*
G36*
X116535734Y-64993232D02*
X116745202Y-65079996D01*
X116933723Y-65205962D01*
X117094038Y-65366277D01*
X117220004Y-65554798D01*
X117306768Y-65764266D01*
X117351000Y-65986635D01*
X117351000Y-66213365D01*
X117306768Y-66435734D01*
X117220004Y-66645202D01*
X117094038Y-66833723D01*
X116933723Y-66994038D01*
X116745202Y-67120004D01*
X116535734Y-67206768D01*
X116313365Y-67251000D01*
X116086635Y-67251000D01*
X115864266Y-67206768D01*
X115654798Y-67120004D01*
X115466277Y-66994038D01*
X115305962Y-66833723D01*
X115179996Y-66645202D01*
X115093232Y-66435734D01*
X115049000Y-66213365D01*
X115049000Y-65986635D01*
X115093232Y-65764266D01*
X115179996Y-65554798D01*
X115305962Y-65366277D01*
X115466277Y-65205962D01*
X115654798Y-65079996D01*
X115864266Y-64993232D01*
X116086635Y-64949000D01*
X116313365Y-64949000D01*
X116535734Y-64993232D01*
X116535734Y-64993232D01*
G37*
G36*
X97535734Y-64993232D02*
X97745202Y-65079996D01*
X97933723Y-65205962D01*
X98094038Y-65366277D01*
X98220004Y-65554798D01*
X98306768Y-65764266D01*
X98351000Y-65986635D01*
X98351000Y-66213365D01*
X98306768Y-66435734D01*
X98220004Y-66645202D01*
X98094038Y-66833723D01*
X97933723Y-66994038D01*
X97745202Y-67120004D01*
X97535734Y-67206768D01*
X97313365Y-67251000D01*
X97086635Y-67251000D01*
X96864266Y-67206768D01*
X96654798Y-67120004D01*
X96466277Y-66994038D01*
X96305962Y-66833723D01*
X96179996Y-66645202D01*
X96093232Y-66435734D01*
X96049000Y-66213365D01*
X96049000Y-65986635D01*
X96093232Y-65764266D01*
X96179996Y-65554798D01*
X96305962Y-65366277D01*
X96466277Y-65205962D01*
X96654798Y-65079996D01*
X96864266Y-64993232D01*
X97086635Y-64949000D01*
X97313365Y-64949000D01*
X97535734Y-64993232D01*
X97535734Y-64993232D01*
G37*
G36*
X59535734Y-64993232D02*
X59745202Y-65079996D01*
X59933723Y-65205962D01*
X60094038Y-65366277D01*
X60220004Y-65554798D01*
X60306768Y-65764266D01*
X60351000Y-65986635D01*
X60351000Y-66213365D01*
X60306768Y-66435734D01*
X60220004Y-66645202D01*
X60094038Y-66833723D01*
X59933723Y-66994038D01*
X59745202Y-67120004D01*
X59535734Y-67206768D01*
X59313365Y-67251000D01*
X59086635Y-67251000D01*
X58864266Y-67206768D01*
X58654798Y-67120004D01*
X58466277Y-66994038D01*
X58305962Y-66833723D01*
X58179996Y-66645202D01*
X58093232Y-66435734D01*
X58049000Y-66213365D01*
X58049000Y-65986635D01*
X58093232Y-65764266D01*
X58179996Y-65554798D01*
X58305962Y-65366277D01*
X58466277Y-65205962D01*
X58654798Y-65079996D01*
X58864266Y-64993232D01*
X59086635Y-64949000D01*
X59313365Y-64949000D01*
X59535734Y-64993232D01*
X59535734Y-64993232D01*
G37*
G36*
X40535734Y-64993232D02*
X40745202Y-65079996D01*
X40933723Y-65205962D01*
X41094038Y-65366277D01*
X41220004Y-65554798D01*
X41306768Y-65764266D01*
X41351000Y-65986635D01*
X41351000Y-66213365D01*
X41306768Y-66435734D01*
X41220004Y-66645202D01*
X41094038Y-66833723D01*
X40933723Y-66994038D01*
X40745202Y-67120004D01*
X40535734Y-67206768D01*
X40313365Y-67251000D01*
X40086635Y-67251000D01*
X39864266Y-67206768D01*
X39654798Y-67120004D01*
X39466277Y-66994038D01*
X39305962Y-66833723D01*
X39179996Y-66645202D01*
X39093232Y-66435734D01*
X39049000Y-66213365D01*
X39049000Y-65986635D01*
X39093232Y-65764266D01*
X39179996Y-65554798D01*
X39305962Y-65366277D01*
X39466277Y-65205962D01*
X39654798Y-65079996D01*
X39864266Y-64993232D01*
X40086635Y-64949000D01*
X40313365Y-64949000D01*
X40535734Y-64993232D01*
X40535734Y-64993232D01*
G37*
G36*
X98686821Y-59661313D02*
X98686824Y-59661314D01*
X98686825Y-59661314D01*
X98847239Y-59709975D01*
X98847241Y-59709976D01*
X98847244Y-59709977D01*
X98995078Y-59788995D01*
X99124659Y-59895341D01*
X99231005Y-60024922D01*
X99310023Y-60172756D01*
X99358687Y-60333179D01*
X99375117Y-60500000D01*
X99358687Y-60666821D01*
X99310023Y-60827244D01*
X99231005Y-60975078D01*
X99124659Y-61104659D01*
X98995078Y-61211005D01*
X98847244Y-61290023D01*
X98847241Y-61290024D01*
X98847239Y-61290025D01*
X98686825Y-61338686D01*
X98686824Y-61338686D01*
X98686821Y-61338687D01*
X98561804Y-61351000D01*
X98478196Y-61351000D01*
X98353179Y-61338687D01*
X98353176Y-61338686D01*
X98353175Y-61338686D01*
X98192761Y-61290025D01*
X98192759Y-61290024D01*
X98192756Y-61290023D01*
X98044922Y-61211005D01*
X97915341Y-61104659D01*
X97808995Y-60975078D01*
X97729977Y-60827244D01*
X97681313Y-60666821D01*
X97664883Y-60500000D01*
X97681313Y-60333179D01*
X97729977Y-60172756D01*
X97808995Y-60024922D01*
X97915341Y-59895341D01*
X98044922Y-59788995D01*
X98192756Y-59709977D01*
X98192759Y-59709976D01*
X98192761Y-59709975D01*
X98353175Y-59661314D01*
X98353176Y-59661314D01*
X98353179Y-59661313D01*
X98478196Y-59649000D01*
X98561804Y-59649000D01*
X98686821Y-59661313D01*
X98686821Y-59661313D01*
G37*
G36*
X79686821Y-59661313D02*
X79686824Y-59661314D01*
X79686825Y-59661314D01*
X79847239Y-59709975D01*
X79847241Y-59709976D01*
X79847244Y-59709977D01*
X79995078Y-59788995D01*
X80124659Y-59895341D01*
X80231005Y-60024922D01*
X80310023Y-60172756D01*
X80358687Y-60333179D01*
X80375117Y-60500000D01*
X80358687Y-60666821D01*
X80310023Y-60827244D01*
X80231005Y-60975078D01*
X80124659Y-61104659D01*
X79995078Y-61211005D01*
X79847244Y-61290023D01*
X79847241Y-61290024D01*
X79847239Y-61290025D01*
X79686825Y-61338686D01*
X79686824Y-61338686D01*
X79686821Y-61338687D01*
X79561804Y-61351000D01*
X79478196Y-61351000D01*
X79353179Y-61338687D01*
X79353176Y-61338686D01*
X79353175Y-61338686D01*
X79192761Y-61290025D01*
X79192759Y-61290024D01*
X79192756Y-61290023D01*
X79044922Y-61211005D01*
X78915341Y-61104659D01*
X78808995Y-60975078D01*
X78729977Y-60827244D01*
X78681313Y-60666821D01*
X78664883Y-60500000D01*
X78681313Y-60333179D01*
X78729977Y-60172756D01*
X78808995Y-60024922D01*
X78915341Y-59895341D01*
X79044922Y-59788995D01*
X79192756Y-59709977D01*
X79192759Y-59709976D01*
X79192761Y-59709975D01*
X79353175Y-59661314D01*
X79353176Y-59661314D01*
X79353179Y-59661313D01*
X79478196Y-59649000D01*
X79561804Y-59649000D01*
X79686821Y-59661313D01*
X79686821Y-59661313D01*
G37*
G36*
X72751000Y-61351000D02*
X71049000Y-61351000D01*
X71049000Y-59649000D01*
X72751000Y-59649000D01*
X72751000Y-61351000D01*
X72751000Y-61351000D01*
G37*
G36*
X117686821Y-59661313D02*
X117686824Y-59661314D01*
X117686825Y-59661314D01*
X117847239Y-59709975D01*
X117847241Y-59709976D01*
X117847244Y-59709977D01*
X117995078Y-59788995D01*
X118124659Y-59895341D01*
X118231005Y-60024922D01*
X118310023Y-60172756D01*
X118358687Y-60333179D01*
X118375117Y-60500000D01*
X118358687Y-60666821D01*
X118310023Y-60827244D01*
X118231005Y-60975078D01*
X118124659Y-61104659D01*
X117995078Y-61211005D01*
X117847244Y-61290023D01*
X117847241Y-61290024D01*
X117847239Y-61290025D01*
X117686825Y-61338686D01*
X117686824Y-61338686D01*
X117686821Y-61338687D01*
X117561804Y-61351000D01*
X117478196Y-61351000D01*
X117353179Y-61338687D01*
X117353176Y-61338686D01*
X117353175Y-61338686D01*
X117192761Y-61290025D01*
X117192759Y-61290024D01*
X117192756Y-61290023D01*
X117044922Y-61211005D01*
X116915341Y-61104659D01*
X116808995Y-60975078D01*
X116729977Y-60827244D01*
X116681313Y-60666821D01*
X116664883Y-60500000D01*
X116681313Y-60333179D01*
X116729977Y-60172756D01*
X116808995Y-60024922D01*
X116915341Y-59895341D01*
X117044922Y-59788995D01*
X117192756Y-59709977D01*
X117192759Y-59709976D01*
X117192761Y-59709975D01*
X117353175Y-59661314D01*
X117353176Y-59661314D01*
X117353179Y-59661313D01*
X117478196Y-59649000D01*
X117561804Y-59649000D01*
X117686821Y-59661313D01*
X117686821Y-59661313D01*
G37*
G36*
X110751000Y-61351000D02*
X109049000Y-61351000D01*
X109049000Y-59649000D01*
X110751000Y-59649000D01*
X110751000Y-61351000D01*
X110751000Y-61351000D01*
G37*
G36*
X53751000Y-61351000D02*
X52049000Y-61351000D01*
X52049000Y-59649000D01*
X53751000Y-59649000D01*
X53751000Y-61351000D01*
X53751000Y-61351000D01*
G37*
G36*
X60686821Y-59661313D02*
X60686824Y-59661314D01*
X60686825Y-59661314D01*
X60847239Y-59709975D01*
X60847241Y-59709976D01*
X60847244Y-59709977D01*
X60995078Y-59788995D01*
X61124659Y-59895341D01*
X61231005Y-60024922D01*
X61310023Y-60172756D01*
X61358687Y-60333179D01*
X61375117Y-60500000D01*
X61358687Y-60666821D01*
X61310023Y-60827244D01*
X61231005Y-60975078D01*
X61124659Y-61104659D01*
X60995078Y-61211005D01*
X60847244Y-61290023D01*
X60847241Y-61290024D01*
X60847239Y-61290025D01*
X60686825Y-61338686D01*
X60686824Y-61338686D01*
X60686821Y-61338687D01*
X60561804Y-61351000D01*
X60478196Y-61351000D01*
X60353179Y-61338687D01*
X60353176Y-61338686D01*
X60353175Y-61338686D01*
X60192761Y-61290025D01*
X60192759Y-61290024D01*
X60192756Y-61290023D01*
X60044922Y-61211005D01*
X59915341Y-61104659D01*
X59808995Y-60975078D01*
X59729977Y-60827244D01*
X59681313Y-60666821D01*
X59664883Y-60500000D01*
X59681313Y-60333179D01*
X59729977Y-60172756D01*
X59808995Y-60024922D01*
X59915341Y-59895341D01*
X60044922Y-59788995D01*
X60192756Y-59709977D01*
X60192759Y-59709976D01*
X60192761Y-59709975D01*
X60353175Y-59661314D01*
X60353176Y-59661314D01*
X60353179Y-59661313D01*
X60478196Y-59649000D01*
X60561804Y-59649000D01*
X60686821Y-59661313D01*
X60686821Y-59661313D01*
G37*
G36*
X136686821Y-59661313D02*
X136686824Y-59661314D01*
X136686825Y-59661314D01*
X136847239Y-59709975D01*
X136847241Y-59709976D01*
X136847244Y-59709977D01*
X136995078Y-59788995D01*
X137124659Y-59895341D01*
X137231005Y-60024922D01*
X137310023Y-60172756D01*
X137358687Y-60333179D01*
X137375117Y-60500000D01*
X137358687Y-60666821D01*
X137310023Y-60827244D01*
X137231005Y-60975078D01*
X137124659Y-61104659D01*
X136995078Y-61211005D01*
X136847244Y-61290023D01*
X136847241Y-61290024D01*
X136847239Y-61290025D01*
X136686825Y-61338686D01*
X136686824Y-61338686D01*
X136686821Y-61338687D01*
X136561804Y-61351000D01*
X136478196Y-61351000D01*
X136353179Y-61338687D01*
X136353176Y-61338686D01*
X136353175Y-61338686D01*
X136192761Y-61290025D01*
X136192759Y-61290024D01*
X136192756Y-61290023D01*
X136044922Y-61211005D01*
X135915341Y-61104659D01*
X135808995Y-60975078D01*
X135729977Y-60827244D01*
X135681313Y-60666821D01*
X135664883Y-60500000D01*
X135681313Y-60333179D01*
X135729977Y-60172756D01*
X135808995Y-60024922D01*
X135915341Y-59895341D01*
X136044922Y-59788995D01*
X136192756Y-59709977D01*
X136192759Y-59709976D01*
X136192761Y-59709975D01*
X136353175Y-59661314D01*
X136353176Y-59661314D01*
X136353179Y-59661313D01*
X136478196Y-59649000D01*
X136561804Y-59649000D01*
X136686821Y-59661313D01*
X136686821Y-59661313D01*
G37*
G36*
X91751000Y-61351000D02*
X90049000Y-61351000D01*
X90049000Y-59649000D01*
X91751000Y-59649000D01*
X91751000Y-61351000D01*
X91751000Y-61351000D01*
G37*
G36*
X34751000Y-61351000D02*
X33049000Y-61351000D01*
X33049000Y-59649000D01*
X34751000Y-59649000D01*
X34751000Y-61351000D01*
X34751000Y-61351000D01*
G37*
G36*
X41686821Y-59661313D02*
X41686824Y-59661314D01*
X41686825Y-59661314D01*
X41847239Y-59709975D01*
X41847241Y-59709976D01*
X41847244Y-59709977D01*
X41995078Y-59788995D01*
X42124659Y-59895341D01*
X42231005Y-60024922D01*
X42310023Y-60172756D01*
X42358687Y-60333179D01*
X42375117Y-60500000D01*
X42358687Y-60666821D01*
X42310023Y-60827244D01*
X42231005Y-60975078D01*
X42124659Y-61104659D01*
X41995078Y-61211005D01*
X41847244Y-61290023D01*
X41847241Y-61290024D01*
X41847239Y-61290025D01*
X41686825Y-61338686D01*
X41686824Y-61338686D01*
X41686821Y-61338687D01*
X41561804Y-61351000D01*
X41478196Y-61351000D01*
X41353179Y-61338687D01*
X41353176Y-61338686D01*
X41353175Y-61338686D01*
X41192761Y-61290025D01*
X41192759Y-61290024D01*
X41192756Y-61290023D01*
X41044922Y-61211005D01*
X40915341Y-61104659D01*
X40808995Y-60975078D01*
X40729977Y-60827244D01*
X40681313Y-60666821D01*
X40664883Y-60500000D01*
X40681313Y-60333179D01*
X40729977Y-60172756D01*
X40808995Y-60024922D01*
X40915341Y-59895341D01*
X41044922Y-59788995D01*
X41192756Y-59709977D01*
X41192759Y-59709976D01*
X41192761Y-59709975D01*
X41353175Y-59661314D01*
X41353176Y-59661314D01*
X41353179Y-59661313D01*
X41478196Y-59649000D01*
X41561804Y-59649000D01*
X41686821Y-59661313D01*
X41686821Y-59661313D01*
G37*
G36*
X129751000Y-61351000D02*
X128049000Y-61351000D01*
X128049000Y-59649000D01*
X129751000Y-59649000D01*
X129751000Y-61351000D01*
X129751000Y-61351000D01*
G37*
G36*
X76258252Y-50207818D02*
X76258254Y-50207819D01*
X76258255Y-50207819D01*
X76631513Y-50362427D01*
X76962905Y-50583857D01*
X76967439Y-50586886D01*
X77253114Y-50872561D01*
X77253116Y-50872564D01*
X77477573Y-51208487D01*
X77632181Y-51581745D01*
X77711000Y-51977994D01*
X77711000Y-52382006D01*
X77632181Y-52778255D01*
X77477573Y-53151513D01*
X77477572Y-53151514D01*
X77253114Y-53487439D01*
X76967439Y-53773114D01*
X76967436Y-53773116D01*
X76631513Y-53997573D01*
X76258255Y-54152181D01*
X76258254Y-54152181D01*
X76258252Y-54152182D01*
X75862007Y-54231000D01*
X75457993Y-54231000D01*
X75061748Y-54152182D01*
X75061746Y-54152181D01*
X75061745Y-54152181D01*
X74688487Y-53997573D01*
X74352564Y-53773116D01*
X74352561Y-53773114D01*
X74066886Y-53487439D01*
X73842428Y-53151514D01*
X73842427Y-53151513D01*
X73687819Y-52778255D01*
X73609000Y-52382006D01*
X73609000Y-51977994D01*
X73687819Y-51581745D01*
X73842427Y-51208487D01*
X74066884Y-50872564D01*
X74066886Y-50872561D01*
X74352561Y-50586886D01*
X74357095Y-50583857D01*
X74688487Y-50362427D01*
X75061745Y-50207819D01*
X75061746Y-50207819D01*
X75061748Y-50207818D01*
X75457993Y-50129000D01*
X75862007Y-50129000D01*
X76258252Y-50207818D01*
X76258252Y-50207818D01*
G37*
G36*
X133258252Y-50207818D02*
X133258254Y-50207819D01*
X133258255Y-50207819D01*
X133631513Y-50362427D01*
X133962905Y-50583857D01*
X133967439Y-50586886D01*
X134253114Y-50872561D01*
X134253116Y-50872564D01*
X134477573Y-51208487D01*
X134632181Y-51581745D01*
X134711000Y-51977994D01*
X134711000Y-52382006D01*
X134632181Y-52778255D01*
X134477573Y-53151513D01*
X134477572Y-53151514D01*
X134253114Y-53487439D01*
X133967439Y-53773114D01*
X133967436Y-53773116D01*
X133631513Y-53997573D01*
X133258255Y-54152181D01*
X133258254Y-54152181D01*
X133258252Y-54152182D01*
X132862007Y-54231000D01*
X132457993Y-54231000D01*
X132061748Y-54152182D01*
X132061746Y-54152181D01*
X132061745Y-54152181D01*
X131688487Y-53997573D01*
X131352564Y-53773116D01*
X131352561Y-53773114D01*
X131066886Y-53487439D01*
X130842428Y-53151514D01*
X130842427Y-53151513D01*
X130687819Y-52778255D01*
X130609000Y-52382006D01*
X130609000Y-51977994D01*
X130687819Y-51581745D01*
X130842427Y-51208487D01*
X131066884Y-50872564D01*
X131066886Y-50872561D01*
X131352561Y-50586886D01*
X131357095Y-50583857D01*
X131688487Y-50362427D01*
X132061745Y-50207819D01*
X132061746Y-50207819D01*
X132061748Y-50207818D01*
X132457993Y-50129000D01*
X132862007Y-50129000D01*
X133258252Y-50207818D01*
X133258252Y-50207818D01*
G37*
G36*
X38258252Y-50207818D02*
X38258254Y-50207819D01*
X38258255Y-50207819D01*
X38631513Y-50362427D01*
X38962905Y-50583857D01*
X38967439Y-50586886D01*
X39253114Y-50872561D01*
X39253116Y-50872564D01*
X39477573Y-51208487D01*
X39632181Y-51581745D01*
X39711000Y-51977994D01*
X39711000Y-52382006D01*
X39632181Y-52778255D01*
X39477573Y-53151513D01*
X39477572Y-53151514D01*
X39253114Y-53487439D01*
X38967439Y-53773114D01*
X38967436Y-53773116D01*
X38631513Y-53997573D01*
X38258255Y-54152181D01*
X38258254Y-54152181D01*
X38258252Y-54152182D01*
X37862007Y-54231000D01*
X37457993Y-54231000D01*
X37061748Y-54152182D01*
X37061746Y-54152181D01*
X37061745Y-54152181D01*
X36688487Y-53997573D01*
X36352564Y-53773116D01*
X36352561Y-53773114D01*
X36066886Y-53487439D01*
X35842428Y-53151514D01*
X35842427Y-53151513D01*
X35687819Y-52778255D01*
X35609000Y-52382006D01*
X35609000Y-51977994D01*
X35687819Y-51581745D01*
X35842427Y-51208487D01*
X36066884Y-50872564D01*
X36066886Y-50872561D01*
X36352561Y-50586886D01*
X36357095Y-50583857D01*
X36688487Y-50362427D01*
X37061745Y-50207819D01*
X37061746Y-50207819D01*
X37061748Y-50207818D01*
X37457993Y-50129000D01*
X37862007Y-50129000D01*
X38258252Y-50207818D01*
X38258252Y-50207818D01*
G37*
G36*
X114258252Y-50207818D02*
X114258254Y-50207819D01*
X114258255Y-50207819D01*
X114631513Y-50362427D01*
X114962905Y-50583857D01*
X114967439Y-50586886D01*
X115253114Y-50872561D01*
X115253116Y-50872564D01*
X115477573Y-51208487D01*
X115632181Y-51581745D01*
X115711000Y-51977994D01*
X115711000Y-52382006D01*
X115632181Y-52778255D01*
X115477573Y-53151513D01*
X115477572Y-53151514D01*
X115253114Y-53487439D01*
X114967439Y-53773114D01*
X114967436Y-53773116D01*
X114631513Y-53997573D01*
X114258255Y-54152181D01*
X114258254Y-54152181D01*
X114258252Y-54152182D01*
X113862007Y-54231000D01*
X113457993Y-54231000D01*
X113061748Y-54152182D01*
X113061746Y-54152181D01*
X113061745Y-54152181D01*
X112688487Y-53997573D01*
X112352564Y-53773116D01*
X112352561Y-53773114D01*
X112066886Y-53487439D01*
X111842428Y-53151514D01*
X111842427Y-53151513D01*
X111687819Y-52778255D01*
X111609000Y-52382006D01*
X111609000Y-51977994D01*
X111687819Y-51581745D01*
X111842427Y-51208487D01*
X112066884Y-50872564D01*
X112066886Y-50872561D01*
X112352561Y-50586886D01*
X112357095Y-50583857D01*
X112688487Y-50362427D01*
X113061745Y-50207819D01*
X113061746Y-50207819D01*
X113061748Y-50207818D01*
X113457993Y-50129000D01*
X113862007Y-50129000D01*
X114258252Y-50207818D01*
X114258252Y-50207818D01*
G37*
G36*
X95258252Y-50207818D02*
X95258254Y-50207819D01*
X95258255Y-50207819D01*
X95631513Y-50362427D01*
X95962905Y-50583857D01*
X95967439Y-50586886D01*
X96253114Y-50872561D01*
X96253116Y-50872564D01*
X96477573Y-51208487D01*
X96632181Y-51581745D01*
X96711000Y-51977994D01*
X96711000Y-52382006D01*
X96632181Y-52778255D01*
X96477573Y-53151513D01*
X96477572Y-53151514D01*
X96253114Y-53487439D01*
X95967439Y-53773114D01*
X95967436Y-53773116D01*
X95631513Y-53997573D01*
X95258255Y-54152181D01*
X95258254Y-54152181D01*
X95258252Y-54152182D01*
X94862007Y-54231000D01*
X94457993Y-54231000D01*
X94061748Y-54152182D01*
X94061746Y-54152181D01*
X94061745Y-54152181D01*
X93688487Y-53997573D01*
X93352564Y-53773116D01*
X93352561Y-53773114D01*
X93066886Y-53487439D01*
X92842428Y-53151514D01*
X92842427Y-53151513D01*
X92687819Y-52778255D01*
X92609000Y-52382006D01*
X92609000Y-51977994D01*
X92687819Y-51581745D01*
X92842427Y-51208487D01*
X93066884Y-50872564D01*
X93066886Y-50872561D01*
X93352561Y-50586886D01*
X93357095Y-50583857D01*
X93688487Y-50362427D01*
X94061745Y-50207819D01*
X94061746Y-50207819D01*
X94061748Y-50207818D01*
X94457993Y-50129000D01*
X94862007Y-50129000D01*
X95258252Y-50207818D01*
X95258252Y-50207818D01*
G37*
G36*
X57258252Y-50207818D02*
X57258254Y-50207819D01*
X57258255Y-50207819D01*
X57631513Y-50362427D01*
X57962905Y-50583857D01*
X57967439Y-50586886D01*
X58253114Y-50872561D01*
X58253116Y-50872564D01*
X58477573Y-51208487D01*
X58632181Y-51581745D01*
X58711000Y-51977994D01*
X58711000Y-52382006D01*
X58632181Y-52778255D01*
X58477573Y-53151513D01*
X58477572Y-53151514D01*
X58253114Y-53487439D01*
X57967439Y-53773114D01*
X57967436Y-53773116D01*
X57631513Y-53997573D01*
X57258255Y-54152181D01*
X57258254Y-54152181D01*
X57258252Y-54152182D01*
X56862007Y-54231000D01*
X56457993Y-54231000D01*
X56061748Y-54152182D01*
X56061746Y-54152181D01*
X56061745Y-54152181D01*
X55688487Y-53997573D01*
X55352564Y-53773116D01*
X55352561Y-53773114D01*
X55066886Y-53487439D01*
X54842428Y-53151514D01*
X54842427Y-53151513D01*
X54687819Y-52778255D01*
X54609000Y-52382006D01*
X54609000Y-51977994D01*
X54687819Y-51581745D01*
X54842427Y-51208487D01*
X55066884Y-50872564D01*
X55066886Y-50872561D01*
X55352561Y-50586886D01*
X55357095Y-50583857D01*
X55688487Y-50362427D01*
X56061745Y-50207819D01*
X56061746Y-50207819D01*
X56061748Y-50207818D01*
X56457993Y-50129000D01*
X56862007Y-50129000D01*
X57258252Y-50207818D01*
X57258252Y-50207818D01*
G37*
G36*
X72185734Y-48533232D02*
X72395202Y-48619996D01*
X72583723Y-48745962D01*
X72744038Y-48906277D01*
X72870004Y-49094798D01*
X72956768Y-49304266D01*
X73001000Y-49526635D01*
X73001000Y-49753365D01*
X72956768Y-49975734D01*
X72870004Y-50185202D01*
X72744038Y-50373723D01*
X72583723Y-50534038D01*
X72395202Y-50660004D01*
X72185734Y-50746768D01*
X71963365Y-50791000D01*
X71736635Y-50791000D01*
X71514266Y-50746768D01*
X71304798Y-50660004D01*
X71116277Y-50534038D01*
X70955962Y-50373723D01*
X70829996Y-50185202D01*
X70743232Y-49975734D01*
X70699000Y-49753365D01*
X70699000Y-49526635D01*
X70743232Y-49304266D01*
X70829996Y-49094798D01*
X70955962Y-48906277D01*
X71116277Y-48745962D01*
X71304798Y-48619996D01*
X71514266Y-48533232D01*
X71736635Y-48489000D01*
X71963365Y-48489000D01*
X72185734Y-48533232D01*
X72185734Y-48533232D01*
G37*
G36*
X91185734Y-48533232D02*
X91395202Y-48619996D01*
X91583723Y-48745962D01*
X91744038Y-48906277D01*
X91870004Y-49094798D01*
X91956768Y-49304266D01*
X92001000Y-49526635D01*
X92001000Y-49753365D01*
X91956768Y-49975734D01*
X91870004Y-50185202D01*
X91744038Y-50373723D01*
X91583723Y-50534038D01*
X91395202Y-50660004D01*
X91185734Y-50746768D01*
X90963365Y-50791000D01*
X90736635Y-50791000D01*
X90514266Y-50746768D01*
X90304798Y-50660004D01*
X90116277Y-50534038D01*
X89955962Y-50373723D01*
X89829996Y-50185202D01*
X89743232Y-49975734D01*
X89699000Y-49753365D01*
X89699000Y-49526635D01*
X89743232Y-49304266D01*
X89829996Y-49094798D01*
X89955962Y-48906277D01*
X90116277Y-48745962D01*
X90304798Y-48619996D01*
X90514266Y-48533232D01*
X90736635Y-48489000D01*
X90963365Y-48489000D01*
X91185734Y-48533232D01*
X91185734Y-48533232D01*
G37*
G36*
X110185734Y-48533232D02*
X110395202Y-48619996D01*
X110583723Y-48745962D01*
X110744038Y-48906277D01*
X110870004Y-49094798D01*
X110956768Y-49304266D01*
X111001000Y-49526635D01*
X111001000Y-49753365D01*
X110956768Y-49975734D01*
X110870004Y-50185202D01*
X110744038Y-50373723D01*
X110583723Y-50534038D01*
X110395202Y-50660004D01*
X110185734Y-50746768D01*
X109963365Y-50791000D01*
X109736635Y-50791000D01*
X109514266Y-50746768D01*
X109304798Y-50660004D01*
X109116277Y-50534038D01*
X108955962Y-50373723D01*
X108829996Y-50185202D01*
X108743232Y-49975734D01*
X108699000Y-49753365D01*
X108699000Y-49526635D01*
X108743232Y-49304266D01*
X108829996Y-49094798D01*
X108955962Y-48906277D01*
X109116277Y-48745962D01*
X109304798Y-48619996D01*
X109514266Y-48533232D01*
X109736635Y-48489000D01*
X109963365Y-48489000D01*
X110185734Y-48533232D01*
X110185734Y-48533232D01*
G37*
G36*
X129185734Y-48533232D02*
X129395202Y-48619996D01*
X129583723Y-48745962D01*
X129744038Y-48906277D01*
X129870004Y-49094798D01*
X129956768Y-49304266D01*
X130001000Y-49526635D01*
X130001000Y-49753365D01*
X129956768Y-49975734D01*
X129870004Y-50185202D01*
X129744038Y-50373723D01*
X129583723Y-50534038D01*
X129395202Y-50660004D01*
X129185734Y-50746768D01*
X128963365Y-50791000D01*
X128736635Y-50791000D01*
X128514266Y-50746768D01*
X128304798Y-50660004D01*
X128116277Y-50534038D01*
X127955962Y-50373723D01*
X127829996Y-50185202D01*
X127743232Y-49975734D01*
X127699000Y-49753365D01*
X127699000Y-49526635D01*
X127743232Y-49304266D01*
X127829996Y-49094798D01*
X127955962Y-48906277D01*
X128116277Y-48745962D01*
X128304798Y-48619996D01*
X128514266Y-48533232D01*
X128736635Y-48489000D01*
X128963365Y-48489000D01*
X129185734Y-48533232D01*
X129185734Y-48533232D01*
G37*
G36*
X34185734Y-48533232D02*
X34395202Y-48619996D01*
X34583723Y-48745962D01*
X34744038Y-48906277D01*
X34870004Y-49094798D01*
X34956768Y-49304266D01*
X35001000Y-49526635D01*
X35001000Y-49753365D01*
X34956768Y-49975734D01*
X34870004Y-50185202D01*
X34744038Y-50373723D01*
X34583723Y-50534038D01*
X34395202Y-50660004D01*
X34185734Y-50746768D01*
X33963365Y-50791000D01*
X33736635Y-50791000D01*
X33514266Y-50746768D01*
X33304798Y-50660004D01*
X33116277Y-50534038D01*
X32955962Y-50373723D01*
X32829996Y-50185202D01*
X32743232Y-49975734D01*
X32699000Y-49753365D01*
X32699000Y-49526635D01*
X32743232Y-49304266D01*
X32829996Y-49094798D01*
X32955962Y-48906277D01*
X33116277Y-48745962D01*
X33304798Y-48619996D01*
X33514266Y-48533232D01*
X33736635Y-48489000D01*
X33963365Y-48489000D01*
X34185734Y-48533232D01*
X34185734Y-48533232D01*
G37*
G36*
X53185734Y-48533232D02*
X53395202Y-48619996D01*
X53583723Y-48745962D01*
X53744038Y-48906277D01*
X53870004Y-49094798D01*
X53956768Y-49304266D01*
X54001000Y-49526635D01*
X54001000Y-49753365D01*
X53956768Y-49975734D01*
X53870004Y-50185202D01*
X53744038Y-50373723D01*
X53583723Y-50534038D01*
X53395202Y-50660004D01*
X53185734Y-50746768D01*
X52963365Y-50791000D01*
X52736635Y-50791000D01*
X52514266Y-50746768D01*
X52304798Y-50660004D01*
X52116277Y-50534038D01*
X51955962Y-50373723D01*
X51829996Y-50185202D01*
X51743232Y-49975734D01*
X51699000Y-49753365D01*
X51699000Y-49526635D01*
X51743232Y-49304266D01*
X51829996Y-49094798D01*
X51955962Y-48906277D01*
X52116277Y-48745962D01*
X52304798Y-48619996D01*
X52514266Y-48533232D01*
X52736635Y-48489000D01*
X52963365Y-48489000D01*
X53185734Y-48533232D01*
X53185734Y-48533232D01*
G37*
G36*
X116535734Y-45993232D02*
X116745202Y-46079996D01*
X116933723Y-46205962D01*
X117094038Y-46366277D01*
X117220004Y-46554798D01*
X117306768Y-46764266D01*
X117351000Y-46986635D01*
X117351000Y-47213365D01*
X117306768Y-47435734D01*
X117220004Y-47645202D01*
X117094038Y-47833723D01*
X116933723Y-47994038D01*
X116745202Y-48120004D01*
X116535734Y-48206768D01*
X116313365Y-48251000D01*
X116086635Y-48251000D01*
X115864266Y-48206768D01*
X115654798Y-48120004D01*
X115466277Y-47994038D01*
X115305962Y-47833723D01*
X115179996Y-47645202D01*
X115093232Y-47435734D01*
X115049000Y-47213365D01*
X115049000Y-46986635D01*
X115093232Y-46764266D01*
X115179996Y-46554798D01*
X115305962Y-46366277D01*
X115466277Y-46205962D01*
X115654798Y-46079996D01*
X115864266Y-45993232D01*
X116086635Y-45949000D01*
X116313365Y-45949000D01*
X116535734Y-45993232D01*
X116535734Y-45993232D01*
G37*
G36*
X78535734Y-45993232D02*
X78745202Y-46079996D01*
X78933723Y-46205962D01*
X79094038Y-46366277D01*
X79220004Y-46554798D01*
X79306768Y-46764266D01*
X79351000Y-46986635D01*
X79351000Y-47213365D01*
X79306768Y-47435734D01*
X79220004Y-47645202D01*
X79094038Y-47833723D01*
X78933723Y-47994038D01*
X78745202Y-48120004D01*
X78535734Y-48206768D01*
X78313365Y-48251000D01*
X78086635Y-48251000D01*
X77864266Y-48206768D01*
X77654798Y-48120004D01*
X77466277Y-47994038D01*
X77305962Y-47833723D01*
X77179996Y-47645202D01*
X77093232Y-47435734D01*
X77049000Y-47213365D01*
X77049000Y-46986635D01*
X77093232Y-46764266D01*
X77179996Y-46554798D01*
X77305962Y-46366277D01*
X77466277Y-46205962D01*
X77654798Y-46079996D01*
X77864266Y-45993232D01*
X78086635Y-45949000D01*
X78313365Y-45949000D01*
X78535734Y-45993232D01*
X78535734Y-45993232D01*
G37*
G36*
X97535734Y-45993232D02*
X97745202Y-46079996D01*
X97933723Y-46205962D01*
X98094038Y-46366277D01*
X98220004Y-46554798D01*
X98306768Y-46764266D01*
X98351000Y-46986635D01*
X98351000Y-47213365D01*
X98306768Y-47435734D01*
X98220004Y-47645202D01*
X98094038Y-47833723D01*
X97933723Y-47994038D01*
X97745202Y-48120004D01*
X97535734Y-48206768D01*
X97313365Y-48251000D01*
X97086635Y-48251000D01*
X96864266Y-48206768D01*
X96654798Y-48120004D01*
X96466277Y-47994038D01*
X96305962Y-47833723D01*
X96179996Y-47645202D01*
X96093232Y-47435734D01*
X96049000Y-47213365D01*
X96049000Y-46986635D01*
X96093232Y-46764266D01*
X96179996Y-46554798D01*
X96305962Y-46366277D01*
X96466277Y-46205962D01*
X96654798Y-46079996D01*
X96864266Y-45993232D01*
X97086635Y-45949000D01*
X97313365Y-45949000D01*
X97535734Y-45993232D01*
X97535734Y-45993232D01*
G37*
G36*
X135535734Y-45993232D02*
X135745202Y-46079996D01*
X135933723Y-46205962D01*
X136094038Y-46366277D01*
X136220004Y-46554798D01*
X136306768Y-46764266D01*
X136351000Y-46986635D01*
X136351000Y-47213365D01*
X136306768Y-47435734D01*
X136220004Y-47645202D01*
X136094038Y-47833723D01*
X135933723Y-47994038D01*
X135745202Y-48120004D01*
X135535734Y-48206768D01*
X135313365Y-48251000D01*
X135086635Y-48251000D01*
X134864266Y-48206768D01*
X134654798Y-48120004D01*
X134466277Y-47994038D01*
X134305962Y-47833723D01*
X134179996Y-47645202D01*
X134093232Y-47435734D01*
X134049000Y-47213365D01*
X134049000Y-46986635D01*
X134093232Y-46764266D01*
X134179996Y-46554798D01*
X134305962Y-46366277D01*
X134466277Y-46205962D01*
X134654798Y-46079996D01*
X134864266Y-45993232D01*
X135086635Y-45949000D01*
X135313365Y-45949000D01*
X135535734Y-45993232D01*
X135535734Y-45993232D01*
G37*
G36*
X40535734Y-45993232D02*
X40745202Y-46079996D01*
X40933723Y-46205962D01*
X41094038Y-46366277D01*
X41220004Y-46554798D01*
X41306768Y-46764266D01*
X41351000Y-46986635D01*
X41351000Y-47213365D01*
X41306768Y-47435734D01*
X41220004Y-47645202D01*
X41094038Y-47833723D01*
X40933723Y-47994038D01*
X40745202Y-48120004D01*
X40535734Y-48206768D01*
X40313365Y-48251000D01*
X40086635Y-48251000D01*
X39864266Y-48206768D01*
X39654798Y-48120004D01*
X39466277Y-47994038D01*
X39305962Y-47833723D01*
X39179996Y-47645202D01*
X39093232Y-47435734D01*
X39049000Y-47213365D01*
X39049000Y-46986635D01*
X39093232Y-46764266D01*
X39179996Y-46554798D01*
X39305962Y-46366277D01*
X39466277Y-46205962D01*
X39654798Y-46079996D01*
X39864266Y-45993232D01*
X40086635Y-45949000D01*
X40313365Y-45949000D01*
X40535734Y-45993232D01*
X40535734Y-45993232D01*
G37*
G36*
X59535734Y-45993232D02*
X59745202Y-46079996D01*
X59933723Y-46205962D01*
X60094038Y-46366277D01*
X60220004Y-46554798D01*
X60306768Y-46764266D01*
X60351000Y-46986635D01*
X60351000Y-47213365D01*
X60306768Y-47435734D01*
X60220004Y-47645202D01*
X60094038Y-47833723D01*
X59933723Y-47994038D01*
X59745202Y-48120004D01*
X59535734Y-48206768D01*
X59313365Y-48251000D01*
X59086635Y-48251000D01*
X58864266Y-48206768D01*
X58654798Y-48120004D01*
X58466277Y-47994038D01*
X58305962Y-47833723D01*
X58179996Y-47645202D01*
X58093232Y-47435734D01*
X58049000Y-47213365D01*
X58049000Y-46986635D01*
X58093232Y-46764266D01*
X58179996Y-46554798D01*
X58305962Y-46366277D01*
X58466277Y-46205962D01*
X58654798Y-46079996D01*
X58864266Y-45993232D01*
X59086635Y-45949000D01*
X59313365Y-45949000D01*
X59535734Y-45993232D01*
X59535734Y-45993232D01*
G37*
G36*
X159873665Y-46352622D02*
X159947222Y-46359867D01*
X160088786Y-46402810D01*
X160219252Y-46472546D01*
X160333606Y-46566394D01*
X160427454Y-46680748D01*
X160497190Y-46811214D01*
X160540133Y-46952778D01*
X160554633Y-47100000D01*
X160540133Y-47247222D01*
X160497190Y-47388786D01*
X160427454Y-47519252D01*
X160333606Y-47633606D01*
X160219252Y-47727454D01*
X160088786Y-47797190D01*
X159947222Y-47840133D01*
X159873665Y-47847378D01*
X159836888Y-47851000D01*
X159163112Y-47851000D01*
X159126335Y-47847378D01*
X159052778Y-47840133D01*
X158911214Y-47797190D01*
X158780748Y-47727454D01*
X158666394Y-47633606D01*
X158572546Y-47519252D01*
X158502810Y-47388786D01*
X158459867Y-47247222D01*
X158445367Y-47100000D01*
X158459867Y-46952778D01*
X158502810Y-46811214D01*
X158572546Y-46680748D01*
X158666394Y-46566394D01*
X158780748Y-46472546D01*
X158911214Y-46402810D01*
X159052778Y-46359867D01*
X159126335Y-46352622D01*
X159163112Y-46349000D01*
X159836888Y-46349000D01*
X159873665Y-46352622D01*
X159873665Y-46352622D01*
G37*
G36*
X18851000Y-47751000D02*
X16749000Y-47751000D01*
X16749000Y-46249000D01*
X18851000Y-46249000D01*
X18851000Y-47751000D01*
X18851000Y-47751000D01*
G37*
G36*
X14173665Y-46252622D02*
X14247222Y-46259867D01*
X14388786Y-46302810D01*
X14519252Y-46372546D01*
X14633606Y-46466394D01*
X14727454Y-46580748D01*
X14797190Y-46711214D01*
X14840133Y-46852778D01*
X14854633Y-47000000D01*
X14840133Y-47147222D01*
X14797190Y-47288786D01*
X14727454Y-47419252D01*
X14633606Y-47533606D01*
X14519252Y-47627454D01*
X14388786Y-47697190D01*
X14247222Y-47740133D01*
X14173665Y-47747378D01*
X14136888Y-47751000D01*
X13463112Y-47751000D01*
X13426335Y-47747378D01*
X13352778Y-47740133D01*
X13211214Y-47697190D01*
X13080748Y-47627454D01*
X12966394Y-47533606D01*
X12872546Y-47419252D01*
X12802810Y-47288786D01*
X12759867Y-47147222D01*
X12745367Y-47000000D01*
X12759867Y-46852778D01*
X12802810Y-46711214D01*
X12872546Y-46580748D01*
X12966394Y-46466394D01*
X13080748Y-46372546D01*
X13211214Y-46302810D01*
X13352778Y-46259867D01*
X13426335Y-46252622D01*
X13463112Y-46249000D01*
X14136888Y-46249000D01*
X14173665Y-46252622D01*
X14173665Y-46252622D01*
G37*
G36*
X11173665Y-46252622D02*
X11247222Y-46259867D01*
X11388786Y-46302810D01*
X11519252Y-46372546D01*
X11633606Y-46466394D01*
X11727454Y-46580748D01*
X11797190Y-46711214D01*
X11840133Y-46852778D01*
X11854633Y-47000000D01*
X11840133Y-47147222D01*
X11797190Y-47288786D01*
X11727454Y-47419252D01*
X11633606Y-47533606D01*
X11519252Y-47627454D01*
X11388786Y-47697190D01*
X11247222Y-47740133D01*
X11173665Y-47747378D01*
X11136888Y-47751000D01*
X10463112Y-47751000D01*
X10426335Y-47747378D01*
X10352778Y-47740133D01*
X10211214Y-47697190D01*
X10080748Y-47627454D01*
X9966394Y-47533606D01*
X9872546Y-47419252D01*
X9802810Y-47288786D01*
X9759867Y-47147222D01*
X9745367Y-47000000D01*
X9759867Y-46852778D01*
X9802810Y-46711214D01*
X9872546Y-46580748D01*
X9966394Y-46466394D01*
X10080748Y-46372546D01*
X10211214Y-46302810D01*
X10352778Y-46259867D01*
X10426335Y-46252622D01*
X10463112Y-46249000D01*
X11136888Y-46249000D01*
X11173665Y-46252622D01*
X11173665Y-46252622D01*
G37*
G36*
X151373665Y-45352622D02*
X151447222Y-45359867D01*
X151588786Y-45402810D01*
X151719252Y-45472546D01*
X151833606Y-45566394D01*
X151927454Y-45680748D01*
X151997190Y-45811214D01*
X152040133Y-45952778D01*
X152054633Y-46100000D01*
X152040133Y-46247222D01*
X151997190Y-46388786D01*
X151927454Y-46519252D01*
X151833606Y-46633606D01*
X151719252Y-46727454D01*
X151588786Y-46797190D01*
X151447222Y-46840133D01*
X151373665Y-46847378D01*
X151336888Y-46851000D01*
X150663112Y-46851000D01*
X150626335Y-46847378D01*
X150552778Y-46840133D01*
X150411214Y-46797190D01*
X150280748Y-46727454D01*
X150166394Y-46633606D01*
X150072546Y-46519252D01*
X150002810Y-46388786D01*
X149959867Y-46247222D01*
X149945367Y-46100000D01*
X149959867Y-45952778D01*
X150002810Y-45811214D01*
X150072546Y-45680748D01*
X150166394Y-45566394D01*
X150280748Y-45472546D01*
X150411214Y-45402810D01*
X150552778Y-45359867D01*
X150626335Y-45352622D01*
X150663112Y-45349000D01*
X151336888Y-45349000D01*
X151373665Y-45352622D01*
X151373665Y-45352622D01*
G37*
G36*
X19289890Y-44074017D02*
X19408361Y-44123089D01*
X19514992Y-44194338D01*
X19605662Y-44285008D01*
X19676911Y-44391639D01*
X19725983Y-44510110D01*
X19751000Y-44635881D01*
X19751000Y-44764119D01*
X19725983Y-44889890D01*
X19676911Y-45008361D01*
X19605662Y-45114992D01*
X19514992Y-45205662D01*
X19408361Y-45276911D01*
X19289890Y-45325983D01*
X19164119Y-45351000D01*
X19035881Y-45351000D01*
X18910110Y-45325983D01*
X18791639Y-45276911D01*
X18685008Y-45205662D01*
X18594338Y-45114992D01*
X18523089Y-45008361D01*
X18474017Y-44889890D01*
X18449000Y-44764119D01*
X18449000Y-44635881D01*
X18474017Y-44510110D01*
X18523089Y-44391639D01*
X18594338Y-44285008D01*
X18685008Y-44194338D01*
X18791639Y-44123089D01*
X18910110Y-44074017D01*
X19035881Y-44049000D01*
X19164119Y-44049000D01*
X19289890Y-44074017D01*
X19289890Y-44074017D01*
G37*
G36*
X12289890Y-44074017D02*
X12408361Y-44123089D01*
X12514992Y-44194338D01*
X12605662Y-44285008D01*
X12676911Y-44391639D01*
X12725983Y-44510110D01*
X12751000Y-44635881D01*
X12751000Y-44764119D01*
X12725983Y-44889890D01*
X12676911Y-45008361D01*
X12605662Y-45114992D01*
X12514992Y-45205662D01*
X12408361Y-45276911D01*
X12289890Y-45325983D01*
X12164119Y-45351000D01*
X12035881Y-45351000D01*
X11910110Y-45325983D01*
X11791639Y-45276911D01*
X11685008Y-45205662D01*
X11594338Y-45114992D01*
X11523089Y-45008361D01*
X11474017Y-44889890D01*
X11449000Y-44764119D01*
X11449000Y-44635881D01*
X11474017Y-44510110D01*
X11523089Y-44391639D01*
X11594338Y-44285008D01*
X11685008Y-44194338D01*
X11791639Y-44123089D01*
X11910110Y-44074017D01*
X12035881Y-44049000D01*
X12164119Y-44049000D01*
X12289890Y-44074017D01*
X12289890Y-44074017D01*
G37*
G36*
X158389890Y-43274017D02*
X158508361Y-43323089D01*
X158614992Y-43394338D01*
X158705662Y-43485008D01*
X158776911Y-43591639D01*
X158825983Y-43710110D01*
X158851000Y-43835881D01*
X158851000Y-43964119D01*
X158825983Y-44089890D01*
X158776911Y-44208361D01*
X158705662Y-44314992D01*
X158614992Y-44405662D01*
X158508361Y-44476911D01*
X158389890Y-44525983D01*
X158264119Y-44551000D01*
X158135881Y-44551000D01*
X158010110Y-44525983D01*
X157891639Y-44476911D01*
X157785008Y-44405662D01*
X157694338Y-44314992D01*
X157623089Y-44208361D01*
X157574017Y-44089890D01*
X157549000Y-43964119D01*
X157549000Y-43835881D01*
X157574017Y-43710110D01*
X157623089Y-43591639D01*
X157694338Y-43485008D01*
X157785008Y-43394338D01*
X157891639Y-43323089D01*
X158010110Y-43274017D01*
X158135881Y-43249000D01*
X158264119Y-43249000D01*
X158389890Y-43274017D01*
X158389890Y-43274017D01*
G37*
G36*
X151389890Y-43274017D02*
X151508361Y-43323089D01*
X151614992Y-43394338D01*
X151705662Y-43485008D01*
X151776911Y-43591639D01*
X151825983Y-43710110D01*
X151851000Y-43835881D01*
X151851000Y-43964119D01*
X151825983Y-44089890D01*
X151776911Y-44208361D01*
X151705662Y-44314992D01*
X151614992Y-44405662D01*
X151508361Y-44476911D01*
X151389890Y-44525983D01*
X151264119Y-44551000D01*
X151135881Y-44551000D01*
X151010110Y-44525983D01*
X150891639Y-44476911D01*
X150785008Y-44405662D01*
X150694338Y-44314992D01*
X150623089Y-44208361D01*
X150574017Y-44089890D01*
X150549000Y-43964119D01*
X150549000Y-43835881D01*
X150574017Y-43710110D01*
X150623089Y-43591639D01*
X150694338Y-43485008D01*
X150785008Y-43394338D01*
X150891639Y-43323089D01*
X151010110Y-43274017D01*
X151135881Y-43249000D01*
X151264119Y-43249000D01*
X151389890Y-43274017D01*
X151389890Y-43274017D01*
G37*
G36*
X19673665Y-41752622D02*
X19747222Y-41759867D01*
X19888786Y-41802810D01*
X20019252Y-41872546D01*
X20133606Y-41966394D01*
X20227454Y-42080748D01*
X20297190Y-42211214D01*
X20340133Y-42352778D01*
X20354633Y-42500000D01*
X20340133Y-42647222D01*
X20297190Y-42788786D01*
X20227454Y-42919252D01*
X20133606Y-43033606D01*
X20019252Y-43127454D01*
X19888786Y-43197190D01*
X19747222Y-43240133D01*
X19673665Y-43247378D01*
X19636888Y-43251000D01*
X18963112Y-43251000D01*
X18926335Y-43247378D01*
X18852778Y-43240133D01*
X18711214Y-43197190D01*
X18580748Y-43127454D01*
X18466394Y-43033606D01*
X18372546Y-42919252D01*
X18302810Y-42788786D01*
X18259867Y-42647222D01*
X18245367Y-42500000D01*
X18259867Y-42352778D01*
X18302810Y-42211214D01*
X18372546Y-42080748D01*
X18466394Y-41966394D01*
X18580748Y-41872546D01*
X18711214Y-41802810D01*
X18852778Y-41759867D01*
X18926335Y-41752622D01*
X18963112Y-41749000D01*
X19636888Y-41749000D01*
X19673665Y-41752622D01*
X19673665Y-41752622D01*
G37*
G36*
X136686821Y-40661313D02*
X136686824Y-40661314D01*
X136686825Y-40661314D01*
X136847239Y-40709975D01*
X136847241Y-40709976D01*
X136847244Y-40709977D01*
X136995078Y-40788995D01*
X137124659Y-40895341D01*
X137231005Y-41024922D01*
X137310023Y-41172756D01*
X137310024Y-41172759D01*
X137310025Y-41172761D01*
X137352024Y-41311214D01*
X137358687Y-41333179D01*
X137375117Y-41500000D01*
X137358687Y-41666821D01*
X137358686Y-41666824D01*
X137358686Y-41666825D01*
X137321690Y-41788786D01*
X137310023Y-41827244D01*
X137231005Y-41975078D01*
X137124659Y-42104659D01*
X136995078Y-42211005D01*
X136847244Y-42290023D01*
X136847241Y-42290024D01*
X136847239Y-42290025D01*
X136686825Y-42338686D01*
X136686824Y-42338686D01*
X136686821Y-42338687D01*
X136561804Y-42351000D01*
X136478196Y-42351000D01*
X136353179Y-42338687D01*
X136353176Y-42338686D01*
X136353175Y-42338686D01*
X136192761Y-42290025D01*
X136192759Y-42290024D01*
X136192756Y-42290023D01*
X136044922Y-42211005D01*
X135915341Y-42104659D01*
X135808995Y-41975078D01*
X135729977Y-41827244D01*
X135718311Y-41788786D01*
X135681314Y-41666825D01*
X135681314Y-41666824D01*
X135681313Y-41666821D01*
X135664883Y-41500000D01*
X135681313Y-41333179D01*
X135687976Y-41311214D01*
X135729975Y-41172761D01*
X135729976Y-41172759D01*
X135729977Y-41172756D01*
X135808995Y-41024922D01*
X135915341Y-40895341D01*
X136044922Y-40788995D01*
X136192756Y-40709977D01*
X136192759Y-40709976D01*
X136192761Y-40709975D01*
X136353175Y-40661314D01*
X136353176Y-40661314D01*
X136353179Y-40661313D01*
X136478196Y-40649000D01*
X136561804Y-40649000D01*
X136686821Y-40661313D01*
X136686821Y-40661313D01*
G37*
G36*
X156873665Y-40852622D02*
X156947222Y-40859867D01*
X157088786Y-40902810D01*
X157219252Y-40972546D01*
X157333606Y-41066394D01*
X157427454Y-41180748D01*
X157497190Y-41311214D01*
X157540133Y-41452778D01*
X157554633Y-41600000D01*
X157540133Y-41747222D01*
X157497190Y-41888786D01*
X157427454Y-42019252D01*
X157333606Y-42133606D01*
X157219252Y-42227454D01*
X157088786Y-42297190D01*
X156947222Y-42340133D01*
X156873665Y-42347378D01*
X156836888Y-42351000D01*
X156163112Y-42351000D01*
X156126335Y-42347378D01*
X156052778Y-42340133D01*
X155911214Y-42297190D01*
X155780748Y-42227454D01*
X155666394Y-42133606D01*
X155572546Y-42019252D01*
X155502810Y-41888786D01*
X155459867Y-41747222D01*
X155445367Y-41600000D01*
X155459867Y-41452778D01*
X155502810Y-41311214D01*
X155572546Y-41180748D01*
X155666394Y-41066394D01*
X155780748Y-40972546D01*
X155911214Y-40902810D01*
X156052778Y-40859867D01*
X156126335Y-40852622D01*
X156163112Y-40849000D01*
X156836888Y-40849000D01*
X156873665Y-40852622D01*
X156873665Y-40852622D01*
G37*
G36*
X159873665Y-40852622D02*
X159947222Y-40859867D01*
X160088786Y-40902810D01*
X160219252Y-40972546D01*
X160333606Y-41066394D01*
X160427454Y-41180748D01*
X160497190Y-41311214D01*
X160540133Y-41452778D01*
X160554633Y-41600000D01*
X160540133Y-41747222D01*
X160497190Y-41888786D01*
X160427454Y-42019252D01*
X160333606Y-42133606D01*
X160219252Y-42227454D01*
X160088786Y-42297190D01*
X159947222Y-42340133D01*
X159873665Y-42347378D01*
X159836888Y-42351000D01*
X159163112Y-42351000D01*
X159126335Y-42347378D01*
X159052778Y-42340133D01*
X158911214Y-42297190D01*
X158780748Y-42227454D01*
X158666394Y-42133606D01*
X158572546Y-42019252D01*
X158502810Y-41888786D01*
X158459867Y-41747222D01*
X158445367Y-41600000D01*
X158459867Y-41452778D01*
X158502810Y-41311214D01*
X158572546Y-41180748D01*
X158666394Y-41066394D01*
X158780748Y-40972546D01*
X158911214Y-40902810D01*
X159052778Y-40859867D01*
X159126335Y-40852622D01*
X159163112Y-40849000D01*
X159836888Y-40849000D01*
X159873665Y-40852622D01*
X159873665Y-40852622D01*
G37*
G36*
X153551000Y-42351000D02*
X151449000Y-42351000D01*
X151449000Y-40849000D01*
X153551000Y-40849000D01*
X153551000Y-42351000D01*
X153551000Y-42351000D01*
G37*
G36*
X98686821Y-40661313D02*
X98686824Y-40661314D01*
X98686825Y-40661314D01*
X98847239Y-40709975D01*
X98847241Y-40709976D01*
X98847244Y-40709977D01*
X98995078Y-40788995D01*
X99124659Y-40895341D01*
X99231005Y-41024922D01*
X99310023Y-41172756D01*
X99310024Y-41172759D01*
X99310025Y-41172761D01*
X99352024Y-41311214D01*
X99358687Y-41333179D01*
X99375117Y-41500000D01*
X99358687Y-41666821D01*
X99358686Y-41666824D01*
X99358686Y-41666825D01*
X99321690Y-41788786D01*
X99310023Y-41827244D01*
X99231005Y-41975078D01*
X99124659Y-42104659D01*
X98995078Y-42211005D01*
X98847244Y-42290023D01*
X98847241Y-42290024D01*
X98847239Y-42290025D01*
X98686825Y-42338686D01*
X98686824Y-42338686D01*
X98686821Y-42338687D01*
X98561804Y-42351000D01*
X98478196Y-42351000D01*
X98353179Y-42338687D01*
X98353176Y-42338686D01*
X98353175Y-42338686D01*
X98192761Y-42290025D01*
X98192759Y-42290024D01*
X98192756Y-42290023D01*
X98044922Y-42211005D01*
X97915341Y-42104659D01*
X97808995Y-41975078D01*
X97729977Y-41827244D01*
X97718311Y-41788786D01*
X97681314Y-41666825D01*
X97681314Y-41666824D01*
X97681313Y-41666821D01*
X97664883Y-41500000D01*
X97681313Y-41333179D01*
X97687976Y-41311214D01*
X97729975Y-41172761D01*
X97729976Y-41172759D01*
X97729977Y-41172756D01*
X97808995Y-41024922D01*
X97915341Y-40895341D01*
X98044922Y-40788995D01*
X98192756Y-40709977D01*
X98192759Y-40709976D01*
X98192761Y-40709975D01*
X98353175Y-40661314D01*
X98353176Y-40661314D01*
X98353179Y-40661313D01*
X98478196Y-40649000D01*
X98561804Y-40649000D01*
X98686821Y-40661313D01*
X98686821Y-40661313D01*
G37*
G36*
X110751000Y-42351000D02*
X109049000Y-42351000D01*
X109049000Y-40649000D01*
X110751000Y-40649000D01*
X110751000Y-42351000D01*
X110751000Y-42351000D01*
G37*
G36*
X117686821Y-40661313D02*
X117686824Y-40661314D01*
X117686825Y-40661314D01*
X117847239Y-40709975D01*
X117847241Y-40709976D01*
X117847244Y-40709977D01*
X117995078Y-40788995D01*
X118124659Y-40895341D01*
X118231005Y-41024922D01*
X118310023Y-41172756D01*
X118310024Y-41172759D01*
X118310025Y-41172761D01*
X118352024Y-41311214D01*
X118358687Y-41333179D01*
X118375117Y-41500000D01*
X118358687Y-41666821D01*
X118358686Y-41666824D01*
X118358686Y-41666825D01*
X118321690Y-41788786D01*
X118310023Y-41827244D01*
X118231005Y-41975078D01*
X118124659Y-42104659D01*
X117995078Y-42211005D01*
X117847244Y-42290023D01*
X117847241Y-42290024D01*
X117847239Y-42290025D01*
X117686825Y-42338686D01*
X117686824Y-42338686D01*
X117686821Y-42338687D01*
X117561804Y-42351000D01*
X117478196Y-42351000D01*
X117353179Y-42338687D01*
X117353176Y-42338686D01*
X117353175Y-42338686D01*
X117192761Y-42290025D01*
X117192759Y-42290024D01*
X117192756Y-42290023D01*
X117044922Y-42211005D01*
X116915341Y-42104659D01*
X116808995Y-41975078D01*
X116729977Y-41827244D01*
X116718311Y-41788786D01*
X116681314Y-41666825D01*
X116681314Y-41666824D01*
X116681313Y-41666821D01*
X116664883Y-41500000D01*
X116681313Y-41333179D01*
X116687976Y-41311214D01*
X116729975Y-41172761D01*
X116729976Y-41172759D01*
X116729977Y-41172756D01*
X116808995Y-41024922D01*
X116915341Y-40895341D01*
X117044922Y-40788995D01*
X117192756Y-40709977D01*
X117192759Y-40709976D01*
X117192761Y-40709975D01*
X117353175Y-40661314D01*
X117353176Y-40661314D01*
X117353179Y-40661313D01*
X117478196Y-40649000D01*
X117561804Y-40649000D01*
X117686821Y-40661313D01*
X117686821Y-40661313D01*
G37*
G36*
X91751000Y-42351000D02*
X90049000Y-42351000D01*
X90049000Y-40649000D01*
X91751000Y-40649000D01*
X91751000Y-42351000D01*
X91751000Y-42351000D01*
G37*
G36*
X129751000Y-42351000D02*
X128049000Y-42351000D01*
X128049000Y-40649000D01*
X129751000Y-40649000D01*
X129751000Y-42351000D01*
X129751000Y-42351000D01*
G37*
G36*
X72751000Y-42351000D02*
X71049000Y-42351000D01*
X71049000Y-40649000D01*
X72751000Y-40649000D01*
X72751000Y-42351000D01*
X72751000Y-42351000D01*
G37*
G36*
X79686821Y-40661313D02*
X79686824Y-40661314D01*
X79686825Y-40661314D01*
X79847239Y-40709975D01*
X79847241Y-40709976D01*
X79847244Y-40709977D01*
X79995078Y-40788995D01*
X80124659Y-40895341D01*
X80231005Y-41024922D01*
X80310023Y-41172756D01*
X80310024Y-41172759D01*
X80310025Y-41172761D01*
X80352024Y-41311214D01*
X80358687Y-41333179D01*
X80375117Y-41500000D01*
X80358687Y-41666821D01*
X80358686Y-41666824D01*
X80358686Y-41666825D01*
X80321690Y-41788786D01*
X80310023Y-41827244D01*
X80231005Y-41975078D01*
X80124659Y-42104659D01*
X79995078Y-42211005D01*
X79847244Y-42290023D01*
X79847241Y-42290024D01*
X79847239Y-42290025D01*
X79686825Y-42338686D01*
X79686824Y-42338686D01*
X79686821Y-42338687D01*
X79561804Y-42351000D01*
X79478196Y-42351000D01*
X79353179Y-42338687D01*
X79353176Y-42338686D01*
X79353175Y-42338686D01*
X79192761Y-42290025D01*
X79192759Y-42290024D01*
X79192756Y-42290023D01*
X79044922Y-42211005D01*
X78915341Y-42104659D01*
X78808995Y-41975078D01*
X78729977Y-41827244D01*
X78718311Y-41788786D01*
X78681314Y-41666825D01*
X78681314Y-41666824D01*
X78681313Y-41666821D01*
X78664883Y-41500000D01*
X78681313Y-41333179D01*
X78687976Y-41311214D01*
X78729975Y-41172761D01*
X78729976Y-41172759D01*
X78729977Y-41172756D01*
X78808995Y-41024922D01*
X78915341Y-40895341D01*
X79044922Y-40788995D01*
X79192756Y-40709977D01*
X79192759Y-40709976D01*
X79192761Y-40709975D01*
X79353175Y-40661314D01*
X79353176Y-40661314D01*
X79353179Y-40661313D01*
X79478196Y-40649000D01*
X79561804Y-40649000D01*
X79686821Y-40661313D01*
X79686821Y-40661313D01*
G37*
G36*
X60686821Y-40661313D02*
X60686824Y-40661314D01*
X60686825Y-40661314D01*
X60847239Y-40709975D01*
X60847241Y-40709976D01*
X60847244Y-40709977D01*
X60995078Y-40788995D01*
X61124659Y-40895341D01*
X61231005Y-41024922D01*
X61310023Y-41172756D01*
X61310024Y-41172759D01*
X61310025Y-41172761D01*
X61352024Y-41311214D01*
X61358687Y-41333179D01*
X61375117Y-41500000D01*
X61358687Y-41666821D01*
X61358686Y-41666824D01*
X61358686Y-41666825D01*
X61321690Y-41788786D01*
X61310023Y-41827244D01*
X61231005Y-41975078D01*
X61124659Y-42104659D01*
X60995078Y-42211005D01*
X60847244Y-42290023D01*
X60847241Y-42290024D01*
X60847239Y-42290025D01*
X60686825Y-42338686D01*
X60686824Y-42338686D01*
X60686821Y-42338687D01*
X60561804Y-42351000D01*
X60478196Y-42351000D01*
X60353179Y-42338687D01*
X60353176Y-42338686D01*
X60353175Y-42338686D01*
X60192761Y-42290025D01*
X60192759Y-42290024D01*
X60192756Y-42290023D01*
X60044922Y-42211005D01*
X59915341Y-42104659D01*
X59808995Y-41975078D01*
X59729977Y-41827244D01*
X59718311Y-41788786D01*
X59681314Y-41666825D01*
X59681314Y-41666824D01*
X59681313Y-41666821D01*
X59664883Y-41500000D01*
X59681313Y-41333179D01*
X59687976Y-41311214D01*
X59729975Y-41172761D01*
X59729976Y-41172759D01*
X59729977Y-41172756D01*
X59808995Y-41024922D01*
X59915341Y-40895341D01*
X60044922Y-40788995D01*
X60192756Y-40709977D01*
X60192759Y-40709976D01*
X60192761Y-40709975D01*
X60353175Y-40661314D01*
X60353176Y-40661314D01*
X60353179Y-40661313D01*
X60478196Y-40649000D01*
X60561804Y-40649000D01*
X60686821Y-40661313D01*
X60686821Y-40661313D01*
G37*
G36*
X41686821Y-40661313D02*
X41686824Y-40661314D01*
X41686825Y-40661314D01*
X41847239Y-40709975D01*
X41847241Y-40709976D01*
X41847244Y-40709977D01*
X41995078Y-40788995D01*
X42124659Y-40895341D01*
X42231005Y-41024922D01*
X42310023Y-41172756D01*
X42310024Y-41172759D01*
X42310025Y-41172761D01*
X42352024Y-41311214D01*
X42358687Y-41333179D01*
X42375117Y-41500000D01*
X42358687Y-41666821D01*
X42358686Y-41666824D01*
X42358686Y-41666825D01*
X42321690Y-41788786D01*
X42310023Y-41827244D01*
X42231005Y-41975078D01*
X42124659Y-42104659D01*
X41995078Y-42211005D01*
X41847244Y-42290023D01*
X41847241Y-42290024D01*
X41847239Y-42290025D01*
X41686825Y-42338686D01*
X41686824Y-42338686D01*
X41686821Y-42338687D01*
X41561804Y-42351000D01*
X41478196Y-42351000D01*
X41353179Y-42338687D01*
X41353176Y-42338686D01*
X41353175Y-42338686D01*
X41192761Y-42290025D01*
X41192759Y-42290024D01*
X41192756Y-42290023D01*
X41044922Y-42211005D01*
X40915341Y-42104659D01*
X40808995Y-41975078D01*
X40729977Y-41827244D01*
X40718311Y-41788786D01*
X40681314Y-41666825D01*
X40681314Y-41666824D01*
X40681313Y-41666821D01*
X40664883Y-41500000D01*
X40681313Y-41333179D01*
X40687976Y-41311214D01*
X40729975Y-41172761D01*
X40729976Y-41172759D01*
X40729977Y-41172756D01*
X40808995Y-41024922D01*
X40915341Y-40895341D01*
X41044922Y-40788995D01*
X41192756Y-40709977D01*
X41192759Y-40709976D01*
X41192761Y-40709975D01*
X41353175Y-40661314D01*
X41353176Y-40661314D01*
X41353179Y-40661313D01*
X41478196Y-40649000D01*
X41561804Y-40649000D01*
X41686821Y-40661313D01*
X41686821Y-40661313D01*
G37*
G36*
X34751000Y-42351000D02*
X33049000Y-42351000D01*
X33049000Y-40649000D01*
X34751000Y-40649000D01*
X34751000Y-42351000D01*
X34751000Y-42351000D01*
G37*
G36*
X53751000Y-42351000D02*
X52049000Y-42351000D01*
X52049000Y-40649000D01*
X53751000Y-40649000D01*
X53751000Y-42351000D01*
X53751000Y-42351000D01*
G37*
G36*
X11173665Y-40752622D02*
X11247222Y-40759867D01*
X11388786Y-40802810D01*
X11519252Y-40872546D01*
X11633606Y-40966394D01*
X11727454Y-41080748D01*
X11797190Y-41211214D01*
X11840133Y-41352778D01*
X11854633Y-41500000D01*
X11840133Y-41647222D01*
X11797190Y-41788786D01*
X11727454Y-41919252D01*
X11633606Y-42033606D01*
X11519252Y-42127454D01*
X11388786Y-42197190D01*
X11247222Y-42240133D01*
X11173665Y-42247378D01*
X11136888Y-42251000D01*
X10463112Y-42251000D01*
X10426335Y-42247378D01*
X10352778Y-42240133D01*
X10211214Y-42197190D01*
X10080748Y-42127454D01*
X9966394Y-42033606D01*
X9872546Y-41919252D01*
X9802810Y-41788786D01*
X9759867Y-41647222D01*
X9745367Y-41500000D01*
X9759867Y-41352778D01*
X9802810Y-41211214D01*
X9872546Y-41080748D01*
X9966394Y-40966394D01*
X10080748Y-40872546D01*
X10211214Y-40802810D01*
X10352778Y-40759867D01*
X10426335Y-40752622D01*
X10463112Y-40749000D01*
X11136888Y-40749000D01*
X11173665Y-40752622D01*
X11173665Y-40752622D01*
G37*
G36*
X38258252Y-31207818D02*
X38258254Y-31207819D01*
X38258255Y-31207819D01*
X38631513Y-31362427D01*
X38954481Y-31578228D01*
X38967439Y-31586886D01*
X39253114Y-31872561D01*
X39253116Y-31872564D01*
X39477573Y-32208487D01*
X39632181Y-32581745D01*
X39632182Y-32581748D01*
X39711000Y-32977993D01*
X39711000Y-33382007D01*
X39643417Y-33721772D01*
X39632181Y-33778255D01*
X39477573Y-34151513D01*
X39477572Y-34151514D01*
X39253114Y-34487439D01*
X38967439Y-34773114D01*
X38967436Y-34773116D01*
X38631513Y-34997573D01*
X38258255Y-35152181D01*
X38258254Y-35152181D01*
X38258252Y-35152182D01*
X37862007Y-35231000D01*
X37457993Y-35231000D01*
X37061748Y-35152182D01*
X37061746Y-35152181D01*
X37061745Y-35152181D01*
X36688487Y-34997573D01*
X36352564Y-34773116D01*
X36352561Y-34773114D01*
X36066886Y-34487439D01*
X35842428Y-34151514D01*
X35842427Y-34151513D01*
X35687819Y-33778255D01*
X35676584Y-33721772D01*
X35609000Y-33382007D01*
X35609000Y-32977993D01*
X35687818Y-32581748D01*
X35687819Y-32581745D01*
X35842427Y-32208487D01*
X36066884Y-31872564D01*
X36066886Y-31872561D01*
X36352561Y-31586886D01*
X36365519Y-31578228D01*
X36688487Y-31362427D01*
X37061745Y-31207819D01*
X37061746Y-31207819D01*
X37061748Y-31207818D01*
X37457993Y-31129000D01*
X37862007Y-31129000D01*
X38258252Y-31207818D01*
X38258252Y-31207818D01*
G37*
G36*
X114258252Y-31207818D02*
X114258254Y-31207819D01*
X114258255Y-31207819D01*
X114631513Y-31362427D01*
X114954481Y-31578228D01*
X114967439Y-31586886D01*
X115253114Y-31872561D01*
X115253116Y-31872564D01*
X115477573Y-32208487D01*
X115632181Y-32581745D01*
X115632182Y-32581748D01*
X115711000Y-32977993D01*
X115711000Y-33382007D01*
X115643417Y-33721772D01*
X115632181Y-33778255D01*
X115477573Y-34151513D01*
X115477572Y-34151514D01*
X115253114Y-34487439D01*
X114967439Y-34773114D01*
X114967436Y-34773116D01*
X114631513Y-34997573D01*
X114258255Y-35152181D01*
X114258254Y-35152181D01*
X114258252Y-35152182D01*
X113862007Y-35231000D01*
X113457993Y-35231000D01*
X113061748Y-35152182D01*
X113061746Y-35152181D01*
X113061745Y-35152181D01*
X112688487Y-34997573D01*
X112352564Y-34773116D01*
X112352561Y-34773114D01*
X112066886Y-34487439D01*
X111842428Y-34151514D01*
X111842427Y-34151513D01*
X111687819Y-33778255D01*
X111676584Y-33721772D01*
X111609000Y-33382007D01*
X111609000Y-32977993D01*
X111687818Y-32581748D01*
X111687819Y-32581745D01*
X111842427Y-32208487D01*
X112066884Y-31872564D01*
X112066886Y-31872561D01*
X112352561Y-31586886D01*
X112365519Y-31578228D01*
X112688487Y-31362427D01*
X113061745Y-31207819D01*
X113061746Y-31207819D01*
X113061748Y-31207818D01*
X113457993Y-31129000D01*
X113862007Y-31129000D01*
X114258252Y-31207818D01*
X114258252Y-31207818D01*
G37*
G36*
X133258252Y-31207818D02*
X133258254Y-31207819D01*
X133258255Y-31207819D01*
X133631513Y-31362427D01*
X133954481Y-31578228D01*
X133967439Y-31586886D01*
X134253114Y-31872561D01*
X134253116Y-31872564D01*
X134477573Y-32208487D01*
X134632181Y-32581745D01*
X134632182Y-32581748D01*
X134711000Y-32977993D01*
X134711000Y-33382007D01*
X134643417Y-33721772D01*
X134632181Y-33778255D01*
X134477573Y-34151513D01*
X134477572Y-34151514D01*
X134253114Y-34487439D01*
X133967439Y-34773114D01*
X133967436Y-34773116D01*
X133631513Y-34997573D01*
X133258255Y-35152181D01*
X133258254Y-35152181D01*
X133258252Y-35152182D01*
X132862007Y-35231000D01*
X132457993Y-35231000D01*
X132061748Y-35152182D01*
X132061746Y-35152181D01*
X132061745Y-35152181D01*
X131688487Y-34997573D01*
X131352564Y-34773116D01*
X131352561Y-34773114D01*
X131066886Y-34487439D01*
X130842428Y-34151514D01*
X130842427Y-34151513D01*
X130687819Y-33778255D01*
X130676584Y-33721772D01*
X130609000Y-33382007D01*
X130609000Y-32977993D01*
X130687818Y-32581748D01*
X130687819Y-32581745D01*
X130842427Y-32208487D01*
X131066884Y-31872564D01*
X131066886Y-31872561D01*
X131352561Y-31586886D01*
X131365519Y-31578228D01*
X131688487Y-31362427D01*
X132061745Y-31207819D01*
X132061746Y-31207819D01*
X132061748Y-31207818D01*
X132457993Y-31129000D01*
X132862007Y-31129000D01*
X133258252Y-31207818D01*
X133258252Y-31207818D01*
G37*
G36*
X76258252Y-31207818D02*
X76258254Y-31207819D01*
X76258255Y-31207819D01*
X76631513Y-31362427D01*
X76954481Y-31578228D01*
X76967439Y-31586886D01*
X77253114Y-31872561D01*
X77253116Y-31872564D01*
X77477573Y-32208487D01*
X77632181Y-32581745D01*
X77632182Y-32581748D01*
X77711000Y-32977993D01*
X77711000Y-33382007D01*
X77643417Y-33721772D01*
X77632181Y-33778255D01*
X77477573Y-34151513D01*
X77477572Y-34151514D01*
X77253114Y-34487439D01*
X76967439Y-34773114D01*
X76967436Y-34773116D01*
X76631513Y-34997573D01*
X76258255Y-35152181D01*
X76258254Y-35152181D01*
X76258252Y-35152182D01*
X75862007Y-35231000D01*
X75457993Y-35231000D01*
X75061748Y-35152182D01*
X75061746Y-35152181D01*
X75061745Y-35152181D01*
X74688487Y-34997573D01*
X74352564Y-34773116D01*
X74352561Y-34773114D01*
X74066886Y-34487439D01*
X73842428Y-34151514D01*
X73842427Y-34151513D01*
X73687819Y-33778255D01*
X73676584Y-33721772D01*
X73609000Y-33382007D01*
X73609000Y-32977993D01*
X73687818Y-32581748D01*
X73687819Y-32581745D01*
X73842427Y-32208487D01*
X74066884Y-31872564D01*
X74066886Y-31872561D01*
X74352561Y-31586886D01*
X74365519Y-31578228D01*
X74688487Y-31362427D01*
X75061745Y-31207819D01*
X75061746Y-31207819D01*
X75061748Y-31207818D01*
X75457993Y-31129000D01*
X75862007Y-31129000D01*
X76258252Y-31207818D01*
X76258252Y-31207818D01*
G37*
G36*
X57258252Y-31207818D02*
X57258254Y-31207819D01*
X57258255Y-31207819D01*
X57631513Y-31362427D01*
X57954481Y-31578228D01*
X57967439Y-31586886D01*
X58253114Y-31872561D01*
X58253116Y-31872564D01*
X58477573Y-32208487D01*
X58632181Y-32581745D01*
X58632182Y-32581748D01*
X58711000Y-32977993D01*
X58711000Y-33382007D01*
X58643417Y-33721772D01*
X58632181Y-33778255D01*
X58477573Y-34151513D01*
X58477572Y-34151514D01*
X58253114Y-34487439D01*
X57967439Y-34773114D01*
X57967436Y-34773116D01*
X57631513Y-34997573D01*
X57258255Y-35152181D01*
X57258254Y-35152181D01*
X57258252Y-35152182D01*
X56862007Y-35231000D01*
X56457993Y-35231000D01*
X56061748Y-35152182D01*
X56061746Y-35152181D01*
X56061745Y-35152181D01*
X55688487Y-34997573D01*
X55352564Y-34773116D01*
X55352561Y-34773114D01*
X55066886Y-34487439D01*
X54842428Y-34151514D01*
X54842427Y-34151513D01*
X54687819Y-33778255D01*
X54676584Y-33721772D01*
X54609000Y-33382007D01*
X54609000Y-32977993D01*
X54687818Y-32581748D01*
X54687819Y-32581745D01*
X54842427Y-32208487D01*
X55066884Y-31872564D01*
X55066886Y-31872561D01*
X55352561Y-31586886D01*
X55365519Y-31578228D01*
X55688487Y-31362427D01*
X56061745Y-31207819D01*
X56061746Y-31207819D01*
X56061748Y-31207818D01*
X56457993Y-31129000D01*
X56862007Y-31129000D01*
X57258252Y-31207818D01*
X57258252Y-31207818D01*
G37*
G36*
X95258252Y-31207818D02*
X95258254Y-31207819D01*
X95258255Y-31207819D01*
X95631513Y-31362427D01*
X95954481Y-31578228D01*
X95967439Y-31586886D01*
X96253114Y-31872561D01*
X96253116Y-31872564D01*
X96477573Y-32208487D01*
X96632181Y-32581745D01*
X96632182Y-32581748D01*
X96711000Y-32977993D01*
X96711000Y-33382007D01*
X96643417Y-33721772D01*
X96632181Y-33778255D01*
X96477573Y-34151513D01*
X96477572Y-34151514D01*
X96253114Y-34487439D01*
X95967439Y-34773114D01*
X95967436Y-34773116D01*
X95631513Y-34997573D01*
X95258255Y-35152181D01*
X95258254Y-35152181D01*
X95258252Y-35152182D01*
X94862007Y-35231000D01*
X94457993Y-35231000D01*
X94061748Y-35152182D01*
X94061746Y-35152181D01*
X94061745Y-35152181D01*
X93688487Y-34997573D01*
X93352564Y-34773116D01*
X93352561Y-34773114D01*
X93066886Y-34487439D01*
X92842428Y-34151514D01*
X92842427Y-34151513D01*
X92687819Y-33778255D01*
X92676584Y-33721772D01*
X92609000Y-33382007D01*
X92609000Y-32977993D01*
X92687818Y-32581748D01*
X92687819Y-32581745D01*
X92842427Y-32208487D01*
X93066884Y-31872564D01*
X93066886Y-31872561D01*
X93352561Y-31586886D01*
X93365519Y-31578228D01*
X93688487Y-31362427D01*
X94061745Y-31207819D01*
X94061746Y-31207819D01*
X94061748Y-31207818D01*
X94457993Y-31129000D01*
X94862007Y-31129000D01*
X95258252Y-31207818D01*
X95258252Y-31207818D01*
G37*
G36*
X163968228Y-33151703D02*
X164123100Y-33215853D01*
X164262481Y-33308985D01*
X164381015Y-33427519D01*
X164474147Y-33566900D01*
X164538297Y-33721772D01*
X164571000Y-33886184D01*
X164571000Y-34053816D01*
X164538297Y-34218228D01*
X164474147Y-34373100D01*
X164381015Y-34512481D01*
X164262481Y-34631015D01*
X164123100Y-34724147D01*
X163968228Y-34788297D01*
X163803816Y-34821000D01*
X163636184Y-34821000D01*
X163471772Y-34788297D01*
X163316900Y-34724147D01*
X163177519Y-34631015D01*
X163058985Y-34512481D01*
X162965853Y-34373100D01*
X162901703Y-34218228D01*
X162869000Y-34053816D01*
X162869000Y-33886184D01*
X162901703Y-33721772D01*
X162965853Y-33566900D01*
X163058985Y-33427519D01*
X163177519Y-33308985D01*
X163316900Y-33215853D01*
X163471772Y-33151703D01*
X163636184Y-33119000D01*
X163803816Y-33119000D01*
X163968228Y-33151703D01*
X163968228Y-33151703D01*
G37*
G36*
X148728228Y-33151703D02*
X148883100Y-33215853D01*
X149022481Y-33308985D01*
X149141015Y-33427519D01*
X149234147Y-33566900D01*
X149298297Y-33721772D01*
X149331000Y-33886184D01*
X149331000Y-34053816D01*
X149298297Y-34218228D01*
X149234147Y-34373100D01*
X149141015Y-34512481D01*
X149022481Y-34631015D01*
X148883100Y-34724147D01*
X148728228Y-34788297D01*
X148563816Y-34821000D01*
X148396184Y-34821000D01*
X148231772Y-34788297D01*
X148076900Y-34724147D01*
X147937519Y-34631015D01*
X147818985Y-34512481D01*
X147725853Y-34373100D01*
X147661703Y-34218228D01*
X147629000Y-34053816D01*
X147629000Y-33886184D01*
X147661703Y-33721772D01*
X147725853Y-33566900D01*
X147818985Y-33427519D01*
X147937519Y-33308985D01*
X148076900Y-33215853D01*
X148231772Y-33151703D01*
X148396184Y-33119000D01*
X148563816Y-33119000D01*
X148728228Y-33151703D01*
X148728228Y-33151703D01*
G37*
G36*
X6828228Y-33051703D02*
X6983100Y-33115853D01*
X7122481Y-33208985D01*
X7241015Y-33327519D01*
X7334147Y-33466900D01*
X7398297Y-33621772D01*
X7431000Y-33786184D01*
X7431000Y-33953816D01*
X7398297Y-34118228D01*
X7334147Y-34273100D01*
X7241015Y-34412481D01*
X7122481Y-34531015D01*
X6983100Y-34624147D01*
X6828228Y-34688297D01*
X6663816Y-34721000D01*
X6496184Y-34721000D01*
X6331772Y-34688297D01*
X6176900Y-34624147D01*
X6037519Y-34531015D01*
X5918985Y-34412481D01*
X5825853Y-34273100D01*
X5761703Y-34118228D01*
X5729000Y-33953816D01*
X5729000Y-33786184D01*
X5761703Y-33621772D01*
X5825853Y-33466900D01*
X5918985Y-33327519D01*
X6037519Y-33208985D01*
X6176900Y-33115853D01*
X6331772Y-33051703D01*
X6496184Y-33019000D01*
X6663816Y-33019000D01*
X6828228Y-33051703D01*
X6828228Y-33051703D01*
G37*
G36*
X22068228Y-33051703D02*
X22223100Y-33115853D01*
X22362481Y-33208985D01*
X22481015Y-33327519D01*
X22574147Y-33466900D01*
X22638297Y-33621772D01*
X22671000Y-33786184D01*
X22671000Y-33953816D01*
X22638297Y-34118228D01*
X22574147Y-34273100D01*
X22481015Y-34412481D01*
X22362481Y-34531015D01*
X22223100Y-34624147D01*
X22068228Y-34688297D01*
X21903816Y-34721000D01*
X21736184Y-34721000D01*
X21571772Y-34688297D01*
X21416900Y-34624147D01*
X21277519Y-34531015D01*
X21158985Y-34412481D01*
X21065853Y-34273100D01*
X21001703Y-34118228D01*
X20969000Y-33953816D01*
X20969000Y-33786184D01*
X21001703Y-33621772D01*
X21065853Y-33466900D01*
X21158985Y-33327519D01*
X21277519Y-33208985D01*
X21416900Y-33115853D01*
X21571772Y-33051703D01*
X21736184Y-33019000D01*
X21903816Y-33019000D01*
X22068228Y-33051703D01*
X22068228Y-33051703D01*
G37*
G36*
X148728228Y-30611703D02*
X148883100Y-30675853D01*
X149022481Y-30768985D01*
X149141015Y-30887519D01*
X149234147Y-31026900D01*
X149298297Y-31181772D01*
X149331000Y-31346184D01*
X149331000Y-31513816D01*
X149298297Y-31678228D01*
X149234147Y-31833100D01*
X149141015Y-31972481D01*
X149022481Y-32091015D01*
X148883100Y-32184147D01*
X148728228Y-32248297D01*
X148563816Y-32281000D01*
X148396184Y-32281000D01*
X148231772Y-32248297D01*
X148076900Y-32184147D01*
X147937519Y-32091015D01*
X147818985Y-31972481D01*
X147725853Y-31833100D01*
X147661703Y-31678228D01*
X147629000Y-31513816D01*
X147629000Y-31346184D01*
X147661703Y-31181772D01*
X147725853Y-31026900D01*
X147818985Y-30887519D01*
X147937519Y-30768985D01*
X148076900Y-30675853D01*
X148231772Y-30611703D01*
X148396184Y-30579000D01*
X148563816Y-30579000D01*
X148728228Y-30611703D01*
X148728228Y-30611703D01*
G37*
G36*
X163968228Y-30611703D02*
X164123100Y-30675853D01*
X164262481Y-30768985D01*
X164381015Y-30887519D01*
X164474147Y-31026900D01*
X164538297Y-31181772D01*
X164571000Y-31346184D01*
X164571000Y-31513816D01*
X164538297Y-31678228D01*
X164474147Y-31833100D01*
X164381015Y-31972481D01*
X164262481Y-32091015D01*
X164123100Y-32184147D01*
X163968228Y-32248297D01*
X163803816Y-32281000D01*
X163636184Y-32281000D01*
X163471772Y-32248297D01*
X163316900Y-32184147D01*
X163177519Y-32091015D01*
X163058985Y-31972481D01*
X162965853Y-31833100D01*
X162901703Y-31678228D01*
X162869000Y-31513816D01*
X162869000Y-31346184D01*
X162901703Y-31181772D01*
X162965853Y-31026900D01*
X163058985Y-30887519D01*
X163177519Y-30768985D01*
X163316900Y-30675853D01*
X163471772Y-30611703D01*
X163636184Y-30579000D01*
X163803816Y-30579000D01*
X163968228Y-30611703D01*
X163968228Y-30611703D01*
G37*
G36*
X6828228Y-30511703D02*
X6983100Y-30575853D01*
X7122481Y-30668985D01*
X7241015Y-30787519D01*
X7334147Y-30926900D01*
X7398297Y-31081772D01*
X7431000Y-31246184D01*
X7431000Y-31413816D01*
X7398297Y-31578228D01*
X7334147Y-31733100D01*
X7241015Y-31872481D01*
X7122481Y-31991015D01*
X6983100Y-32084147D01*
X6828228Y-32148297D01*
X6663816Y-32181000D01*
X6496184Y-32181000D01*
X6331772Y-32148297D01*
X6176900Y-32084147D01*
X6037519Y-31991015D01*
X5918985Y-31872481D01*
X5825853Y-31733100D01*
X5761703Y-31578228D01*
X5729000Y-31413816D01*
X5729000Y-31246184D01*
X5761703Y-31081772D01*
X5825853Y-30926900D01*
X5918985Y-30787519D01*
X6037519Y-30668985D01*
X6176900Y-30575853D01*
X6331772Y-30511703D01*
X6496184Y-30479000D01*
X6663816Y-30479000D01*
X6828228Y-30511703D01*
X6828228Y-30511703D01*
G37*
G36*
X22068228Y-30511703D02*
X22223100Y-30575853D01*
X22362481Y-30668985D01*
X22481015Y-30787519D01*
X22574147Y-30926900D01*
X22638297Y-31081772D01*
X22671000Y-31246184D01*
X22671000Y-31413816D01*
X22638297Y-31578228D01*
X22574147Y-31733100D01*
X22481015Y-31872481D01*
X22362481Y-31991015D01*
X22223100Y-32084147D01*
X22068228Y-32148297D01*
X21903816Y-32181000D01*
X21736184Y-32181000D01*
X21571772Y-32148297D01*
X21416900Y-32084147D01*
X21277519Y-31991015D01*
X21158985Y-31872481D01*
X21065853Y-31733100D01*
X21001703Y-31578228D01*
X20969000Y-31413816D01*
X20969000Y-31246184D01*
X21001703Y-31081772D01*
X21065853Y-30926900D01*
X21158985Y-30787519D01*
X21277519Y-30668985D01*
X21416900Y-30575853D01*
X21571772Y-30511703D01*
X21736184Y-30479000D01*
X21903816Y-30479000D01*
X22068228Y-30511703D01*
X22068228Y-30511703D01*
G37*
G36*
X53185734Y-29533232D02*
X53395202Y-29619996D01*
X53583723Y-29745962D01*
X53744038Y-29906277D01*
X53870004Y-30094798D01*
X53956768Y-30304266D01*
X54001000Y-30526635D01*
X54001000Y-30753365D01*
X53956768Y-30975734D01*
X53870004Y-31185202D01*
X53744038Y-31373723D01*
X53583723Y-31534038D01*
X53395202Y-31660004D01*
X53185734Y-31746768D01*
X52963365Y-31791000D01*
X52736635Y-31791000D01*
X52514266Y-31746768D01*
X52304798Y-31660004D01*
X52116277Y-31534038D01*
X51955962Y-31373723D01*
X51829996Y-31185202D01*
X51743232Y-30975734D01*
X51699000Y-30753365D01*
X51699000Y-30526635D01*
X51743232Y-30304266D01*
X51829996Y-30094798D01*
X51955962Y-29906277D01*
X52116277Y-29745962D01*
X52304798Y-29619996D01*
X52514266Y-29533232D01*
X52736635Y-29489000D01*
X52963365Y-29489000D01*
X53185734Y-29533232D01*
X53185734Y-29533232D01*
G37*
G36*
X129185734Y-29533232D02*
X129395202Y-29619996D01*
X129583723Y-29745962D01*
X129744038Y-29906277D01*
X129870004Y-30094798D01*
X129956768Y-30304266D01*
X130001000Y-30526635D01*
X130001000Y-30753365D01*
X129956768Y-30975734D01*
X129870004Y-31185202D01*
X129744038Y-31373723D01*
X129583723Y-31534038D01*
X129395202Y-31660004D01*
X129185734Y-31746768D01*
X128963365Y-31791000D01*
X128736635Y-31791000D01*
X128514266Y-31746768D01*
X128304798Y-31660004D01*
X128116277Y-31534038D01*
X127955962Y-31373723D01*
X127829996Y-31185202D01*
X127743232Y-30975734D01*
X127699000Y-30753365D01*
X127699000Y-30526635D01*
X127743232Y-30304266D01*
X127829996Y-30094798D01*
X127955962Y-29906277D01*
X128116277Y-29745962D01*
X128304798Y-29619996D01*
X128514266Y-29533232D01*
X128736635Y-29489000D01*
X128963365Y-29489000D01*
X129185734Y-29533232D01*
X129185734Y-29533232D01*
G37*
G36*
X91185734Y-29533232D02*
X91395202Y-29619996D01*
X91583723Y-29745962D01*
X91744038Y-29906277D01*
X91870004Y-30094798D01*
X91956768Y-30304266D01*
X92001000Y-30526635D01*
X92001000Y-30753365D01*
X91956768Y-30975734D01*
X91870004Y-31185202D01*
X91744038Y-31373723D01*
X91583723Y-31534038D01*
X91395202Y-31660004D01*
X91185734Y-31746768D01*
X90963365Y-31791000D01*
X90736635Y-31791000D01*
X90514266Y-31746768D01*
X90304798Y-31660004D01*
X90116277Y-31534038D01*
X89955962Y-31373723D01*
X89829996Y-31185202D01*
X89743232Y-30975734D01*
X89699000Y-30753365D01*
X89699000Y-30526635D01*
X89743232Y-30304266D01*
X89829996Y-30094798D01*
X89955962Y-29906277D01*
X90116277Y-29745962D01*
X90304798Y-29619996D01*
X90514266Y-29533232D01*
X90736635Y-29489000D01*
X90963365Y-29489000D01*
X91185734Y-29533232D01*
X91185734Y-29533232D01*
G37*
G36*
X110185734Y-29533232D02*
X110395202Y-29619996D01*
X110583723Y-29745962D01*
X110744038Y-29906277D01*
X110870004Y-30094798D01*
X110956768Y-30304266D01*
X111001000Y-30526635D01*
X111001000Y-30753365D01*
X110956768Y-30975734D01*
X110870004Y-31185202D01*
X110744038Y-31373723D01*
X110583723Y-31534038D01*
X110395202Y-31660004D01*
X110185734Y-31746768D01*
X109963365Y-31791000D01*
X109736635Y-31791000D01*
X109514266Y-31746768D01*
X109304798Y-31660004D01*
X109116277Y-31534038D01*
X108955962Y-31373723D01*
X108829996Y-31185202D01*
X108743232Y-30975734D01*
X108699000Y-30753365D01*
X108699000Y-30526635D01*
X108743232Y-30304266D01*
X108829996Y-30094798D01*
X108955962Y-29906277D01*
X109116277Y-29745962D01*
X109304798Y-29619996D01*
X109514266Y-29533232D01*
X109736635Y-29489000D01*
X109963365Y-29489000D01*
X110185734Y-29533232D01*
X110185734Y-29533232D01*
G37*
G36*
X72185734Y-29533232D02*
X72395202Y-29619996D01*
X72583723Y-29745962D01*
X72744038Y-29906277D01*
X72870004Y-30094798D01*
X72956768Y-30304266D01*
X73001000Y-30526635D01*
X73001000Y-30753365D01*
X72956768Y-30975734D01*
X72870004Y-31185202D01*
X72744038Y-31373723D01*
X72583723Y-31534038D01*
X72395202Y-31660004D01*
X72185734Y-31746768D01*
X71963365Y-31791000D01*
X71736635Y-31791000D01*
X71514266Y-31746768D01*
X71304798Y-31660004D01*
X71116277Y-31534038D01*
X70955962Y-31373723D01*
X70829996Y-31185202D01*
X70743232Y-30975734D01*
X70699000Y-30753365D01*
X70699000Y-30526635D01*
X70743232Y-30304266D01*
X70829996Y-30094798D01*
X70955962Y-29906277D01*
X71116277Y-29745962D01*
X71304798Y-29619996D01*
X71514266Y-29533232D01*
X71736635Y-29489000D01*
X71963365Y-29489000D01*
X72185734Y-29533232D01*
X72185734Y-29533232D01*
G37*
G36*
X34185734Y-29533232D02*
X34395202Y-29619996D01*
X34583723Y-29745962D01*
X34744038Y-29906277D01*
X34870004Y-30094798D01*
X34956768Y-30304266D01*
X35001000Y-30526635D01*
X35001000Y-30753365D01*
X34956768Y-30975734D01*
X34870004Y-31185202D01*
X34744038Y-31373723D01*
X34583723Y-31534038D01*
X34395202Y-31660004D01*
X34185734Y-31746768D01*
X33963365Y-31791000D01*
X33736635Y-31791000D01*
X33514266Y-31746768D01*
X33304798Y-31660004D01*
X33116277Y-31534038D01*
X32955962Y-31373723D01*
X32829996Y-31185202D01*
X32743232Y-30975734D01*
X32699000Y-30753365D01*
X32699000Y-30526635D01*
X32743232Y-30304266D01*
X32829996Y-30094798D01*
X32955962Y-29906277D01*
X33116277Y-29745962D01*
X33304798Y-29619996D01*
X33514266Y-29533232D01*
X33736635Y-29489000D01*
X33963365Y-29489000D01*
X34185734Y-29533232D01*
X34185734Y-29533232D01*
G37*
G36*
X163968228Y-28071703D02*
X164123100Y-28135853D01*
X164262481Y-28228985D01*
X164381015Y-28347519D01*
X164474147Y-28486900D01*
X164538297Y-28641772D01*
X164571000Y-28806184D01*
X164571000Y-28973816D01*
X164538297Y-29138228D01*
X164474147Y-29293100D01*
X164381015Y-29432481D01*
X164262481Y-29551015D01*
X164123100Y-29644147D01*
X163968228Y-29708297D01*
X163803816Y-29741000D01*
X163636184Y-29741000D01*
X163471772Y-29708297D01*
X163316900Y-29644147D01*
X163177519Y-29551015D01*
X163058985Y-29432481D01*
X162965853Y-29293100D01*
X162901703Y-29138228D01*
X162869000Y-28973816D01*
X162869000Y-28806184D01*
X162901703Y-28641772D01*
X162965853Y-28486900D01*
X163058985Y-28347519D01*
X163177519Y-28228985D01*
X163316900Y-28135853D01*
X163471772Y-28071703D01*
X163636184Y-28039000D01*
X163803816Y-28039000D01*
X163968228Y-28071703D01*
X163968228Y-28071703D01*
G37*
G36*
X148728228Y-28071703D02*
X148883100Y-28135853D01*
X149022481Y-28228985D01*
X149141015Y-28347519D01*
X149234147Y-28486900D01*
X149298297Y-28641772D01*
X149331000Y-28806184D01*
X149331000Y-28973816D01*
X149298297Y-29138228D01*
X149234147Y-29293100D01*
X149141015Y-29432481D01*
X149022481Y-29551015D01*
X148883100Y-29644147D01*
X148728228Y-29708297D01*
X148563816Y-29741000D01*
X148396184Y-29741000D01*
X148231772Y-29708297D01*
X148076900Y-29644147D01*
X147937519Y-29551015D01*
X147818985Y-29432481D01*
X147725853Y-29293100D01*
X147661703Y-29138228D01*
X147629000Y-28973816D01*
X147629000Y-28806184D01*
X147661703Y-28641772D01*
X147725853Y-28486900D01*
X147818985Y-28347519D01*
X147937519Y-28228985D01*
X148076900Y-28135853D01*
X148231772Y-28071703D01*
X148396184Y-28039000D01*
X148563816Y-28039000D01*
X148728228Y-28071703D01*
X148728228Y-28071703D01*
G37*
G36*
X22068228Y-27971703D02*
X22223100Y-28035853D01*
X22362481Y-28128985D01*
X22481015Y-28247519D01*
X22574147Y-28386900D01*
X22638297Y-28541772D01*
X22671000Y-28706184D01*
X22671000Y-28873816D01*
X22638297Y-29038228D01*
X22574147Y-29193100D01*
X22481015Y-29332481D01*
X22362481Y-29451015D01*
X22223100Y-29544147D01*
X22068228Y-29608297D01*
X21903816Y-29641000D01*
X21736184Y-29641000D01*
X21571772Y-29608297D01*
X21416900Y-29544147D01*
X21277519Y-29451015D01*
X21158985Y-29332481D01*
X21065853Y-29193100D01*
X21001703Y-29038228D01*
X20969000Y-28873816D01*
X20969000Y-28706184D01*
X21001703Y-28541772D01*
X21065853Y-28386900D01*
X21158985Y-28247519D01*
X21277519Y-28128985D01*
X21416900Y-28035853D01*
X21571772Y-27971703D01*
X21736184Y-27939000D01*
X21903816Y-27939000D01*
X22068228Y-27971703D01*
X22068228Y-27971703D01*
G37*
G36*
X6828228Y-27971703D02*
X6983100Y-28035853D01*
X7122481Y-28128985D01*
X7241015Y-28247519D01*
X7334147Y-28386900D01*
X7398297Y-28541772D01*
X7431000Y-28706184D01*
X7431000Y-28873816D01*
X7398297Y-29038228D01*
X7334147Y-29193100D01*
X7241015Y-29332481D01*
X7122481Y-29451015D01*
X6983100Y-29544147D01*
X6828228Y-29608297D01*
X6663816Y-29641000D01*
X6496184Y-29641000D01*
X6331772Y-29608297D01*
X6176900Y-29544147D01*
X6037519Y-29451015D01*
X5918985Y-29332481D01*
X5825853Y-29193100D01*
X5761703Y-29038228D01*
X5729000Y-28873816D01*
X5729000Y-28706184D01*
X5761703Y-28541772D01*
X5825853Y-28386900D01*
X5918985Y-28247519D01*
X6037519Y-28128985D01*
X6176900Y-28035853D01*
X6331772Y-27971703D01*
X6496184Y-27939000D01*
X6663816Y-27939000D01*
X6828228Y-27971703D01*
X6828228Y-27971703D01*
G37*
G36*
X40535734Y-26993232D02*
X40745202Y-27079996D01*
X40933723Y-27205962D01*
X41094038Y-27366277D01*
X41220004Y-27554798D01*
X41306768Y-27764266D01*
X41351000Y-27986635D01*
X41351000Y-28213365D01*
X41306768Y-28435734D01*
X41220004Y-28645202D01*
X41094038Y-28833723D01*
X40933723Y-28994038D01*
X40745202Y-29120004D01*
X40535734Y-29206768D01*
X40313365Y-29251000D01*
X40086635Y-29251000D01*
X39864266Y-29206768D01*
X39654798Y-29120004D01*
X39466277Y-28994038D01*
X39305962Y-28833723D01*
X39179996Y-28645202D01*
X39093232Y-28435734D01*
X39049000Y-28213365D01*
X39049000Y-27986635D01*
X39093232Y-27764266D01*
X39179996Y-27554798D01*
X39305962Y-27366277D01*
X39466277Y-27205962D01*
X39654798Y-27079996D01*
X39864266Y-26993232D01*
X40086635Y-26949000D01*
X40313365Y-26949000D01*
X40535734Y-26993232D01*
X40535734Y-26993232D01*
G37*
G36*
X135535734Y-26993232D02*
X135745202Y-27079996D01*
X135933723Y-27205962D01*
X136094038Y-27366277D01*
X136220004Y-27554798D01*
X136306768Y-27764266D01*
X136351000Y-27986635D01*
X136351000Y-28213365D01*
X136306768Y-28435734D01*
X136220004Y-28645202D01*
X136094038Y-28833723D01*
X135933723Y-28994038D01*
X135745202Y-29120004D01*
X135535734Y-29206768D01*
X135313365Y-29251000D01*
X135086635Y-29251000D01*
X134864266Y-29206768D01*
X134654798Y-29120004D01*
X134466277Y-28994038D01*
X134305962Y-28833723D01*
X134179996Y-28645202D01*
X134093232Y-28435734D01*
X134049000Y-28213365D01*
X134049000Y-27986635D01*
X134093232Y-27764266D01*
X134179996Y-27554798D01*
X134305962Y-27366277D01*
X134466277Y-27205962D01*
X134654798Y-27079996D01*
X134864266Y-26993232D01*
X135086635Y-26949000D01*
X135313365Y-26949000D01*
X135535734Y-26993232D01*
X135535734Y-26993232D01*
G37*
G36*
X59535734Y-26993232D02*
X59745202Y-27079996D01*
X59933723Y-27205962D01*
X60094038Y-27366277D01*
X60220004Y-27554798D01*
X60306768Y-27764266D01*
X60351000Y-27986635D01*
X60351000Y-28213365D01*
X60306768Y-28435734D01*
X60220004Y-28645202D01*
X60094038Y-28833723D01*
X59933723Y-28994038D01*
X59745202Y-29120004D01*
X59535734Y-29206768D01*
X59313365Y-29251000D01*
X59086635Y-29251000D01*
X58864266Y-29206768D01*
X58654798Y-29120004D01*
X58466277Y-28994038D01*
X58305962Y-28833723D01*
X58179996Y-28645202D01*
X58093232Y-28435734D01*
X58049000Y-28213365D01*
X58049000Y-27986635D01*
X58093232Y-27764266D01*
X58179996Y-27554798D01*
X58305962Y-27366277D01*
X58466277Y-27205962D01*
X58654798Y-27079996D01*
X58864266Y-26993232D01*
X59086635Y-26949000D01*
X59313365Y-26949000D01*
X59535734Y-26993232D01*
X59535734Y-26993232D01*
G37*
G36*
X78535734Y-26993232D02*
X78745202Y-27079996D01*
X78933723Y-27205962D01*
X79094038Y-27366277D01*
X79220004Y-27554798D01*
X79306768Y-27764266D01*
X79351000Y-27986635D01*
X79351000Y-28213365D01*
X79306768Y-28435734D01*
X79220004Y-28645202D01*
X79094038Y-28833723D01*
X78933723Y-28994038D01*
X78745202Y-29120004D01*
X78535734Y-29206768D01*
X78313365Y-29251000D01*
X78086635Y-29251000D01*
X77864266Y-29206768D01*
X77654798Y-29120004D01*
X77466277Y-28994038D01*
X77305962Y-28833723D01*
X77179996Y-28645202D01*
X77093232Y-28435734D01*
X77049000Y-28213365D01*
X77049000Y-27986635D01*
X77093232Y-27764266D01*
X77179996Y-27554798D01*
X77305962Y-27366277D01*
X77466277Y-27205962D01*
X77654798Y-27079996D01*
X77864266Y-26993232D01*
X78086635Y-26949000D01*
X78313365Y-26949000D01*
X78535734Y-26993232D01*
X78535734Y-26993232D01*
G37*
G36*
X97535734Y-26993232D02*
X97745202Y-27079996D01*
X97933723Y-27205962D01*
X98094038Y-27366277D01*
X98220004Y-27554798D01*
X98306768Y-27764266D01*
X98351000Y-27986635D01*
X98351000Y-28213365D01*
X98306768Y-28435734D01*
X98220004Y-28645202D01*
X98094038Y-28833723D01*
X97933723Y-28994038D01*
X97745202Y-29120004D01*
X97535734Y-29206768D01*
X97313365Y-29251000D01*
X97086635Y-29251000D01*
X96864266Y-29206768D01*
X96654798Y-29120004D01*
X96466277Y-28994038D01*
X96305962Y-28833723D01*
X96179996Y-28645202D01*
X96093232Y-28435734D01*
X96049000Y-28213365D01*
X96049000Y-27986635D01*
X96093232Y-27764266D01*
X96179996Y-27554798D01*
X96305962Y-27366277D01*
X96466277Y-27205962D01*
X96654798Y-27079996D01*
X96864266Y-26993232D01*
X97086635Y-26949000D01*
X97313365Y-26949000D01*
X97535734Y-26993232D01*
X97535734Y-26993232D01*
G37*
G36*
X116535734Y-26993232D02*
X116745202Y-27079996D01*
X116933723Y-27205962D01*
X117094038Y-27366277D01*
X117220004Y-27554798D01*
X117306768Y-27764266D01*
X117351000Y-27986635D01*
X117351000Y-28213365D01*
X117306768Y-28435734D01*
X117220004Y-28645202D01*
X117094038Y-28833723D01*
X116933723Y-28994038D01*
X116745202Y-29120004D01*
X116535734Y-29206768D01*
X116313365Y-29251000D01*
X116086635Y-29251000D01*
X115864266Y-29206768D01*
X115654798Y-29120004D01*
X115466277Y-28994038D01*
X115305962Y-28833723D01*
X115179996Y-28645202D01*
X115093232Y-28435734D01*
X115049000Y-28213365D01*
X115049000Y-27986635D01*
X115093232Y-27764266D01*
X115179996Y-27554798D01*
X115305962Y-27366277D01*
X115466277Y-27205962D01*
X115654798Y-27079996D01*
X115864266Y-26993232D01*
X116086635Y-26949000D01*
X116313365Y-26949000D01*
X116535734Y-26993232D01*
X116535734Y-26993232D01*
G37*
G36*
X163968228Y-25531703D02*
X164123100Y-25595853D01*
X164262481Y-25688985D01*
X164381015Y-25807519D01*
X164474147Y-25946900D01*
X164538297Y-26101772D01*
X164571000Y-26266184D01*
X164571000Y-26433816D01*
X164538297Y-26598228D01*
X164474147Y-26753100D01*
X164381015Y-26892481D01*
X164262481Y-27011015D01*
X164123100Y-27104147D01*
X163968228Y-27168297D01*
X163803816Y-27201000D01*
X163636184Y-27201000D01*
X163471772Y-27168297D01*
X163316900Y-27104147D01*
X163177519Y-27011015D01*
X163058985Y-26892481D01*
X162965853Y-26753100D01*
X162901703Y-26598228D01*
X162869000Y-26433816D01*
X162869000Y-26266184D01*
X162901703Y-26101772D01*
X162965853Y-25946900D01*
X163058985Y-25807519D01*
X163177519Y-25688985D01*
X163316900Y-25595853D01*
X163471772Y-25531703D01*
X163636184Y-25499000D01*
X163803816Y-25499000D01*
X163968228Y-25531703D01*
X163968228Y-25531703D01*
G37*
G36*
X148728228Y-25531703D02*
X148883100Y-25595853D01*
X149022481Y-25688985D01*
X149141015Y-25807519D01*
X149234147Y-25946900D01*
X149298297Y-26101772D01*
X149331000Y-26266184D01*
X149331000Y-26433816D01*
X149298297Y-26598228D01*
X149234147Y-26753100D01*
X149141015Y-26892481D01*
X149022481Y-27011015D01*
X148883100Y-27104147D01*
X148728228Y-27168297D01*
X148563816Y-27201000D01*
X148396184Y-27201000D01*
X148231772Y-27168297D01*
X148076900Y-27104147D01*
X147937519Y-27011015D01*
X147818985Y-26892481D01*
X147725853Y-26753100D01*
X147661703Y-26598228D01*
X147629000Y-26433816D01*
X147629000Y-26266184D01*
X147661703Y-26101772D01*
X147725853Y-25946900D01*
X147818985Y-25807519D01*
X147937519Y-25688985D01*
X148076900Y-25595853D01*
X148231772Y-25531703D01*
X148396184Y-25499000D01*
X148563816Y-25499000D01*
X148728228Y-25531703D01*
X148728228Y-25531703D01*
G37*
G36*
X6828228Y-25431703D02*
X6983100Y-25495853D01*
X7122481Y-25588985D01*
X7241015Y-25707519D01*
X7334147Y-25846900D01*
X7398297Y-26001772D01*
X7431000Y-26166184D01*
X7431000Y-26333816D01*
X7398297Y-26498228D01*
X7334147Y-26653100D01*
X7241015Y-26792481D01*
X7122481Y-26911015D01*
X6983100Y-27004147D01*
X6828228Y-27068297D01*
X6663816Y-27101000D01*
X6496184Y-27101000D01*
X6331772Y-27068297D01*
X6176900Y-27004147D01*
X6037519Y-26911015D01*
X5918985Y-26792481D01*
X5825853Y-26653100D01*
X5761703Y-26498228D01*
X5729000Y-26333816D01*
X5729000Y-26166184D01*
X5761703Y-26001772D01*
X5825853Y-25846900D01*
X5918985Y-25707519D01*
X6037519Y-25588985D01*
X6176900Y-25495853D01*
X6331772Y-25431703D01*
X6496184Y-25399000D01*
X6663816Y-25399000D01*
X6828228Y-25431703D01*
X6828228Y-25431703D01*
G37*
G36*
X22068228Y-25431703D02*
X22223100Y-25495853D01*
X22362481Y-25588985D01*
X22481015Y-25707519D01*
X22574147Y-25846900D01*
X22638297Y-26001772D01*
X22671000Y-26166184D01*
X22671000Y-26333816D01*
X22638297Y-26498228D01*
X22574147Y-26653100D01*
X22481015Y-26792481D01*
X22362481Y-26911015D01*
X22223100Y-27004147D01*
X22068228Y-27068297D01*
X21903816Y-27101000D01*
X21736184Y-27101000D01*
X21571772Y-27068297D01*
X21416900Y-27004147D01*
X21277519Y-26911015D01*
X21158985Y-26792481D01*
X21065853Y-26653100D01*
X21001703Y-26498228D01*
X20969000Y-26333816D01*
X20969000Y-26166184D01*
X21001703Y-26001772D01*
X21065853Y-25846900D01*
X21158985Y-25707519D01*
X21277519Y-25588985D01*
X21416900Y-25495853D01*
X21571772Y-25431703D01*
X21736184Y-25399000D01*
X21903816Y-25399000D01*
X22068228Y-25431703D01*
X22068228Y-25431703D01*
G37*
G36*
X148728228Y-22991703D02*
X148883100Y-23055853D01*
X149022481Y-23148985D01*
X149141015Y-23267519D01*
X149234147Y-23406900D01*
X149298297Y-23561772D01*
X149331000Y-23726184D01*
X149331000Y-23893816D01*
X149298297Y-24058228D01*
X149234147Y-24213100D01*
X149141015Y-24352481D01*
X149022481Y-24471015D01*
X148883100Y-24564147D01*
X148728228Y-24628297D01*
X148563816Y-24661000D01*
X148396184Y-24661000D01*
X148231772Y-24628297D01*
X148076900Y-24564147D01*
X147937519Y-24471015D01*
X147818985Y-24352481D01*
X147725853Y-24213100D01*
X147661703Y-24058228D01*
X147629000Y-23893816D01*
X147629000Y-23726184D01*
X147661703Y-23561772D01*
X147725853Y-23406900D01*
X147818985Y-23267519D01*
X147937519Y-23148985D01*
X148076900Y-23055853D01*
X148231772Y-22991703D01*
X148396184Y-22959000D01*
X148563816Y-22959000D01*
X148728228Y-22991703D01*
X148728228Y-22991703D01*
G37*
G36*
X163968228Y-22991703D02*
X164123100Y-23055853D01*
X164262481Y-23148985D01*
X164381015Y-23267519D01*
X164474147Y-23406900D01*
X164538297Y-23561772D01*
X164571000Y-23726184D01*
X164571000Y-23893816D01*
X164538297Y-24058228D01*
X164474147Y-24213100D01*
X164381015Y-24352481D01*
X164262481Y-24471015D01*
X164123100Y-24564147D01*
X163968228Y-24628297D01*
X163803816Y-24661000D01*
X163636184Y-24661000D01*
X163471772Y-24628297D01*
X163316900Y-24564147D01*
X163177519Y-24471015D01*
X163058985Y-24352481D01*
X162965853Y-24213100D01*
X162901703Y-24058228D01*
X162869000Y-23893816D01*
X162869000Y-23726184D01*
X162901703Y-23561772D01*
X162965853Y-23406900D01*
X163058985Y-23267519D01*
X163177519Y-23148985D01*
X163316900Y-23055853D01*
X163471772Y-22991703D01*
X163636184Y-22959000D01*
X163803816Y-22959000D01*
X163968228Y-22991703D01*
X163968228Y-22991703D01*
G37*
G36*
X6828228Y-22891703D02*
X6983100Y-22955853D01*
X7122481Y-23048985D01*
X7241015Y-23167519D01*
X7334147Y-23306900D01*
X7398297Y-23461772D01*
X7431000Y-23626184D01*
X7431000Y-23793816D01*
X7398297Y-23958228D01*
X7334147Y-24113100D01*
X7241015Y-24252481D01*
X7122481Y-24371015D01*
X6983100Y-24464147D01*
X6828228Y-24528297D01*
X6663816Y-24561000D01*
X6496184Y-24561000D01*
X6331772Y-24528297D01*
X6176900Y-24464147D01*
X6037519Y-24371015D01*
X5918985Y-24252481D01*
X5825853Y-24113100D01*
X5761703Y-23958228D01*
X5729000Y-23793816D01*
X5729000Y-23626184D01*
X5761703Y-23461772D01*
X5825853Y-23306900D01*
X5918985Y-23167519D01*
X6037519Y-23048985D01*
X6176900Y-22955853D01*
X6331772Y-22891703D01*
X6496184Y-22859000D01*
X6663816Y-22859000D01*
X6828228Y-22891703D01*
X6828228Y-22891703D01*
G37*
G36*
X22068228Y-22891703D02*
X22223100Y-22955853D01*
X22362481Y-23048985D01*
X22481015Y-23167519D01*
X22574147Y-23306900D01*
X22638297Y-23461772D01*
X22671000Y-23626184D01*
X22671000Y-23793816D01*
X22638297Y-23958228D01*
X22574147Y-24113100D01*
X22481015Y-24252481D01*
X22362481Y-24371015D01*
X22223100Y-24464147D01*
X22068228Y-24528297D01*
X21903816Y-24561000D01*
X21736184Y-24561000D01*
X21571772Y-24528297D01*
X21416900Y-24464147D01*
X21277519Y-24371015D01*
X21158985Y-24252481D01*
X21065853Y-24113100D01*
X21001703Y-23958228D01*
X20969000Y-23793816D01*
X20969000Y-23626184D01*
X21001703Y-23461772D01*
X21065853Y-23306900D01*
X21158985Y-23167519D01*
X21277519Y-23048985D01*
X21416900Y-22955853D01*
X21571772Y-22891703D01*
X21736184Y-22859000D01*
X21903816Y-22859000D01*
X22068228Y-22891703D01*
X22068228Y-22891703D01*
G37*
G36*
X117686821Y-21661313D02*
X117686824Y-21661314D01*
X117686825Y-21661314D01*
X117847239Y-21709975D01*
X117847241Y-21709976D01*
X117847244Y-21709977D01*
X117995078Y-21788995D01*
X118124659Y-21895341D01*
X118231005Y-22024922D01*
X118310023Y-22172756D01*
X118358687Y-22333179D01*
X118375117Y-22500000D01*
X118358687Y-22666821D01*
X118310023Y-22827244D01*
X118231005Y-22975078D01*
X118124659Y-23104659D01*
X117995078Y-23211005D01*
X117847244Y-23290023D01*
X117847241Y-23290024D01*
X117847239Y-23290025D01*
X117686825Y-23338686D01*
X117686824Y-23338686D01*
X117686821Y-23338687D01*
X117561804Y-23351000D01*
X117478196Y-23351000D01*
X117353179Y-23338687D01*
X117353176Y-23338686D01*
X117353175Y-23338686D01*
X117192761Y-23290025D01*
X117192759Y-23290024D01*
X117192756Y-23290023D01*
X117044922Y-23211005D01*
X116915341Y-23104659D01*
X116808995Y-22975078D01*
X116729977Y-22827244D01*
X116681313Y-22666821D01*
X116664883Y-22500000D01*
X116681313Y-22333179D01*
X116729977Y-22172756D01*
X116808995Y-22024922D01*
X116915341Y-21895341D01*
X117044922Y-21788995D01*
X117192756Y-21709977D01*
X117192759Y-21709976D01*
X117192761Y-21709975D01*
X117353175Y-21661314D01*
X117353176Y-21661314D01*
X117353179Y-21661313D01*
X117478196Y-21649000D01*
X117561804Y-21649000D01*
X117686821Y-21661313D01*
X117686821Y-21661313D01*
G37*
G36*
X110751000Y-23351000D02*
X109049000Y-23351000D01*
X109049000Y-21649000D01*
X110751000Y-21649000D01*
X110751000Y-23351000D01*
X110751000Y-23351000D01*
G37*
G36*
X79686821Y-21661313D02*
X79686824Y-21661314D01*
X79686825Y-21661314D01*
X79847239Y-21709975D01*
X79847241Y-21709976D01*
X79847244Y-21709977D01*
X79995078Y-21788995D01*
X80124659Y-21895341D01*
X80231005Y-22024922D01*
X80310023Y-22172756D01*
X80358687Y-22333179D01*
X80375117Y-22500000D01*
X80358687Y-22666821D01*
X80310023Y-22827244D01*
X80231005Y-22975078D01*
X80124659Y-23104659D01*
X79995078Y-23211005D01*
X79847244Y-23290023D01*
X79847241Y-23290024D01*
X79847239Y-23290025D01*
X79686825Y-23338686D01*
X79686824Y-23338686D01*
X79686821Y-23338687D01*
X79561804Y-23351000D01*
X79478196Y-23351000D01*
X79353179Y-23338687D01*
X79353176Y-23338686D01*
X79353175Y-23338686D01*
X79192761Y-23290025D01*
X79192759Y-23290024D01*
X79192756Y-23290023D01*
X79044922Y-23211005D01*
X78915341Y-23104659D01*
X78808995Y-22975078D01*
X78729977Y-22827244D01*
X78681313Y-22666821D01*
X78664883Y-22500000D01*
X78681313Y-22333179D01*
X78729977Y-22172756D01*
X78808995Y-22024922D01*
X78915341Y-21895341D01*
X79044922Y-21788995D01*
X79192756Y-21709977D01*
X79192759Y-21709976D01*
X79192761Y-21709975D01*
X79353175Y-21661314D01*
X79353176Y-21661314D01*
X79353179Y-21661313D01*
X79478196Y-21649000D01*
X79561804Y-21649000D01*
X79686821Y-21661313D01*
X79686821Y-21661313D01*
G37*
G36*
X72751000Y-23351000D02*
X71049000Y-23351000D01*
X71049000Y-21649000D01*
X72751000Y-21649000D01*
X72751000Y-23351000D01*
X72751000Y-23351000D01*
G37*
G36*
X60686821Y-21661313D02*
X60686824Y-21661314D01*
X60686825Y-21661314D01*
X60847239Y-21709975D01*
X60847241Y-21709976D01*
X60847244Y-21709977D01*
X60995078Y-21788995D01*
X61124659Y-21895341D01*
X61231005Y-22024922D01*
X61310023Y-22172756D01*
X61358687Y-22333179D01*
X61375117Y-22500000D01*
X61358687Y-22666821D01*
X61310023Y-22827244D01*
X61231005Y-22975078D01*
X61124659Y-23104659D01*
X60995078Y-23211005D01*
X60847244Y-23290023D01*
X60847241Y-23290024D01*
X60847239Y-23290025D01*
X60686825Y-23338686D01*
X60686824Y-23338686D01*
X60686821Y-23338687D01*
X60561804Y-23351000D01*
X60478196Y-23351000D01*
X60353179Y-23338687D01*
X60353176Y-23338686D01*
X60353175Y-23338686D01*
X60192761Y-23290025D01*
X60192759Y-23290024D01*
X60192756Y-23290023D01*
X60044922Y-23211005D01*
X59915341Y-23104659D01*
X59808995Y-22975078D01*
X59729977Y-22827244D01*
X59681313Y-22666821D01*
X59664883Y-22500000D01*
X59681313Y-22333179D01*
X59729977Y-22172756D01*
X59808995Y-22024922D01*
X59915341Y-21895341D01*
X60044922Y-21788995D01*
X60192756Y-21709977D01*
X60192759Y-21709976D01*
X60192761Y-21709975D01*
X60353175Y-21661314D01*
X60353176Y-21661314D01*
X60353179Y-21661313D01*
X60478196Y-21649000D01*
X60561804Y-21649000D01*
X60686821Y-21661313D01*
X60686821Y-21661313D01*
G37*
G36*
X136686821Y-21661313D02*
X136686824Y-21661314D01*
X136686825Y-21661314D01*
X136847239Y-21709975D01*
X136847241Y-21709976D01*
X136847244Y-21709977D01*
X136995078Y-21788995D01*
X137124659Y-21895341D01*
X137231005Y-22024922D01*
X137310023Y-22172756D01*
X137358687Y-22333179D01*
X137375117Y-22500000D01*
X137358687Y-22666821D01*
X137310023Y-22827244D01*
X137231005Y-22975078D01*
X137124659Y-23104659D01*
X136995078Y-23211005D01*
X136847244Y-23290023D01*
X136847241Y-23290024D01*
X136847239Y-23290025D01*
X136686825Y-23338686D01*
X136686824Y-23338686D01*
X136686821Y-23338687D01*
X136561804Y-23351000D01*
X136478196Y-23351000D01*
X136353179Y-23338687D01*
X136353176Y-23338686D01*
X136353175Y-23338686D01*
X136192761Y-23290025D01*
X136192759Y-23290024D01*
X136192756Y-23290023D01*
X136044922Y-23211005D01*
X135915341Y-23104659D01*
X135808995Y-22975078D01*
X135729977Y-22827244D01*
X135681313Y-22666821D01*
X135664883Y-22500000D01*
X135681313Y-22333179D01*
X135729977Y-22172756D01*
X135808995Y-22024922D01*
X135915341Y-21895341D01*
X136044922Y-21788995D01*
X136192756Y-21709977D01*
X136192759Y-21709976D01*
X136192761Y-21709975D01*
X136353175Y-21661314D01*
X136353176Y-21661314D01*
X136353179Y-21661313D01*
X136478196Y-21649000D01*
X136561804Y-21649000D01*
X136686821Y-21661313D01*
X136686821Y-21661313D01*
G37*
G36*
X41686821Y-21661313D02*
X41686824Y-21661314D01*
X41686825Y-21661314D01*
X41847239Y-21709975D01*
X41847241Y-21709976D01*
X41847244Y-21709977D01*
X41995078Y-21788995D01*
X42124659Y-21895341D01*
X42231005Y-22024922D01*
X42310023Y-22172756D01*
X42358687Y-22333179D01*
X42375117Y-22500000D01*
X42358687Y-22666821D01*
X42310023Y-22827244D01*
X42231005Y-22975078D01*
X42124659Y-23104659D01*
X41995078Y-23211005D01*
X41847244Y-23290023D01*
X41847241Y-23290024D01*
X41847239Y-23290025D01*
X41686825Y-23338686D01*
X41686824Y-23338686D01*
X41686821Y-23338687D01*
X41561804Y-23351000D01*
X41478196Y-23351000D01*
X41353179Y-23338687D01*
X41353176Y-23338686D01*
X41353175Y-23338686D01*
X41192761Y-23290025D01*
X41192759Y-23290024D01*
X41192756Y-23290023D01*
X41044922Y-23211005D01*
X40915341Y-23104659D01*
X40808995Y-22975078D01*
X40729977Y-22827244D01*
X40681313Y-22666821D01*
X40664883Y-22500000D01*
X40681313Y-22333179D01*
X40729977Y-22172756D01*
X40808995Y-22024922D01*
X40915341Y-21895341D01*
X41044922Y-21788995D01*
X41192756Y-21709977D01*
X41192759Y-21709976D01*
X41192761Y-21709975D01*
X41353175Y-21661314D01*
X41353176Y-21661314D01*
X41353179Y-21661313D01*
X41478196Y-21649000D01*
X41561804Y-21649000D01*
X41686821Y-21661313D01*
X41686821Y-21661313D01*
G37*
G36*
X129751000Y-23351000D02*
X128049000Y-23351000D01*
X128049000Y-21649000D01*
X129751000Y-21649000D01*
X129751000Y-23351000D01*
X129751000Y-23351000D01*
G37*
G36*
X34751000Y-23351000D02*
X33049000Y-23351000D01*
X33049000Y-21649000D01*
X34751000Y-21649000D01*
X34751000Y-23351000D01*
X34751000Y-23351000D01*
G37*
G36*
X91751000Y-23351000D02*
X90049000Y-23351000D01*
X90049000Y-21649000D01*
X91751000Y-21649000D01*
X91751000Y-23351000D01*
X91751000Y-23351000D01*
G37*
G36*
X53751000Y-23351000D02*
X52049000Y-23351000D01*
X52049000Y-21649000D01*
X53751000Y-21649000D01*
X53751000Y-23351000D01*
X53751000Y-23351000D01*
G37*
G36*
X98686821Y-21661313D02*
X98686824Y-21661314D01*
X98686825Y-21661314D01*
X98847239Y-21709975D01*
X98847241Y-21709976D01*
X98847244Y-21709977D01*
X98995078Y-21788995D01*
X99124659Y-21895341D01*
X99231005Y-22024922D01*
X99310023Y-22172756D01*
X99358687Y-22333179D01*
X99375117Y-22500000D01*
X99358687Y-22666821D01*
X99310023Y-22827244D01*
X99231005Y-22975078D01*
X99124659Y-23104659D01*
X98995078Y-23211005D01*
X98847244Y-23290023D01*
X98847241Y-23290024D01*
X98847239Y-23290025D01*
X98686825Y-23338686D01*
X98686824Y-23338686D01*
X98686821Y-23338687D01*
X98561804Y-23351000D01*
X98478196Y-23351000D01*
X98353179Y-23338687D01*
X98353176Y-23338686D01*
X98353175Y-23338686D01*
X98192761Y-23290025D01*
X98192759Y-23290024D01*
X98192756Y-23290023D01*
X98044922Y-23211005D01*
X97915341Y-23104659D01*
X97808995Y-22975078D01*
X97729977Y-22827244D01*
X97681313Y-22666821D01*
X97664883Y-22500000D01*
X97681313Y-22333179D01*
X97729977Y-22172756D01*
X97808995Y-22024922D01*
X97915341Y-21895341D01*
X98044922Y-21788995D01*
X98192756Y-21709977D01*
X98192759Y-21709976D01*
X98192761Y-21709975D01*
X98353175Y-21661314D01*
X98353176Y-21661314D01*
X98353179Y-21661313D01*
X98478196Y-21649000D01*
X98561804Y-21649000D01*
X98686821Y-21661313D01*
X98686821Y-21661313D01*
G37*
G36*
X148728228Y-20451703D02*
X148883100Y-20515853D01*
X149022481Y-20608985D01*
X149141015Y-20727519D01*
X149234147Y-20866900D01*
X149298297Y-21021772D01*
X149331000Y-21186184D01*
X149331000Y-21353816D01*
X149298297Y-21518228D01*
X149234147Y-21673100D01*
X149141015Y-21812481D01*
X149022481Y-21931015D01*
X148883100Y-22024147D01*
X148728228Y-22088297D01*
X148563816Y-22121000D01*
X148396184Y-22121000D01*
X148231772Y-22088297D01*
X148076900Y-22024147D01*
X147937519Y-21931015D01*
X147818985Y-21812481D01*
X147725853Y-21673100D01*
X147661703Y-21518228D01*
X147629000Y-21353816D01*
X147629000Y-21186184D01*
X147661703Y-21021772D01*
X147725853Y-20866900D01*
X147818985Y-20727519D01*
X147937519Y-20608985D01*
X148076900Y-20515853D01*
X148231772Y-20451703D01*
X148396184Y-20419000D01*
X148563816Y-20419000D01*
X148728228Y-20451703D01*
X148728228Y-20451703D01*
G37*
G36*
X163968228Y-20451703D02*
X164123100Y-20515853D01*
X164262481Y-20608985D01*
X164381015Y-20727519D01*
X164474147Y-20866900D01*
X164538297Y-21021772D01*
X164571000Y-21186184D01*
X164571000Y-21353816D01*
X164538297Y-21518228D01*
X164474147Y-21673100D01*
X164381015Y-21812481D01*
X164262481Y-21931015D01*
X164123100Y-22024147D01*
X163968228Y-22088297D01*
X163803816Y-22121000D01*
X163636184Y-22121000D01*
X163471772Y-22088297D01*
X163316900Y-22024147D01*
X163177519Y-21931015D01*
X163058985Y-21812481D01*
X162965853Y-21673100D01*
X162901703Y-21518228D01*
X162869000Y-21353816D01*
X162869000Y-21186184D01*
X162901703Y-21021772D01*
X162965853Y-20866900D01*
X163058985Y-20727519D01*
X163177519Y-20608985D01*
X163316900Y-20515853D01*
X163471772Y-20451703D01*
X163636184Y-20419000D01*
X163803816Y-20419000D01*
X163968228Y-20451703D01*
X163968228Y-20451703D01*
G37*
G36*
X6828228Y-20351703D02*
X6983100Y-20415853D01*
X7122481Y-20508985D01*
X7241015Y-20627519D01*
X7334147Y-20766900D01*
X7398297Y-20921772D01*
X7431000Y-21086184D01*
X7431000Y-21253816D01*
X7398297Y-21418228D01*
X7334147Y-21573100D01*
X7241015Y-21712481D01*
X7122481Y-21831015D01*
X6983100Y-21924147D01*
X6828228Y-21988297D01*
X6663816Y-22021000D01*
X6496184Y-22021000D01*
X6331772Y-21988297D01*
X6176900Y-21924147D01*
X6037519Y-21831015D01*
X5918985Y-21712481D01*
X5825853Y-21573100D01*
X5761703Y-21418228D01*
X5729000Y-21253816D01*
X5729000Y-21086184D01*
X5761703Y-20921772D01*
X5825853Y-20766900D01*
X5918985Y-20627519D01*
X6037519Y-20508985D01*
X6176900Y-20415853D01*
X6331772Y-20351703D01*
X6496184Y-20319000D01*
X6663816Y-20319000D01*
X6828228Y-20351703D01*
X6828228Y-20351703D01*
G37*
G36*
X22068228Y-20351703D02*
X22223100Y-20415853D01*
X22362481Y-20508985D01*
X22481015Y-20627519D01*
X22574147Y-20766900D01*
X22638297Y-20921772D01*
X22671000Y-21086184D01*
X22671000Y-21253816D01*
X22638297Y-21418228D01*
X22574147Y-21573100D01*
X22481015Y-21712481D01*
X22362481Y-21831015D01*
X22223100Y-21924147D01*
X22068228Y-21988297D01*
X21903816Y-22021000D01*
X21736184Y-22021000D01*
X21571772Y-21988297D01*
X21416900Y-21924147D01*
X21277519Y-21831015D01*
X21158985Y-21712481D01*
X21065853Y-21573100D01*
X21001703Y-21418228D01*
X20969000Y-21253816D01*
X20969000Y-21086184D01*
X21001703Y-20921772D01*
X21065853Y-20766900D01*
X21158985Y-20627519D01*
X21277519Y-20508985D01*
X21416900Y-20415853D01*
X21571772Y-20351703D01*
X21736184Y-20319000D01*
X21903816Y-20319000D01*
X22068228Y-20351703D01*
X22068228Y-20351703D01*
G37*
G36*
X148728228Y-17911703D02*
X148883100Y-17975853D01*
X149022481Y-18068985D01*
X149141015Y-18187519D01*
X149234147Y-18326900D01*
X149298297Y-18481772D01*
X149331000Y-18646184D01*
X149331000Y-18813816D01*
X149298297Y-18978228D01*
X149234147Y-19133100D01*
X149141015Y-19272481D01*
X149022481Y-19391015D01*
X148883100Y-19484147D01*
X148728228Y-19548297D01*
X148563816Y-19581000D01*
X148396184Y-19581000D01*
X148231772Y-19548297D01*
X148076900Y-19484147D01*
X147937519Y-19391015D01*
X147818985Y-19272481D01*
X147725853Y-19133100D01*
X147661703Y-18978228D01*
X147629000Y-18813816D01*
X147629000Y-18646184D01*
X147661703Y-18481772D01*
X147725853Y-18326900D01*
X147818985Y-18187519D01*
X147937519Y-18068985D01*
X148076900Y-17975853D01*
X148231772Y-17911703D01*
X148396184Y-17879000D01*
X148563816Y-17879000D01*
X148728228Y-17911703D01*
X148728228Y-17911703D01*
G37*
G36*
X163968228Y-17911703D02*
X164123100Y-17975853D01*
X164262481Y-18068985D01*
X164381015Y-18187519D01*
X164474147Y-18326900D01*
X164538297Y-18481772D01*
X164571000Y-18646184D01*
X164571000Y-18813816D01*
X164538297Y-18978228D01*
X164474147Y-19133100D01*
X164381015Y-19272481D01*
X164262481Y-19391015D01*
X164123100Y-19484147D01*
X163968228Y-19548297D01*
X163803816Y-19581000D01*
X163636184Y-19581000D01*
X163471772Y-19548297D01*
X163316900Y-19484147D01*
X163177519Y-19391015D01*
X163058985Y-19272481D01*
X162965853Y-19133100D01*
X162901703Y-18978228D01*
X162869000Y-18813816D01*
X162869000Y-18646184D01*
X162901703Y-18481772D01*
X162965853Y-18326900D01*
X163058985Y-18187519D01*
X163177519Y-18068985D01*
X163316900Y-17975853D01*
X163471772Y-17911703D01*
X163636184Y-17879000D01*
X163803816Y-17879000D01*
X163968228Y-17911703D01*
X163968228Y-17911703D01*
G37*
G36*
X6828228Y-17811703D02*
X6983100Y-17875853D01*
X7122481Y-17968985D01*
X7241015Y-18087519D01*
X7334147Y-18226900D01*
X7398297Y-18381772D01*
X7431000Y-18546184D01*
X7431000Y-18713816D01*
X7398297Y-18878228D01*
X7334147Y-19033100D01*
X7241015Y-19172481D01*
X7122481Y-19291015D01*
X6983100Y-19384147D01*
X6828228Y-19448297D01*
X6663816Y-19481000D01*
X6496184Y-19481000D01*
X6331772Y-19448297D01*
X6176900Y-19384147D01*
X6037519Y-19291015D01*
X5918985Y-19172481D01*
X5825853Y-19033100D01*
X5761703Y-18878228D01*
X5729000Y-18713816D01*
X5729000Y-18546184D01*
X5761703Y-18381772D01*
X5825853Y-18226900D01*
X5918985Y-18087519D01*
X6037519Y-17968985D01*
X6176900Y-17875853D01*
X6331772Y-17811703D01*
X6496184Y-17779000D01*
X6663816Y-17779000D01*
X6828228Y-17811703D01*
X6828228Y-17811703D01*
G37*
G36*
X22068228Y-17811703D02*
X22223100Y-17875853D01*
X22362481Y-17968985D01*
X22481015Y-18087519D01*
X22574147Y-18226900D01*
X22638297Y-18381772D01*
X22671000Y-18546184D01*
X22671000Y-18713816D01*
X22638297Y-18878228D01*
X22574147Y-19033100D01*
X22481015Y-19172481D01*
X22362481Y-19291015D01*
X22223100Y-19384147D01*
X22068228Y-19448297D01*
X21903816Y-19481000D01*
X21736184Y-19481000D01*
X21571772Y-19448297D01*
X21416900Y-19384147D01*
X21277519Y-19291015D01*
X21158985Y-19172481D01*
X21065853Y-19033100D01*
X21001703Y-18878228D01*
X20969000Y-18713816D01*
X20969000Y-18546184D01*
X21001703Y-18381772D01*
X21065853Y-18226900D01*
X21158985Y-18087519D01*
X21277519Y-17968985D01*
X21416900Y-17875853D01*
X21571772Y-17811703D01*
X21736184Y-17779000D01*
X21903816Y-17779000D01*
X22068228Y-17811703D01*
X22068228Y-17811703D01*
G37*
G36*
X163968228Y-15371703D02*
X164123100Y-15435853D01*
X164262481Y-15528985D01*
X164381015Y-15647519D01*
X164474147Y-15786900D01*
X164538297Y-15941772D01*
X164571000Y-16106184D01*
X164571000Y-16273816D01*
X164538297Y-16438228D01*
X164474147Y-16593100D01*
X164381015Y-16732481D01*
X164262481Y-16851015D01*
X164123100Y-16944147D01*
X163968228Y-17008297D01*
X163803816Y-17041000D01*
X163636184Y-17041000D01*
X163471772Y-17008297D01*
X163316900Y-16944147D01*
X163177519Y-16851015D01*
X163058985Y-16732481D01*
X162965853Y-16593100D01*
X162901703Y-16438228D01*
X162869000Y-16273816D01*
X162869000Y-16106184D01*
X162901703Y-15941772D01*
X162965853Y-15786900D01*
X163058985Y-15647519D01*
X163177519Y-15528985D01*
X163316900Y-15435853D01*
X163471772Y-15371703D01*
X163636184Y-15339000D01*
X163803816Y-15339000D01*
X163968228Y-15371703D01*
X163968228Y-15371703D01*
G37*
G36*
X148728228Y-15371703D02*
X148883100Y-15435853D01*
X149022481Y-15528985D01*
X149141015Y-15647519D01*
X149234147Y-15786900D01*
X149298297Y-15941772D01*
X149331000Y-16106184D01*
X149331000Y-16273816D01*
X149298297Y-16438228D01*
X149234147Y-16593100D01*
X149141015Y-16732481D01*
X149022481Y-16851015D01*
X148883100Y-16944147D01*
X148728228Y-17008297D01*
X148563816Y-17041000D01*
X148396184Y-17041000D01*
X148231772Y-17008297D01*
X148076900Y-16944147D01*
X147937519Y-16851015D01*
X147818985Y-16732481D01*
X147725853Y-16593100D01*
X147661703Y-16438228D01*
X147629000Y-16273816D01*
X147629000Y-16106184D01*
X147661703Y-15941772D01*
X147725853Y-15786900D01*
X147818985Y-15647519D01*
X147937519Y-15528985D01*
X148076900Y-15435853D01*
X148231772Y-15371703D01*
X148396184Y-15339000D01*
X148563816Y-15339000D01*
X148728228Y-15371703D01*
X148728228Y-15371703D01*
G37*
G36*
X6828228Y-15271703D02*
X6983100Y-15335853D01*
X7122481Y-15428985D01*
X7241015Y-15547519D01*
X7334147Y-15686900D01*
X7398297Y-15841772D01*
X7431000Y-16006184D01*
X7431000Y-16173816D01*
X7398297Y-16338228D01*
X7334147Y-16493100D01*
X7241015Y-16632481D01*
X7122481Y-16751015D01*
X6983100Y-16844147D01*
X6828228Y-16908297D01*
X6663816Y-16941000D01*
X6496184Y-16941000D01*
X6331772Y-16908297D01*
X6176900Y-16844147D01*
X6037519Y-16751015D01*
X5918985Y-16632481D01*
X5825853Y-16493100D01*
X5761703Y-16338228D01*
X5729000Y-16173816D01*
X5729000Y-16006184D01*
X5761703Y-15841772D01*
X5825853Y-15686900D01*
X5918985Y-15547519D01*
X6037519Y-15428985D01*
X6176900Y-15335853D01*
X6331772Y-15271703D01*
X6496184Y-15239000D01*
X6663816Y-15239000D01*
X6828228Y-15271703D01*
X6828228Y-15271703D01*
G37*
G36*
X22068228Y-15271703D02*
X22223100Y-15335853D01*
X22362481Y-15428985D01*
X22481015Y-15547519D01*
X22574147Y-15686900D01*
X22638297Y-15841772D01*
X22671000Y-16006184D01*
X22671000Y-16173816D01*
X22638297Y-16338228D01*
X22574147Y-16493100D01*
X22481015Y-16632481D01*
X22362481Y-16751015D01*
X22223100Y-16844147D01*
X22068228Y-16908297D01*
X21903816Y-16941000D01*
X21736184Y-16941000D01*
X21571772Y-16908297D01*
X21416900Y-16844147D01*
X21277519Y-16751015D01*
X21158985Y-16632481D01*
X21065853Y-16493100D01*
X21001703Y-16338228D01*
X20969000Y-16173816D01*
X20969000Y-16006184D01*
X21001703Y-15841772D01*
X21065853Y-15686900D01*
X21158985Y-15547519D01*
X21277519Y-15428985D01*
X21416900Y-15335853D01*
X21571772Y-15271703D01*
X21736184Y-15239000D01*
X21903816Y-15239000D01*
X22068228Y-15271703D01*
X22068228Y-15271703D01*
G37*
G36*
X95258252Y-12207818D02*
X95258254Y-12207819D01*
X95258255Y-12207819D01*
X95631513Y-12362427D01*
X95962905Y-12583857D01*
X95967439Y-12586886D01*
X96253114Y-12872561D01*
X96253116Y-12872564D01*
X96477573Y-13208487D01*
X96557634Y-13401772D01*
X96632182Y-13581748D01*
X96695134Y-13898228D01*
X96711000Y-13977994D01*
X96711000Y-14382006D01*
X96632181Y-14778255D01*
X96477573Y-15151513D01*
X96477572Y-15151514D01*
X96253114Y-15487439D01*
X95967439Y-15773114D01*
X95967436Y-15773116D01*
X95631513Y-15997573D01*
X95258255Y-16152181D01*
X95258254Y-16152181D01*
X95258252Y-16152182D01*
X94862007Y-16231000D01*
X94457993Y-16231000D01*
X94061748Y-16152182D01*
X94061746Y-16152181D01*
X94061745Y-16152181D01*
X93688487Y-15997573D01*
X93352564Y-15773116D01*
X93352561Y-15773114D01*
X93066886Y-15487439D01*
X92842428Y-15151514D01*
X92842427Y-15151513D01*
X92687819Y-14778255D01*
X92609000Y-14382006D01*
X92609000Y-13977994D01*
X92624866Y-13898228D01*
X92687818Y-13581748D01*
X92762366Y-13401772D01*
X92842427Y-13208487D01*
X93066884Y-12872564D01*
X93066886Y-12872561D01*
X93352561Y-12586886D01*
X93357095Y-12583857D01*
X93688487Y-12362427D01*
X94061745Y-12207819D01*
X94061746Y-12207819D01*
X94061748Y-12207818D01*
X94457993Y-12129000D01*
X94862007Y-12129000D01*
X95258252Y-12207818D01*
X95258252Y-12207818D01*
G37*
G36*
X114258252Y-12207818D02*
X114258254Y-12207819D01*
X114258255Y-12207819D01*
X114631513Y-12362427D01*
X114962905Y-12583857D01*
X114967439Y-12586886D01*
X115253114Y-12872561D01*
X115253116Y-12872564D01*
X115477573Y-13208487D01*
X115557634Y-13401772D01*
X115632182Y-13581748D01*
X115695134Y-13898228D01*
X115711000Y-13977994D01*
X115711000Y-14382006D01*
X115632181Y-14778255D01*
X115477573Y-15151513D01*
X115477572Y-15151514D01*
X115253114Y-15487439D01*
X114967439Y-15773114D01*
X114967436Y-15773116D01*
X114631513Y-15997573D01*
X114258255Y-16152181D01*
X114258254Y-16152181D01*
X114258252Y-16152182D01*
X113862007Y-16231000D01*
X113457993Y-16231000D01*
X113061748Y-16152182D01*
X113061746Y-16152181D01*
X113061745Y-16152181D01*
X112688487Y-15997573D01*
X112352564Y-15773116D01*
X112352561Y-15773114D01*
X112066886Y-15487439D01*
X111842428Y-15151514D01*
X111842427Y-15151513D01*
X111687819Y-14778255D01*
X111609000Y-14382006D01*
X111609000Y-13977994D01*
X111624866Y-13898228D01*
X111687818Y-13581748D01*
X111762366Y-13401772D01*
X111842427Y-13208487D01*
X112066884Y-12872564D01*
X112066886Y-12872561D01*
X112352561Y-12586886D01*
X112357095Y-12583857D01*
X112688487Y-12362427D01*
X113061745Y-12207819D01*
X113061746Y-12207819D01*
X113061748Y-12207818D01*
X113457993Y-12129000D01*
X113862007Y-12129000D01*
X114258252Y-12207818D01*
X114258252Y-12207818D01*
G37*
G36*
X38258252Y-12207818D02*
X38258254Y-12207819D01*
X38258255Y-12207819D01*
X38631513Y-12362427D01*
X38962905Y-12583857D01*
X38967439Y-12586886D01*
X39253114Y-12872561D01*
X39253116Y-12872564D01*
X39477573Y-13208487D01*
X39557634Y-13401772D01*
X39632182Y-13581748D01*
X39695134Y-13898228D01*
X39711000Y-13977994D01*
X39711000Y-14382006D01*
X39632181Y-14778255D01*
X39477573Y-15151513D01*
X39477572Y-15151514D01*
X39253114Y-15487439D01*
X38967439Y-15773114D01*
X38967436Y-15773116D01*
X38631513Y-15997573D01*
X38258255Y-16152181D01*
X38258254Y-16152181D01*
X38258252Y-16152182D01*
X37862007Y-16231000D01*
X37457993Y-16231000D01*
X37061748Y-16152182D01*
X37061746Y-16152181D01*
X37061745Y-16152181D01*
X36688487Y-15997573D01*
X36352564Y-15773116D01*
X36352561Y-15773114D01*
X36066886Y-15487439D01*
X35842428Y-15151514D01*
X35842427Y-15151513D01*
X35687819Y-14778255D01*
X35609000Y-14382006D01*
X35609000Y-13977994D01*
X35624866Y-13898228D01*
X35687818Y-13581748D01*
X35762366Y-13401772D01*
X35842427Y-13208487D01*
X36066884Y-12872564D01*
X36066886Y-12872561D01*
X36352561Y-12586886D01*
X36357095Y-12583857D01*
X36688487Y-12362427D01*
X37061745Y-12207819D01*
X37061746Y-12207819D01*
X37061748Y-12207818D01*
X37457993Y-12129000D01*
X37862007Y-12129000D01*
X38258252Y-12207818D01*
X38258252Y-12207818D01*
G37*
G36*
X57258252Y-12207818D02*
X57258254Y-12207819D01*
X57258255Y-12207819D01*
X57631513Y-12362427D01*
X57962905Y-12583857D01*
X57967439Y-12586886D01*
X58253114Y-12872561D01*
X58253116Y-12872564D01*
X58477573Y-13208487D01*
X58557634Y-13401772D01*
X58632182Y-13581748D01*
X58695134Y-13898228D01*
X58711000Y-13977994D01*
X58711000Y-14382006D01*
X58632181Y-14778255D01*
X58477573Y-15151513D01*
X58477572Y-15151514D01*
X58253114Y-15487439D01*
X57967439Y-15773114D01*
X57967436Y-15773116D01*
X57631513Y-15997573D01*
X57258255Y-16152181D01*
X57258254Y-16152181D01*
X57258252Y-16152182D01*
X56862007Y-16231000D01*
X56457993Y-16231000D01*
X56061748Y-16152182D01*
X56061746Y-16152181D01*
X56061745Y-16152181D01*
X55688487Y-15997573D01*
X55352564Y-15773116D01*
X55352561Y-15773114D01*
X55066886Y-15487439D01*
X54842428Y-15151514D01*
X54842427Y-15151513D01*
X54687819Y-14778255D01*
X54609000Y-14382006D01*
X54609000Y-13977994D01*
X54624866Y-13898228D01*
X54687818Y-13581748D01*
X54762366Y-13401772D01*
X54842427Y-13208487D01*
X55066884Y-12872564D01*
X55066886Y-12872561D01*
X55352561Y-12586886D01*
X55357095Y-12583857D01*
X55688487Y-12362427D01*
X56061745Y-12207819D01*
X56061746Y-12207819D01*
X56061748Y-12207818D01*
X56457993Y-12129000D01*
X56862007Y-12129000D01*
X57258252Y-12207818D01*
X57258252Y-12207818D01*
G37*
G36*
X76258252Y-12207818D02*
X76258254Y-12207819D01*
X76258255Y-12207819D01*
X76631513Y-12362427D01*
X76962905Y-12583857D01*
X76967439Y-12586886D01*
X77253114Y-12872561D01*
X77253116Y-12872564D01*
X77477573Y-13208487D01*
X77557634Y-13401772D01*
X77632182Y-13581748D01*
X77695134Y-13898228D01*
X77711000Y-13977994D01*
X77711000Y-14382006D01*
X77632181Y-14778255D01*
X77477573Y-15151513D01*
X77477572Y-15151514D01*
X77253114Y-15487439D01*
X76967439Y-15773114D01*
X76967436Y-15773116D01*
X76631513Y-15997573D01*
X76258255Y-16152181D01*
X76258254Y-16152181D01*
X76258252Y-16152182D01*
X75862007Y-16231000D01*
X75457993Y-16231000D01*
X75061748Y-16152182D01*
X75061746Y-16152181D01*
X75061745Y-16152181D01*
X74688487Y-15997573D01*
X74352564Y-15773116D01*
X74352561Y-15773114D01*
X74066886Y-15487439D01*
X73842428Y-15151514D01*
X73842427Y-15151513D01*
X73687819Y-14778255D01*
X73609000Y-14382006D01*
X73609000Y-13977994D01*
X73624866Y-13898228D01*
X73687818Y-13581748D01*
X73762366Y-13401772D01*
X73842427Y-13208487D01*
X74066884Y-12872564D01*
X74066886Y-12872561D01*
X74352561Y-12586886D01*
X74357095Y-12583857D01*
X74688487Y-12362427D01*
X75061745Y-12207819D01*
X75061746Y-12207819D01*
X75061748Y-12207818D01*
X75457993Y-12129000D01*
X75862007Y-12129000D01*
X76258252Y-12207818D01*
X76258252Y-12207818D01*
G37*
G36*
X133258252Y-12207818D02*
X133258254Y-12207819D01*
X133258255Y-12207819D01*
X133631513Y-12362427D01*
X133962905Y-12583857D01*
X133967439Y-12586886D01*
X134253114Y-12872561D01*
X134253116Y-12872564D01*
X134477573Y-13208487D01*
X134557634Y-13401772D01*
X134632182Y-13581748D01*
X134695134Y-13898228D01*
X134711000Y-13977994D01*
X134711000Y-14382006D01*
X134632181Y-14778255D01*
X134477573Y-15151513D01*
X134477572Y-15151514D01*
X134253114Y-15487439D01*
X133967439Y-15773114D01*
X133967436Y-15773116D01*
X133631513Y-15997573D01*
X133258255Y-16152181D01*
X133258254Y-16152181D01*
X133258252Y-16152182D01*
X132862007Y-16231000D01*
X132457993Y-16231000D01*
X132061748Y-16152182D01*
X132061746Y-16152181D01*
X132061745Y-16152181D01*
X131688487Y-15997573D01*
X131352564Y-15773116D01*
X131352561Y-15773114D01*
X131066886Y-15487439D01*
X130842428Y-15151514D01*
X130842427Y-15151513D01*
X130687819Y-14778255D01*
X130609000Y-14382006D01*
X130609000Y-13977994D01*
X130624866Y-13898228D01*
X130687818Y-13581748D01*
X130762366Y-13401772D01*
X130842427Y-13208487D01*
X131066884Y-12872564D01*
X131066886Y-12872561D01*
X131352561Y-12586886D01*
X131357095Y-12583857D01*
X131688487Y-12362427D01*
X132061745Y-12207819D01*
X132061746Y-12207819D01*
X132061748Y-12207818D01*
X132457993Y-12129000D01*
X132862007Y-12129000D01*
X133258252Y-12207818D01*
X133258252Y-12207818D01*
G37*
G36*
X148728228Y-12831703D02*
X148883100Y-12895853D01*
X149022481Y-12988985D01*
X149141015Y-13107519D01*
X149234147Y-13246900D01*
X149298297Y-13401772D01*
X149331000Y-13566184D01*
X149331000Y-13733816D01*
X149298297Y-13898228D01*
X149234147Y-14053100D01*
X149141015Y-14192481D01*
X149022481Y-14311015D01*
X148883100Y-14404147D01*
X148728228Y-14468297D01*
X148563816Y-14501000D01*
X148396184Y-14501000D01*
X148231772Y-14468297D01*
X148076900Y-14404147D01*
X147937519Y-14311015D01*
X147818985Y-14192481D01*
X147725853Y-14053100D01*
X147661703Y-13898228D01*
X147629000Y-13733816D01*
X147629000Y-13566184D01*
X147661703Y-13401772D01*
X147725853Y-13246900D01*
X147818985Y-13107519D01*
X147937519Y-12988985D01*
X148076900Y-12895853D01*
X148231772Y-12831703D01*
X148396184Y-12799000D01*
X148563816Y-12799000D01*
X148728228Y-12831703D01*
X148728228Y-12831703D01*
G37*
G36*
X163968228Y-12831703D02*
X164123100Y-12895853D01*
X164262481Y-12988985D01*
X164381015Y-13107519D01*
X164474147Y-13246900D01*
X164538297Y-13401772D01*
X164571000Y-13566184D01*
X164571000Y-13733816D01*
X164538297Y-13898228D01*
X164474147Y-14053100D01*
X164381015Y-14192481D01*
X164262481Y-14311015D01*
X164123100Y-14404147D01*
X163968228Y-14468297D01*
X163803816Y-14501000D01*
X163636184Y-14501000D01*
X163471772Y-14468297D01*
X163316900Y-14404147D01*
X163177519Y-14311015D01*
X163058985Y-14192481D01*
X162965853Y-14053100D01*
X162901703Y-13898228D01*
X162869000Y-13733816D01*
X162869000Y-13566184D01*
X162901703Y-13401772D01*
X162965853Y-13246900D01*
X163058985Y-13107519D01*
X163177519Y-12988985D01*
X163316900Y-12895853D01*
X163471772Y-12831703D01*
X163636184Y-12799000D01*
X163803816Y-12799000D01*
X163968228Y-12831703D01*
X163968228Y-12831703D01*
G37*
G36*
X22068228Y-12731703D02*
X22223100Y-12795853D01*
X22362481Y-12888985D01*
X22481015Y-13007519D01*
X22574147Y-13146900D01*
X22638297Y-13301772D01*
X22671000Y-13466184D01*
X22671000Y-13633816D01*
X22638297Y-13798228D01*
X22574147Y-13953100D01*
X22481015Y-14092481D01*
X22362481Y-14211015D01*
X22223100Y-14304147D01*
X22068228Y-14368297D01*
X21903816Y-14401000D01*
X21736184Y-14401000D01*
X21571772Y-14368297D01*
X21416900Y-14304147D01*
X21277519Y-14211015D01*
X21158985Y-14092481D01*
X21065853Y-13953100D01*
X21001703Y-13798228D01*
X20969000Y-13633816D01*
X20969000Y-13466184D01*
X21001703Y-13301772D01*
X21065853Y-13146900D01*
X21158985Y-13007519D01*
X21277519Y-12888985D01*
X21416900Y-12795853D01*
X21571772Y-12731703D01*
X21736184Y-12699000D01*
X21903816Y-12699000D01*
X22068228Y-12731703D01*
X22068228Y-12731703D01*
G37*
G36*
X6828228Y-12731703D02*
X6983100Y-12795853D01*
X7122481Y-12888985D01*
X7241015Y-13007519D01*
X7334147Y-13146900D01*
X7398297Y-13301772D01*
X7431000Y-13466184D01*
X7431000Y-13633816D01*
X7398297Y-13798228D01*
X7334147Y-13953100D01*
X7241015Y-14092481D01*
X7122481Y-14211015D01*
X6983100Y-14304147D01*
X6828228Y-14368297D01*
X6663816Y-14401000D01*
X6496184Y-14401000D01*
X6331772Y-14368297D01*
X6176900Y-14304147D01*
X6037519Y-14211015D01*
X5918985Y-14092481D01*
X5825853Y-13953100D01*
X5761703Y-13798228D01*
X5729000Y-13633816D01*
X5729000Y-13466184D01*
X5761703Y-13301772D01*
X5825853Y-13146900D01*
X5918985Y-13007519D01*
X6037519Y-12888985D01*
X6176900Y-12795853D01*
X6331772Y-12731703D01*
X6496184Y-12699000D01*
X6663816Y-12699000D01*
X6828228Y-12731703D01*
X6828228Y-12731703D01*
G37*
G36*
X34185734Y-10533232D02*
X34395202Y-10619996D01*
X34583723Y-10745962D01*
X34744038Y-10906277D01*
X34870004Y-11094798D01*
X34956768Y-11304266D01*
X35001000Y-11526635D01*
X35001000Y-11753365D01*
X34956768Y-11975734D01*
X34870004Y-12185202D01*
X34744038Y-12373723D01*
X34583723Y-12534038D01*
X34395202Y-12660004D01*
X34185734Y-12746768D01*
X33963365Y-12791000D01*
X33736635Y-12791000D01*
X33514266Y-12746768D01*
X33304798Y-12660004D01*
X33116277Y-12534038D01*
X32955962Y-12373723D01*
X32829996Y-12185202D01*
X32743232Y-11975734D01*
X32699000Y-11753365D01*
X32699000Y-11526635D01*
X32743232Y-11304266D01*
X32829996Y-11094798D01*
X32955962Y-10906277D01*
X33116277Y-10745962D01*
X33304798Y-10619996D01*
X33514266Y-10533232D01*
X33736635Y-10489000D01*
X33963365Y-10489000D01*
X34185734Y-10533232D01*
X34185734Y-10533232D01*
G37*
G36*
X72185734Y-10533232D02*
X72395202Y-10619996D01*
X72583723Y-10745962D01*
X72744038Y-10906277D01*
X72870004Y-11094798D01*
X72956768Y-11304266D01*
X73001000Y-11526635D01*
X73001000Y-11753365D01*
X72956768Y-11975734D01*
X72870004Y-12185202D01*
X72744038Y-12373723D01*
X72583723Y-12534038D01*
X72395202Y-12660004D01*
X72185734Y-12746768D01*
X71963365Y-12791000D01*
X71736635Y-12791000D01*
X71514266Y-12746768D01*
X71304798Y-12660004D01*
X71116277Y-12534038D01*
X70955962Y-12373723D01*
X70829996Y-12185202D01*
X70743232Y-11975734D01*
X70699000Y-11753365D01*
X70699000Y-11526635D01*
X70743232Y-11304266D01*
X70829996Y-11094798D01*
X70955962Y-10906277D01*
X71116277Y-10745962D01*
X71304798Y-10619996D01*
X71514266Y-10533232D01*
X71736635Y-10489000D01*
X71963365Y-10489000D01*
X72185734Y-10533232D01*
X72185734Y-10533232D01*
G37*
G36*
X53185734Y-10533232D02*
X53395202Y-10619996D01*
X53583723Y-10745962D01*
X53744038Y-10906277D01*
X53870004Y-11094798D01*
X53956768Y-11304266D01*
X54001000Y-11526635D01*
X54001000Y-11753365D01*
X53956768Y-11975734D01*
X53870004Y-12185202D01*
X53744038Y-12373723D01*
X53583723Y-12534038D01*
X53395202Y-12660004D01*
X53185734Y-12746768D01*
X52963365Y-12791000D01*
X52736635Y-12791000D01*
X52514266Y-12746768D01*
X52304798Y-12660004D01*
X52116277Y-12534038D01*
X51955962Y-12373723D01*
X51829996Y-12185202D01*
X51743232Y-11975734D01*
X51699000Y-11753365D01*
X51699000Y-11526635D01*
X51743232Y-11304266D01*
X51829996Y-11094798D01*
X51955962Y-10906277D01*
X52116277Y-10745962D01*
X52304798Y-10619996D01*
X52514266Y-10533232D01*
X52736635Y-10489000D01*
X52963365Y-10489000D01*
X53185734Y-10533232D01*
X53185734Y-10533232D01*
G37*
G36*
X129185734Y-10533232D02*
X129395202Y-10619996D01*
X129583723Y-10745962D01*
X129744038Y-10906277D01*
X129870004Y-11094798D01*
X129956768Y-11304266D01*
X130001000Y-11526635D01*
X130001000Y-11753365D01*
X129956768Y-11975734D01*
X129870004Y-12185202D01*
X129744038Y-12373723D01*
X129583723Y-12534038D01*
X129395202Y-12660004D01*
X129185734Y-12746768D01*
X128963365Y-12791000D01*
X128736635Y-12791000D01*
X128514266Y-12746768D01*
X128304798Y-12660004D01*
X128116277Y-12534038D01*
X127955962Y-12373723D01*
X127829996Y-12185202D01*
X127743232Y-11975734D01*
X127699000Y-11753365D01*
X127699000Y-11526635D01*
X127743232Y-11304266D01*
X127829996Y-11094798D01*
X127955962Y-10906277D01*
X128116277Y-10745962D01*
X128304798Y-10619996D01*
X128514266Y-10533232D01*
X128736635Y-10489000D01*
X128963365Y-10489000D01*
X129185734Y-10533232D01*
X129185734Y-10533232D01*
G37*
G36*
X91185734Y-10533232D02*
X91395202Y-10619996D01*
X91583723Y-10745962D01*
X91744038Y-10906277D01*
X91870004Y-11094798D01*
X91956768Y-11304266D01*
X92001000Y-11526635D01*
X92001000Y-11753365D01*
X91956768Y-11975734D01*
X91870004Y-12185202D01*
X91744038Y-12373723D01*
X91583723Y-12534038D01*
X91395202Y-12660004D01*
X91185734Y-12746768D01*
X90963365Y-12791000D01*
X90736635Y-12791000D01*
X90514266Y-12746768D01*
X90304798Y-12660004D01*
X90116277Y-12534038D01*
X89955962Y-12373723D01*
X89829996Y-12185202D01*
X89743232Y-11975734D01*
X89699000Y-11753365D01*
X89699000Y-11526635D01*
X89743232Y-11304266D01*
X89829996Y-11094798D01*
X89955962Y-10906277D01*
X90116277Y-10745962D01*
X90304798Y-10619996D01*
X90514266Y-10533232D01*
X90736635Y-10489000D01*
X90963365Y-10489000D01*
X91185734Y-10533232D01*
X91185734Y-10533232D01*
G37*
G36*
X110185734Y-10533232D02*
X110395202Y-10619996D01*
X110583723Y-10745962D01*
X110744038Y-10906277D01*
X110870004Y-11094798D01*
X110956768Y-11304266D01*
X111001000Y-11526635D01*
X111001000Y-11753365D01*
X110956768Y-11975734D01*
X110870004Y-12185202D01*
X110744038Y-12373723D01*
X110583723Y-12534038D01*
X110395202Y-12660004D01*
X110185734Y-12746768D01*
X109963365Y-12791000D01*
X109736635Y-12791000D01*
X109514266Y-12746768D01*
X109304798Y-12660004D01*
X109116277Y-12534038D01*
X108955962Y-12373723D01*
X108829996Y-12185202D01*
X108743232Y-11975734D01*
X108699000Y-11753365D01*
X108699000Y-11526635D01*
X108743232Y-11304266D01*
X108829996Y-11094798D01*
X108955962Y-10906277D01*
X109116277Y-10745962D01*
X109304798Y-10619996D01*
X109514266Y-10533232D01*
X109736635Y-10489000D01*
X109963365Y-10489000D01*
X110185734Y-10533232D01*
X110185734Y-10533232D01*
G37*
G36*
X148728228Y-10291703D02*
X148883100Y-10355853D01*
X149022481Y-10448985D01*
X149141015Y-10567519D01*
X149234147Y-10706900D01*
X149298297Y-10861772D01*
X149331000Y-11026184D01*
X149331000Y-11193816D01*
X149298297Y-11358228D01*
X149234147Y-11513100D01*
X149141015Y-11652481D01*
X149022481Y-11771015D01*
X148883100Y-11864147D01*
X148728228Y-11928297D01*
X148563816Y-11961000D01*
X148396184Y-11961000D01*
X148231772Y-11928297D01*
X148076900Y-11864147D01*
X147937519Y-11771015D01*
X147818985Y-11652481D01*
X147725853Y-11513100D01*
X147661703Y-11358228D01*
X147629000Y-11193816D01*
X147629000Y-11026184D01*
X147661703Y-10861772D01*
X147725853Y-10706900D01*
X147818985Y-10567519D01*
X147937519Y-10448985D01*
X148076900Y-10355853D01*
X148231772Y-10291703D01*
X148396184Y-10259000D01*
X148563816Y-10259000D01*
X148728228Y-10291703D01*
X148728228Y-10291703D01*
G37*
G36*
X163968228Y-10291703D02*
X164123100Y-10355853D01*
X164262481Y-10448985D01*
X164381015Y-10567519D01*
X164474147Y-10706900D01*
X164538297Y-10861772D01*
X164571000Y-11026184D01*
X164571000Y-11193816D01*
X164538297Y-11358228D01*
X164474147Y-11513100D01*
X164381015Y-11652481D01*
X164262481Y-11771015D01*
X164123100Y-11864147D01*
X163968228Y-11928297D01*
X163803816Y-11961000D01*
X163636184Y-11961000D01*
X163471772Y-11928297D01*
X163316900Y-11864147D01*
X163177519Y-11771015D01*
X163058985Y-11652481D01*
X162965853Y-11513100D01*
X162901703Y-11358228D01*
X162869000Y-11193816D01*
X162869000Y-11026184D01*
X162901703Y-10861772D01*
X162965853Y-10706900D01*
X163058985Y-10567519D01*
X163177519Y-10448985D01*
X163316900Y-10355853D01*
X163471772Y-10291703D01*
X163636184Y-10259000D01*
X163803816Y-10259000D01*
X163968228Y-10291703D01*
X163968228Y-10291703D01*
G37*
G36*
X22068228Y-10191703D02*
X22223100Y-10255853D01*
X22362481Y-10348985D01*
X22481015Y-10467519D01*
X22574147Y-10606900D01*
X22638297Y-10761772D01*
X22671000Y-10926184D01*
X22671000Y-11093816D01*
X22638297Y-11258228D01*
X22574147Y-11413100D01*
X22481015Y-11552481D01*
X22362481Y-11671015D01*
X22223100Y-11764147D01*
X22068228Y-11828297D01*
X21903816Y-11861000D01*
X21736184Y-11861000D01*
X21571772Y-11828297D01*
X21416900Y-11764147D01*
X21277519Y-11671015D01*
X21158985Y-11552481D01*
X21065853Y-11413100D01*
X21001703Y-11258228D01*
X20969000Y-11093816D01*
X20969000Y-10926184D01*
X21001703Y-10761772D01*
X21065853Y-10606900D01*
X21158985Y-10467519D01*
X21277519Y-10348985D01*
X21416900Y-10255853D01*
X21571772Y-10191703D01*
X21736184Y-10159000D01*
X21903816Y-10159000D01*
X22068228Y-10191703D01*
X22068228Y-10191703D01*
G37*
G36*
X6828228Y-10191703D02*
X6983100Y-10255853D01*
X7122481Y-10348985D01*
X7241015Y-10467519D01*
X7334147Y-10606900D01*
X7398297Y-10761772D01*
X7431000Y-10926184D01*
X7431000Y-11093816D01*
X7398297Y-11258228D01*
X7334147Y-11413100D01*
X7241015Y-11552481D01*
X7122481Y-11671015D01*
X6983100Y-11764147D01*
X6828228Y-11828297D01*
X6663816Y-11861000D01*
X6496184Y-11861000D01*
X6331772Y-11828297D01*
X6176900Y-11764147D01*
X6037519Y-11671015D01*
X5918985Y-11552481D01*
X5825853Y-11413100D01*
X5761703Y-11258228D01*
X5729000Y-11093816D01*
X5729000Y-10926184D01*
X5761703Y-10761772D01*
X5825853Y-10606900D01*
X5918985Y-10467519D01*
X6037519Y-10348985D01*
X6176900Y-10255853D01*
X6331772Y-10191703D01*
X6496184Y-10159000D01*
X6663816Y-10159000D01*
X6828228Y-10191703D01*
X6828228Y-10191703D01*
G37*
G36*
X135535734Y-7993232D02*
X135745202Y-8079996D01*
X135933723Y-8205962D01*
X136094038Y-8366277D01*
X136220004Y-8554798D01*
X136306768Y-8764266D01*
X136351000Y-8986635D01*
X136351000Y-9213365D01*
X136306768Y-9435734D01*
X136220004Y-9645202D01*
X136094038Y-9833723D01*
X135933723Y-9994038D01*
X135745202Y-10120004D01*
X135535734Y-10206768D01*
X135313365Y-10251000D01*
X135086635Y-10251000D01*
X134864266Y-10206768D01*
X134654798Y-10120004D01*
X134466277Y-9994038D01*
X134305962Y-9833723D01*
X134179996Y-9645202D01*
X134093232Y-9435734D01*
X134049000Y-9213365D01*
X134049000Y-8986635D01*
X134093232Y-8764266D01*
X134179996Y-8554798D01*
X134305962Y-8366277D01*
X134466277Y-8205962D01*
X134654798Y-8079996D01*
X134864266Y-7993232D01*
X135086635Y-7949000D01*
X135313365Y-7949000D01*
X135535734Y-7993232D01*
X135535734Y-7993232D01*
G37*
G36*
X97535734Y-7993232D02*
X97745202Y-8079996D01*
X97933723Y-8205962D01*
X98094038Y-8366277D01*
X98220004Y-8554798D01*
X98306768Y-8764266D01*
X98351000Y-8986635D01*
X98351000Y-9213365D01*
X98306768Y-9435734D01*
X98220004Y-9645202D01*
X98094038Y-9833723D01*
X97933723Y-9994038D01*
X97745202Y-10120004D01*
X97535734Y-10206768D01*
X97313365Y-10251000D01*
X97086635Y-10251000D01*
X96864266Y-10206768D01*
X96654798Y-10120004D01*
X96466277Y-9994038D01*
X96305962Y-9833723D01*
X96179996Y-9645202D01*
X96093232Y-9435734D01*
X96049000Y-9213365D01*
X96049000Y-8986635D01*
X96093232Y-8764266D01*
X96179996Y-8554798D01*
X96305962Y-8366277D01*
X96466277Y-8205962D01*
X96654798Y-8079996D01*
X96864266Y-7993232D01*
X97086635Y-7949000D01*
X97313365Y-7949000D01*
X97535734Y-7993232D01*
X97535734Y-7993232D01*
G37*
G36*
X78535734Y-7993232D02*
X78745202Y-8079996D01*
X78933723Y-8205962D01*
X79094038Y-8366277D01*
X79220004Y-8554798D01*
X79306768Y-8764266D01*
X79351000Y-8986635D01*
X79351000Y-9213365D01*
X79306768Y-9435734D01*
X79220004Y-9645202D01*
X79094038Y-9833723D01*
X78933723Y-9994038D01*
X78745202Y-10120004D01*
X78535734Y-10206768D01*
X78313365Y-10251000D01*
X78086635Y-10251000D01*
X77864266Y-10206768D01*
X77654798Y-10120004D01*
X77466277Y-9994038D01*
X77305962Y-9833723D01*
X77179996Y-9645202D01*
X77093232Y-9435734D01*
X77049000Y-9213365D01*
X77049000Y-8986635D01*
X77093232Y-8764266D01*
X77179996Y-8554798D01*
X77305962Y-8366277D01*
X77466277Y-8205962D01*
X77654798Y-8079996D01*
X77864266Y-7993232D01*
X78086635Y-7949000D01*
X78313365Y-7949000D01*
X78535734Y-7993232D01*
X78535734Y-7993232D01*
G37*
G36*
X40535734Y-7993232D02*
X40745202Y-8079996D01*
X40933723Y-8205962D01*
X41094038Y-8366277D01*
X41220004Y-8554798D01*
X41306768Y-8764266D01*
X41351000Y-8986635D01*
X41351000Y-9213365D01*
X41306768Y-9435734D01*
X41220004Y-9645202D01*
X41094038Y-9833723D01*
X40933723Y-9994038D01*
X40745202Y-10120004D01*
X40535734Y-10206768D01*
X40313365Y-10251000D01*
X40086635Y-10251000D01*
X39864266Y-10206768D01*
X39654798Y-10120004D01*
X39466277Y-9994038D01*
X39305962Y-9833723D01*
X39179996Y-9645202D01*
X39093232Y-9435734D01*
X39049000Y-9213365D01*
X39049000Y-8986635D01*
X39093232Y-8764266D01*
X39179996Y-8554798D01*
X39305962Y-8366277D01*
X39466277Y-8205962D01*
X39654798Y-8079996D01*
X39864266Y-7993232D01*
X40086635Y-7949000D01*
X40313365Y-7949000D01*
X40535734Y-7993232D01*
X40535734Y-7993232D01*
G37*
G36*
X116535734Y-7993232D02*
X116745202Y-8079996D01*
X116933723Y-8205962D01*
X117094038Y-8366277D01*
X117220004Y-8554798D01*
X117306768Y-8764266D01*
X117351000Y-8986635D01*
X117351000Y-9213365D01*
X117306768Y-9435734D01*
X117220004Y-9645202D01*
X117094038Y-9833723D01*
X116933723Y-9994038D01*
X116745202Y-10120004D01*
X116535734Y-10206768D01*
X116313365Y-10251000D01*
X116086635Y-10251000D01*
X115864266Y-10206768D01*
X115654798Y-10120004D01*
X115466277Y-9994038D01*
X115305962Y-9833723D01*
X115179996Y-9645202D01*
X115093232Y-9435734D01*
X115049000Y-9213365D01*
X115049000Y-8986635D01*
X115093232Y-8764266D01*
X115179996Y-8554798D01*
X115305962Y-8366277D01*
X115466277Y-8205962D01*
X115654798Y-8079996D01*
X115864266Y-7993232D01*
X116086635Y-7949000D01*
X116313365Y-7949000D01*
X116535734Y-7993232D01*
X116535734Y-7993232D01*
G37*
G36*
X59535734Y-7993232D02*
X59745202Y-8079996D01*
X59933723Y-8205962D01*
X60094038Y-8366277D01*
X60220004Y-8554798D01*
X60306768Y-8764266D01*
X60351000Y-8986635D01*
X60351000Y-9213365D01*
X60306768Y-9435734D01*
X60220004Y-9645202D01*
X60094038Y-9833723D01*
X59933723Y-9994038D01*
X59745202Y-10120004D01*
X59535734Y-10206768D01*
X59313365Y-10251000D01*
X59086635Y-10251000D01*
X58864266Y-10206768D01*
X58654798Y-10120004D01*
X58466277Y-9994038D01*
X58305962Y-9833723D01*
X58179996Y-9645202D01*
X58093232Y-9435734D01*
X58049000Y-9213365D01*
X58049000Y-8986635D01*
X58093232Y-8764266D01*
X58179996Y-8554798D01*
X58305962Y-8366277D01*
X58466277Y-8205962D01*
X58654798Y-8079996D01*
X58864266Y-7993232D01*
X59086635Y-7949000D01*
X59313365Y-7949000D01*
X59535734Y-7993232D01*
X59535734Y-7993232D01*
G37*
G36*
X163968228Y-7751703D02*
X164123100Y-7815853D01*
X164262481Y-7908985D01*
X164381015Y-8027519D01*
X164474147Y-8166900D01*
X164538297Y-8321772D01*
X164571000Y-8486184D01*
X164571000Y-8653816D01*
X164538297Y-8818228D01*
X164474147Y-8973100D01*
X164381015Y-9112481D01*
X164262481Y-9231015D01*
X164123100Y-9324147D01*
X163968228Y-9388297D01*
X163803816Y-9421000D01*
X163636184Y-9421000D01*
X163471772Y-9388297D01*
X163316900Y-9324147D01*
X163177519Y-9231015D01*
X163058985Y-9112481D01*
X162965853Y-8973100D01*
X162901703Y-8818228D01*
X162869000Y-8653816D01*
X162869000Y-8486184D01*
X162901703Y-8321772D01*
X162965853Y-8166900D01*
X163058985Y-8027519D01*
X163177519Y-7908985D01*
X163316900Y-7815853D01*
X163471772Y-7751703D01*
X163636184Y-7719000D01*
X163803816Y-7719000D01*
X163968228Y-7751703D01*
X163968228Y-7751703D01*
G37*
G36*
X148728228Y-7751703D02*
X148883100Y-7815853D01*
X149022481Y-7908985D01*
X149141015Y-8027519D01*
X149234147Y-8166900D01*
X149298297Y-8321772D01*
X149331000Y-8486184D01*
X149331000Y-8653816D01*
X149298297Y-8818228D01*
X149234147Y-8973100D01*
X149141015Y-9112481D01*
X149022481Y-9231015D01*
X148883100Y-9324147D01*
X148728228Y-9388297D01*
X148563816Y-9421000D01*
X148396184Y-9421000D01*
X148231772Y-9388297D01*
X148076900Y-9324147D01*
X147937519Y-9231015D01*
X147818985Y-9112481D01*
X147725853Y-8973100D01*
X147661703Y-8818228D01*
X147629000Y-8653816D01*
X147629000Y-8486184D01*
X147661703Y-8321772D01*
X147725853Y-8166900D01*
X147818985Y-8027519D01*
X147937519Y-7908985D01*
X148076900Y-7815853D01*
X148231772Y-7751703D01*
X148396184Y-7719000D01*
X148563816Y-7719000D01*
X148728228Y-7751703D01*
X148728228Y-7751703D01*
G37*
G36*
X6828228Y-7651703D02*
X6983100Y-7715853D01*
X7122481Y-7808985D01*
X7241015Y-7927519D01*
X7334147Y-8066900D01*
X7398297Y-8221772D01*
X7431000Y-8386184D01*
X7431000Y-8553816D01*
X7398297Y-8718228D01*
X7334147Y-8873100D01*
X7241015Y-9012481D01*
X7122481Y-9131015D01*
X6983100Y-9224147D01*
X6828228Y-9288297D01*
X6663816Y-9321000D01*
X6496184Y-9321000D01*
X6331772Y-9288297D01*
X6176900Y-9224147D01*
X6037519Y-9131015D01*
X5918985Y-9012481D01*
X5825853Y-8873100D01*
X5761703Y-8718228D01*
X5729000Y-8553816D01*
X5729000Y-8386184D01*
X5761703Y-8221772D01*
X5825853Y-8066900D01*
X5918985Y-7927519D01*
X6037519Y-7808985D01*
X6176900Y-7715853D01*
X6331772Y-7651703D01*
X6496184Y-7619000D01*
X6663816Y-7619000D01*
X6828228Y-7651703D01*
X6828228Y-7651703D01*
G37*
G36*
X22068228Y-7651703D02*
X22223100Y-7715853D01*
X22362481Y-7808985D01*
X22481015Y-7927519D01*
X22574147Y-8066900D01*
X22638297Y-8221772D01*
X22671000Y-8386184D01*
X22671000Y-8553816D01*
X22638297Y-8718228D01*
X22574147Y-8873100D01*
X22481015Y-9012481D01*
X22362481Y-9131015D01*
X22223100Y-9224147D01*
X22068228Y-9288297D01*
X21903816Y-9321000D01*
X21736184Y-9321000D01*
X21571772Y-9288297D01*
X21416900Y-9224147D01*
X21277519Y-9131015D01*
X21158985Y-9012481D01*
X21065853Y-8873100D01*
X21001703Y-8718228D01*
X20969000Y-8553816D01*
X20969000Y-8386184D01*
X21001703Y-8221772D01*
X21065853Y-8066900D01*
X21158985Y-7927519D01*
X21277519Y-7808985D01*
X21416900Y-7715853D01*
X21571772Y-7651703D01*
X21736184Y-7619000D01*
X21903816Y-7619000D01*
X22068228Y-7651703D01*
X22068228Y-7651703D01*
G37*
G36*
X149331000Y-6881000D02*
X147629000Y-6881000D01*
X147629000Y-5179000D01*
X149331000Y-5179000D01*
X149331000Y-6881000D01*
X149331000Y-6881000D01*
G37*
G36*
X163968228Y-5211703D02*
X164123100Y-5275853D01*
X164262481Y-5368985D01*
X164381015Y-5487519D01*
X164474147Y-5626900D01*
X164538297Y-5781772D01*
X164571000Y-5946184D01*
X164571000Y-6113816D01*
X164538297Y-6278228D01*
X164474147Y-6433100D01*
X164381015Y-6572481D01*
X164262481Y-6691015D01*
X164123100Y-6784147D01*
X163968228Y-6848297D01*
X163803816Y-6881000D01*
X163636184Y-6881000D01*
X163471772Y-6848297D01*
X163316900Y-6784147D01*
X163177519Y-6691015D01*
X163058985Y-6572481D01*
X162965853Y-6433100D01*
X162901703Y-6278228D01*
X162869000Y-6113816D01*
X162869000Y-5946184D01*
X162901703Y-5781772D01*
X162965853Y-5626900D01*
X163058985Y-5487519D01*
X163177519Y-5368985D01*
X163316900Y-5275853D01*
X163471772Y-5211703D01*
X163636184Y-5179000D01*
X163803816Y-5179000D01*
X163968228Y-5211703D01*
X163968228Y-5211703D01*
G37*
G36*
X22068228Y-5111703D02*
X22223100Y-5175853D01*
X22362481Y-5268985D01*
X22481015Y-5387519D01*
X22574147Y-5526900D01*
X22638297Y-5681772D01*
X22671000Y-5846184D01*
X22671000Y-6013816D01*
X22638297Y-6178228D01*
X22574147Y-6333100D01*
X22481015Y-6472481D01*
X22362481Y-6591015D01*
X22223100Y-6684147D01*
X22068228Y-6748297D01*
X21903816Y-6781000D01*
X21736184Y-6781000D01*
X21571772Y-6748297D01*
X21416900Y-6684147D01*
X21277519Y-6591015D01*
X21158985Y-6472481D01*
X21065853Y-6333100D01*
X21001703Y-6178228D01*
X20969000Y-6013816D01*
X20969000Y-5846184D01*
X21001703Y-5681772D01*
X21065853Y-5526900D01*
X21158985Y-5387519D01*
X21277519Y-5268985D01*
X21416900Y-5175853D01*
X21571772Y-5111703D01*
X21736184Y-5079000D01*
X21903816Y-5079000D01*
X22068228Y-5111703D01*
X22068228Y-5111703D01*
G37*
G36*
X7431000Y-6781000D02*
X5729000Y-6781000D01*
X5729000Y-5079000D01*
X7431000Y-5079000D01*
X7431000Y-6781000D01*
X7431000Y-6781000D01*
G37*
M02*
