G04 #@! TF.GenerationSoftware,KiCad,Pcbnew,(5.0.2)-1*
G04 #@! TF.CreationDate,2019-02-28T20:13:41+09:00*
G04 #@! TF.ProjectId,Keyboard,4b657962-6f61-4726-942e-6b696361645f,rev?*
G04 #@! TF.SameCoordinates,Original*
G04 #@! TF.FileFunction,Legend,Top*
G04 #@! TF.FilePolarity,Positive*
%FSLAX46Y46*%
G04 Gerber Fmt 4.6, Leading zero omitted, Abs format (unit mm)*
G04 Created by KiCad (PCBNEW (5.0.2)-1) date 2019/02/28 20:13:41*
%MOMM*%
%LPD*%
G01*
G04 APERTURE LIST*
%ADD10C,0.300000*%
%ADD11C,0.120000*%
%ADD12C,0.150000*%
G04 APERTURE END LIST*
D10*
X73699999Y-83778571D02*
X73699999Y-82278571D01*
X74057142Y-82278571D01*
X74271428Y-82350000D01*
X74414285Y-82492857D01*
X74485714Y-82635714D01*
X74557142Y-82921428D01*
X74557142Y-83135714D01*
X74485714Y-83421428D01*
X74414285Y-83564285D01*
X74271428Y-83707142D01*
X74057142Y-83778571D01*
X73699999Y-83778571D01*
X75771428Y-83707142D02*
X75628571Y-83778571D01*
X75342857Y-83778571D01*
X75199999Y-83707142D01*
X75128571Y-83564285D01*
X75128571Y-82992857D01*
X75199999Y-82850000D01*
X75342857Y-82778571D01*
X75628571Y-82778571D01*
X75771428Y-82850000D01*
X75842857Y-82992857D01*
X75842857Y-83135714D01*
X75128571Y-83278571D01*
X76414285Y-83707142D02*
X76557142Y-83778571D01*
X76842857Y-83778571D01*
X76985714Y-83707142D01*
X77057142Y-83564285D01*
X77057142Y-83492857D01*
X76985714Y-83350000D01*
X76842857Y-83278571D01*
X76628571Y-83278571D01*
X76485714Y-83207142D01*
X76414285Y-83064285D01*
X76414285Y-82992857D01*
X76485714Y-82850000D01*
X76628571Y-82778571D01*
X76842857Y-82778571D01*
X76985714Y-82850000D01*
X77699999Y-83778571D02*
X77699999Y-82778571D01*
X77699999Y-82278571D02*
X77628571Y-82350000D01*
X77699999Y-82421428D01*
X77771428Y-82350000D01*
X77699999Y-82278571D01*
X77699999Y-82421428D01*
X79057142Y-82778571D02*
X79057142Y-83992857D01*
X78985714Y-84135714D01*
X78914285Y-84207142D01*
X78771428Y-84278571D01*
X78557142Y-84278571D01*
X78414285Y-84207142D01*
X79057142Y-83707142D02*
X78914285Y-83778571D01*
X78628571Y-83778571D01*
X78485714Y-83707142D01*
X78414285Y-83635714D01*
X78342857Y-83492857D01*
X78342857Y-83064285D01*
X78414285Y-82921428D01*
X78485714Y-82850000D01*
X78628571Y-82778571D01*
X78914285Y-82778571D01*
X79057142Y-82850000D01*
X79771428Y-82778571D02*
X79771428Y-83778571D01*
X79771428Y-82921428D02*
X79842857Y-82850000D01*
X79985714Y-82778571D01*
X80199999Y-82778571D01*
X80342857Y-82850000D01*
X80414285Y-82992857D01*
X80414285Y-83778571D01*
X81700000Y-83707142D02*
X81557142Y-83778571D01*
X81271428Y-83778571D01*
X81128571Y-83707142D01*
X81057142Y-83564285D01*
X81057142Y-82992857D01*
X81128571Y-82850000D01*
X81271428Y-82778571D01*
X81557142Y-82778571D01*
X81700000Y-82850000D01*
X81771428Y-82992857D01*
X81771428Y-83135714D01*
X81057142Y-83278571D01*
X83057142Y-83778571D02*
X83057142Y-82278571D01*
X83057142Y-83707142D02*
X82914285Y-83778571D01*
X82628571Y-83778571D01*
X82485714Y-83707142D01*
X82414285Y-83635714D01*
X82342857Y-83492857D01*
X82342857Y-83064285D01*
X82414285Y-82921428D01*
X82485714Y-82850000D01*
X82628571Y-82778571D01*
X82914285Y-82778571D01*
X83057142Y-82850000D01*
X84914285Y-83778571D02*
X84914285Y-82278571D01*
X84914285Y-82850000D02*
X85057142Y-82778571D01*
X85342857Y-82778571D01*
X85485714Y-82850000D01*
X85557142Y-82921428D01*
X85628571Y-83064285D01*
X85628571Y-83492857D01*
X85557142Y-83635714D01*
X85485714Y-83707142D01*
X85342857Y-83778571D01*
X85057142Y-83778571D01*
X84914285Y-83707142D01*
X86128571Y-82778571D02*
X86485714Y-83778571D01*
X86842857Y-82778571D02*
X86485714Y-83778571D01*
X86342857Y-84135714D01*
X86271428Y-84207142D01*
X86128571Y-84278571D01*
X88557142Y-83778571D02*
X88557142Y-82278571D01*
X89414285Y-83778571D02*
X88771428Y-82921428D01*
X89414285Y-82278571D02*
X88557142Y-83135714D01*
X90699999Y-83778571D02*
X90699999Y-82992857D01*
X90628571Y-82850000D01*
X90485714Y-82778571D01*
X90199999Y-82778571D01*
X90057142Y-82850000D01*
X90699999Y-83707142D02*
X90557142Y-83778571D01*
X90199999Y-83778571D01*
X90057142Y-83707142D01*
X89985714Y-83564285D01*
X89985714Y-83421428D01*
X90057142Y-83278571D01*
X90199999Y-83207142D01*
X90557142Y-83207142D01*
X90699999Y-83135714D01*
X91414285Y-83778571D02*
X91414285Y-82278571D01*
X91557142Y-83207142D02*
X91985714Y-83778571D01*
X91985714Y-82778571D02*
X91414285Y-83350000D01*
X93271428Y-82778571D02*
X93271428Y-83778571D01*
X92628571Y-82778571D02*
X92628571Y-83564285D01*
X92699999Y-83707142D01*
X92842857Y-83778571D01*
X93057142Y-83778571D01*
X93199999Y-83707142D01*
X93271428Y-83635714D01*
X94628571Y-83778571D02*
X94628571Y-82278571D01*
X94628571Y-83707142D02*
X94485714Y-83778571D01*
X94199999Y-83778571D01*
X94057142Y-83707142D01*
X93985714Y-83635714D01*
X93914285Y-83492857D01*
X93914285Y-83064285D01*
X93985714Y-82921428D01*
X94057142Y-82850000D01*
X94199999Y-82778571D01*
X94485714Y-82778571D01*
X94628571Y-82850000D01*
X95557142Y-83778571D02*
X95414285Y-83707142D01*
X95342857Y-83635714D01*
X95271428Y-83492857D01*
X95271428Y-83064285D01*
X95342857Y-82921428D01*
X95414285Y-82850000D01*
X95557142Y-82778571D01*
X95771428Y-82778571D01*
X95914285Y-82850000D01*
X95985714Y-82921428D01*
X96057142Y-83064285D01*
X96057142Y-83492857D01*
X95985714Y-83635714D01*
X95914285Y-83707142D01*
X95771428Y-83778571D01*
X95557142Y-83778571D01*
X96700000Y-83635714D02*
X96771428Y-83707142D01*
X96700000Y-83778571D01*
X96628571Y-83707142D01*
X96700000Y-83635714D01*
X96700000Y-83778571D01*
D11*
G04 #@! TO.C,K23*
X30675000Y-78165000D02*
X30675000Y-64195000D01*
X44645000Y-78165000D02*
X30675000Y-78165000D01*
X44645000Y-64195000D02*
X44645000Y-78165000D01*
X30675000Y-64195000D02*
X44645000Y-64195000D01*
G04 #@! TO.C,K24*
X49675000Y-64195000D02*
X63645000Y-64195000D01*
X63645000Y-64195000D02*
X63645000Y-78165000D01*
X63645000Y-78165000D02*
X49675000Y-78165000D01*
X49675000Y-78165000D02*
X49675000Y-64195000D01*
G04 #@! TO.C,D24*
X54590000Y-78380000D02*
X54590000Y-80620000D01*
X54590000Y-80620000D02*
X58830000Y-80620000D01*
X58830000Y-80620000D02*
X58830000Y-78380000D01*
X58830000Y-78380000D02*
X54590000Y-78380000D01*
X53940000Y-79500000D02*
X54590000Y-79500000D01*
X59480000Y-79500000D02*
X58830000Y-79500000D01*
X55310000Y-78380000D02*
X55310000Y-80620000D01*
X55430000Y-78380000D02*
X55430000Y-80620000D01*
X55190000Y-78380000D02*
X55190000Y-80620000D01*
G04 #@! TO.C,D23*
X36190000Y-78380000D02*
X36190000Y-80620000D01*
X36430000Y-78380000D02*
X36430000Y-80620000D01*
X36310000Y-78380000D02*
X36310000Y-80620000D01*
X40480000Y-79500000D02*
X39830000Y-79500000D01*
X34940000Y-79500000D02*
X35590000Y-79500000D01*
X39830000Y-78380000D02*
X35590000Y-78380000D01*
X39830000Y-80620000D02*
X39830000Y-78380000D01*
X35590000Y-80620000D02*
X39830000Y-80620000D01*
X35590000Y-78380000D02*
X35590000Y-80620000D01*
D12*
G04 #@! TO.C,U2*
X5310000Y-4660000D02*
X5310000Y-35140000D01*
X5310000Y-4660000D02*
X10390000Y-4660000D01*
X10390000Y-4660000D02*
X10390000Y-2120000D01*
X10390000Y-2120000D02*
X18010000Y-2120000D01*
X18010000Y-2120000D02*
X18010000Y-4660000D01*
X18010000Y-4660000D02*
X23090000Y-4660000D01*
X23090000Y-4660000D02*
X23090000Y-35140000D01*
X23090000Y-35140000D02*
X5310000Y-35140000D01*
D11*
G04 #@! TO.C,K3*
X30675000Y-45195000D02*
X44645000Y-45195000D01*
X44645000Y-45195000D02*
X44645000Y-59165000D01*
X44645000Y-59165000D02*
X30675000Y-59165000D01*
X30675000Y-59165000D02*
X30675000Y-45195000D01*
G04 #@! TO.C,K7*
X68675000Y-7195000D02*
X82645000Y-7195000D01*
X82645000Y-7195000D02*
X82645000Y-21165000D01*
X82645000Y-21165000D02*
X68675000Y-21165000D01*
X68675000Y-21165000D02*
X68675000Y-7195000D01*
G04 #@! TO.C,K8*
X68675000Y-26195000D02*
X82645000Y-26195000D01*
X82645000Y-26195000D02*
X82645000Y-40165000D01*
X82645000Y-40165000D02*
X68675000Y-40165000D01*
X68675000Y-40165000D02*
X68675000Y-26195000D01*
G04 #@! TO.C,D2*
X35590000Y-40380000D02*
X35590000Y-42620000D01*
X35590000Y-42620000D02*
X39830000Y-42620000D01*
X39830000Y-42620000D02*
X39830000Y-40380000D01*
X39830000Y-40380000D02*
X35590000Y-40380000D01*
X34940000Y-41500000D02*
X35590000Y-41500000D01*
X40480000Y-41500000D02*
X39830000Y-41500000D01*
X36310000Y-40380000D02*
X36310000Y-42620000D01*
X36430000Y-40380000D02*
X36430000Y-42620000D01*
X36190000Y-40380000D02*
X36190000Y-42620000D01*
G04 #@! TO.C,D7*
X73590000Y-21380000D02*
X73590000Y-23620000D01*
X73590000Y-23620000D02*
X77830000Y-23620000D01*
X77830000Y-23620000D02*
X77830000Y-21380000D01*
X77830000Y-21380000D02*
X73590000Y-21380000D01*
X72940000Y-22500000D02*
X73590000Y-22500000D01*
X78480000Y-22500000D02*
X77830000Y-22500000D01*
X74310000Y-21380000D02*
X74310000Y-23620000D01*
X74430000Y-21380000D02*
X74430000Y-23620000D01*
X74190000Y-21380000D02*
X74190000Y-23620000D01*
G04 #@! TO.C,D10*
X73590000Y-78380000D02*
X73590000Y-80620000D01*
X73590000Y-80620000D02*
X77830000Y-80620000D01*
X77830000Y-80620000D02*
X77830000Y-78380000D01*
X77830000Y-78380000D02*
X73590000Y-78380000D01*
X72940000Y-79500000D02*
X73590000Y-79500000D01*
X78480000Y-79500000D02*
X77830000Y-79500000D01*
X74310000Y-78380000D02*
X74310000Y-80620000D01*
X74430000Y-78380000D02*
X74430000Y-80620000D01*
X74190000Y-78380000D02*
X74190000Y-80620000D01*
G04 #@! TO.C,D9*
X74190000Y-59380000D02*
X74190000Y-61620000D01*
X74430000Y-59380000D02*
X74430000Y-61620000D01*
X74310000Y-59380000D02*
X74310000Y-61620000D01*
X78480000Y-60500000D02*
X77830000Y-60500000D01*
X72940000Y-60500000D02*
X73590000Y-60500000D01*
X77830000Y-59380000D02*
X73590000Y-59380000D01*
X77830000Y-61620000D02*
X77830000Y-59380000D01*
X73590000Y-61620000D02*
X77830000Y-61620000D01*
X73590000Y-59380000D02*
X73590000Y-61620000D01*
G04 #@! TO.C,D16*
X111590000Y-40380000D02*
X111590000Y-42620000D01*
X111590000Y-42620000D02*
X115830000Y-42620000D01*
X115830000Y-42620000D02*
X115830000Y-40380000D01*
X115830000Y-40380000D02*
X111590000Y-40380000D01*
X110940000Y-41500000D02*
X111590000Y-41500000D01*
X116480000Y-41500000D02*
X115830000Y-41500000D01*
X112310000Y-40380000D02*
X112310000Y-42620000D01*
X112430000Y-40380000D02*
X112430000Y-42620000D01*
X112190000Y-40380000D02*
X112190000Y-42620000D01*
G04 #@! TO.C,K4*
X49675000Y-21165000D02*
X49675000Y-7195000D01*
X63645000Y-21165000D02*
X49675000Y-21165000D01*
X63645000Y-7195000D02*
X63645000Y-21165000D01*
X49675000Y-7195000D02*
X63645000Y-7195000D01*
G04 #@! TO.C,K9*
X68675000Y-45195000D02*
X82645000Y-45195000D01*
X82645000Y-45195000D02*
X82645000Y-59165000D01*
X82645000Y-59165000D02*
X68675000Y-59165000D01*
X68675000Y-59165000D02*
X68675000Y-45195000D01*
G04 #@! TO.C,K5*
X49675000Y-26195000D02*
X63645000Y-26195000D01*
X63645000Y-26195000D02*
X63645000Y-40165000D01*
X63645000Y-40165000D02*
X49675000Y-40165000D01*
X49675000Y-40165000D02*
X49675000Y-26195000D01*
G04 #@! TO.C,D15*
X112190000Y-21380000D02*
X112190000Y-23620000D01*
X112430000Y-21380000D02*
X112430000Y-23620000D01*
X112310000Y-21380000D02*
X112310000Y-23620000D01*
X116480000Y-22500000D02*
X115830000Y-22500000D01*
X110940000Y-22500000D02*
X111590000Y-22500000D01*
X115830000Y-21380000D02*
X111590000Y-21380000D01*
X115830000Y-23620000D02*
X115830000Y-21380000D01*
X111590000Y-23620000D02*
X115830000Y-23620000D01*
X111590000Y-21380000D02*
X111590000Y-23620000D01*
G04 #@! TO.C,D17*
X112190000Y-59380000D02*
X112190000Y-61620000D01*
X112430000Y-59380000D02*
X112430000Y-61620000D01*
X112310000Y-59380000D02*
X112310000Y-61620000D01*
X116480000Y-60500000D02*
X115830000Y-60500000D01*
X110940000Y-60500000D02*
X111590000Y-60500000D01*
X115830000Y-59380000D02*
X111590000Y-59380000D01*
X115830000Y-61620000D02*
X115830000Y-59380000D01*
X111590000Y-61620000D02*
X115830000Y-61620000D01*
X111590000Y-59380000D02*
X111590000Y-61620000D01*
G04 #@! TO.C,D12*
X93190000Y-40380000D02*
X93190000Y-42620000D01*
X93430000Y-40380000D02*
X93430000Y-42620000D01*
X93310000Y-40380000D02*
X93310000Y-42620000D01*
X97480000Y-41500000D02*
X96830000Y-41500000D01*
X91940000Y-41500000D02*
X92590000Y-41500000D01*
X96830000Y-40380000D02*
X92590000Y-40380000D01*
X96830000Y-42620000D02*
X96830000Y-40380000D01*
X92590000Y-42620000D02*
X96830000Y-42620000D01*
X92590000Y-40380000D02*
X92590000Y-42620000D01*
G04 #@! TO.C,D4*
X55190000Y-21380000D02*
X55190000Y-23620000D01*
X55430000Y-21380000D02*
X55430000Y-23620000D01*
X55310000Y-21380000D02*
X55310000Y-23620000D01*
X59480000Y-22500000D02*
X58830000Y-22500000D01*
X53940000Y-22500000D02*
X54590000Y-22500000D01*
X58830000Y-21380000D02*
X54590000Y-21380000D01*
X58830000Y-23620000D02*
X58830000Y-21380000D01*
X54590000Y-23620000D02*
X58830000Y-23620000D01*
X54590000Y-21380000D02*
X54590000Y-23620000D01*
G04 #@! TO.C,D6*
X54590000Y-59380000D02*
X54590000Y-61620000D01*
X54590000Y-61620000D02*
X58830000Y-61620000D01*
X58830000Y-61620000D02*
X58830000Y-59380000D01*
X58830000Y-59380000D02*
X54590000Y-59380000D01*
X53940000Y-60500000D02*
X54590000Y-60500000D01*
X59480000Y-60500000D02*
X58830000Y-60500000D01*
X55310000Y-59380000D02*
X55310000Y-61620000D01*
X55430000Y-59380000D02*
X55430000Y-61620000D01*
X55190000Y-59380000D02*
X55190000Y-61620000D01*
G04 #@! TO.C,D14*
X93190000Y-78380000D02*
X93190000Y-80620000D01*
X93430000Y-78380000D02*
X93430000Y-80620000D01*
X93310000Y-78380000D02*
X93310000Y-80620000D01*
X97480000Y-79500000D02*
X96830000Y-79500000D01*
X91940000Y-79500000D02*
X92590000Y-79500000D01*
X96830000Y-78380000D02*
X92590000Y-78380000D01*
X96830000Y-80620000D02*
X96830000Y-78380000D01*
X92590000Y-80620000D02*
X96830000Y-80620000D01*
X92590000Y-78380000D02*
X92590000Y-80620000D01*
G04 #@! TO.C,D18*
X111590000Y-78380000D02*
X111590000Y-80620000D01*
X111590000Y-80620000D02*
X115830000Y-80620000D01*
X115830000Y-80620000D02*
X115830000Y-78380000D01*
X115830000Y-78380000D02*
X111590000Y-78380000D01*
X110940000Y-79500000D02*
X111590000Y-79500000D01*
X116480000Y-79500000D02*
X115830000Y-79500000D01*
X112310000Y-78380000D02*
X112310000Y-80620000D01*
X112430000Y-78380000D02*
X112430000Y-80620000D01*
X112190000Y-78380000D02*
X112190000Y-80620000D01*
G04 #@! TO.C,D21*
X130590000Y-59380000D02*
X130590000Y-61620000D01*
X130590000Y-61620000D02*
X134830000Y-61620000D01*
X134830000Y-61620000D02*
X134830000Y-59380000D01*
X134830000Y-59380000D02*
X130590000Y-59380000D01*
X129940000Y-60500000D02*
X130590000Y-60500000D01*
X135480000Y-60500000D02*
X134830000Y-60500000D01*
X131310000Y-59380000D02*
X131310000Y-61620000D01*
X131430000Y-59380000D02*
X131430000Y-61620000D01*
X131190000Y-59380000D02*
X131190000Y-61620000D01*
G04 #@! TO.C,D22*
X131190000Y-78380000D02*
X131190000Y-80620000D01*
X131430000Y-78380000D02*
X131430000Y-80620000D01*
X131310000Y-78380000D02*
X131310000Y-80620000D01*
X135480000Y-79500000D02*
X134830000Y-79500000D01*
X129940000Y-79500000D02*
X130590000Y-79500000D01*
X134830000Y-78380000D02*
X130590000Y-78380000D01*
X134830000Y-80620000D02*
X134830000Y-78380000D01*
X130590000Y-80620000D02*
X134830000Y-80620000D01*
X130590000Y-78380000D02*
X130590000Y-80620000D01*
G04 #@! TO.C,D3*
X36190000Y-59380000D02*
X36190000Y-61620000D01*
X36430000Y-59380000D02*
X36430000Y-61620000D01*
X36310000Y-59380000D02*
X36310000Y-61620000D01*
X40480000Y-60500000D02*
X39830000Y-60500000D01*
X34940000Y-60500000D02*
X35590000Y-60500000D01*
X39830000Y-59380000D02*
X35590000Y-59380000D01*
X39830000Y-61620000D02*
X39830000Y-59380000D01*
X35590000Y-61620000D02*
X39830000Y-61620000D01*
X35590000Y-59380000D02*
X35590000Y-61620000D01*
G04 #@! TO.C,K1*
X30675000Y-7195000D02*
X44645000Y-7195000D01*
X44645000Y-7195000D02*
X44645000Y-21165000D01*
X44645000Y-21165000D02*
X30675000Y-21165000D01*
X30675000Y-21165000D02*
X30675000Y-7195000D01*
G04 #@! TO.C,K2*
X30675000Y-40165000D02*
X30675000Y-26195000D01*
X44645000Y-40165000D02*
X30675000Y-40165000D01*
X44645000Y-26195000D02*
X44645000Y-40165000D01*
X30675000Y-26195000D02*
X44645000Y-26195000D01*
G04 #@! TO.C,D11*
X92590000Y-21380000D02*
X92590000Y-23620000D01*
X92590000Y-23620000D02*
X96830000Y-23620000D01*
X96830000Y-23620000D02*
X96830000Y-21380000D01*
X96830000Y-21380000D02*
X92590000Y-21380000D01*
X91940000Y-22500000D02*
X92590000Y-22500000D01*
X97480000Y-22500000D02*
X96830000Y-22500000D01*
X93310000Y-21380000D02*
X93310000Y-23620000D01*
X93430000Y-21380000D02*
X93430000Y-23620000D01*
X93190000Y-21380000D02*
X93190000Y-23620000D01*
G04 #@! TO.C,K19*
X125675000Y-7195000D02*
X139645000Y-7195000D01*
X139645000Y-7195000D02*
X139645000Y-21165000D01*
X139645000Y-21165000D02*
X125675000Y-21165000D01*
X125675000Y-21165000D02*
X125675000Y-7195000D01*
G04 #@! TO.C,D20*
X131190000Y-40380000D02*
X131190000Y-42620000D01*
X131430000Y-40380000D02*
X131430000Y-42620000D01*
X131310000Y-40380000D02*
X131310000Y-42620000D01*
X135480000Y-41500000D02*
X134830000Y-41500000D01*
X129940000Y-41500000D02*
X130590000Y-41500000D01*
X134830000Y-40380000D02*
X130590000Y-40380000D01*
X134830000Y-42620000D02*
X134830000Y-40380000D01*
X130590000Y-42620000D02*
X134830000Y-42620000D01*
X130590000Y-40380000D02*
X130590000Y-42620000D01*
G04 #@! TO.C,D8*
X73590000Y-40380000D02*
X73590000Y-42620000D01*
X73590000Y-42620000D02*
X77830000Y-42620000D01*
X77830000Y-42620000D02*
X77830000Y-40380000D01*
X77830000Y-40380000D02*
X73590000Y-40380000D01*
X72940000Y-41500000D02*
X73590000Y-41500000D01*
X78480000Y-41500000D02*
X77830000Y-41500000D01*
X74310000Y-40380000D02*
X74310000Y-42620000D01*
X74430000Y-40380000D02*
X74430000Y-42620000D01*
X74190000Y-40380000D02*
X74190000Y-42620000D01*
G04 #@! TO.C,K6*
X49675000Y-59165000D02*
X49675000Y-45195000D01*
X63645000Y-59165000D02*
X49675000Y-59165000D01*
X63645000Y-45195000D02*
X63645000Y-59165000D01*
X49675000Y-45195000D02*
X63645000Y-45195000D01*
G04 #@! TO.C,D13*
X93190000Y-59380000D02*
X93190000Y-61620000D01*
X93430000Y-59380000D02*
X93430000Y-61620000D01*
X93310000Y-59380000D02*
X93310000Y-61620000D01*
X97480000Y-60500000D02*
X96830000Y-60500000D01*
X91940000Y-60500000D02*
X92590000Y-60500000D01*
X96830000Y-59380000D02*
X92590000Y-59380000D01*
X96830000Y-61620000D02*
X96830000Y-59380000D01*
X92590000Y-61620000D02*
X96830000Y-61620000D01*
X92590000Y-59380000D02*
X92590000Y-61620000D01*
G04 #@! TO.C,K17*
X106675000Y-59165000D02*
X106675000Y-45195000D01*
X120645000Y-59165000D02*
X106675000Y-59165000D01*
X120645000Y-45195000D02*
X120645000Y-59165000D01*
X106675000Y-45195000D02*
X120645000Y-45195000D01*
G04 #@! TO.C,D1*
X35590000Y-21380000D02*
X35590000Y-23620000D01*
X35590000Y-23620000D02*
X39830000Y-23620000D01*
X39830000Y-23620000D02*
X39830000Y-21380000D01*
X39830000Y-21380000D02*
X35590000Y-21380000D01*
X34940000Y-22500000D02*
X35590000Y-22500000D01*
X40480000Y-22500000D02*
X39830000Y-22500000D01*
X36310000Y-21380000D02*
X36310000Y-23620000D01*
X36430000Y-21380000D02*
X36430000Y-23620000D01*
X36190000Y-21380000D02*
X36190000Y-23620000D01*
G04 #@! TO.C,D5*
X55190000Y-40380000D02*
X55190000Y-42620000D01*
X55430000Y-40380000D02*
X55430000Y-42620000D01*
X55310000Y-40380000D02*
X55310000Y-42620000D01*
X59480000Y-41500000D02*
X58830000Y-41500000D01*
X53940000Y-41500000D02*
X54590000Y-41500000D01*
X58830000Y-40380000D02*
X54590000Y-40380000D01*
X58830000Y-42620000D02*
X58830000Y-40380000D01*
X54590000Y-42620000D02*
X58830000Y-42620000D01*
X54590000Y-40380000D02*
X54590000Y-42620000D01*
G04 #@! TO.C,D19*
X130590000Y-21380000D02*
X130590000Y-23620000D01*
X130590000Y-23620000D02*
X134830000Y-23620000D01*
X134830000Y-23620000D02*
X134830000Y-21380000D01*
X134830000Y-21380000D02*
X130590000Y-21380000D01*
X129940000Y-22500000D02*
X130590000Y-22500000D01*
X135480000Y-22500000D02*
X134830000Y-22500000D01*
X131310000Y-21380000D02*
X131310000Y-23620000D01*
X131430000Y-21380000D02*
X131430000Y-23620000D01*
X131190000Y-21380000D02*
X131190000Y-23620000D01*
G04 #@! TO.C,K14*
X87675000Y-64195000D02*
X101645000Y-64195000D01*
X101645000Y-64195000D02*
X101645000Y-78165000D01*
X101645000Y-78165000D02*
X87675000Y-78165000D01*
X87675000Y-78165000D02*
X87675000Y-64195000D01*
G04 #@! TO.C,K20*
X125675000Y-26195000D02*
X139645000Y-26195000D01*
X139645000Y-26195000D02*
X139645000Y-40165000D01*
X139645000Y-40165000D02*
X125675000Y-40165000D01*
X125675000Y-40165000D02*
X125675000Y-26195000D01*
G04 #@! TO.C,K22*
X125675000Y-78165000D02*
X125675000Y-64195000D01*
X139645000Y-78165000D02*
X125675000Y-78165000D01*
X139645000Y-64195000D02*
X139645000Y-78165000D01*
X125675000Y-64195000D02*
X139645000Y-64195000D01*
G04 #@! TO.C,K12*
X87675000Y-40165000D02*
X87675000Y-26195000D01*
X101645000Y-40165000D02*
X87675000Y-40165000D01*
X101645000Y-26195000D02*
X101645000Y-40165000D01*
X87675000Y-26195000D02*
X101645000Y-26195000D01*
G04 #@! TO.C,K11*
X87675000Y-21165000D02*
X87675000Y-7195000D01*
X101645000Y-21165000D02*
X87675000Y-21165000D01*
X101645000Y-7195000D02*
X101645000Y-21165000D01*
X87675000Y-7195000D02*
X101645000Y-7195000D01*
G04 #@! TO.C,K10*
X68675000Y-78165000D02*
X68675000Y-64195000D01*
X82645000Y-78165000D02*
X68675000Y-78165000D01*
X82645000Y-64195000D02*
X82645000Y-78165000D01*
X68675000Y-64195000D02*
X82645000Y-64195000D01*
G04 #@! TO.C,K15*
X106675000Y-7195000D02*
X120645000Y-7195000D01*
X120645000Y-7195000D02*
X120645000Y-21165000D01*
X120645000Y-21165000D02*
X106675000Y-21165000D01*
X106675000Y-21165000D02*
X106675000Y-7195000D01*
D12*
G04 #@! TO.C,U1*
X164990000Y-35240000D02*
X147210000Y-35240000D01*
X164990000Y-4760000D02*
X164990000Y-35240000D01*
X159910000Y-4760000D02*
X164990000Y-4760000D01*
X159910000Y-2220000D02*
X159910000Y-4760000D01*
X152290000Y-2220000D02*
X159910000Y-2220000D01*
X152290000Y-4760000D02*
X152290000Y-2220000D01*
X147210000Y-4760000D02*
X152290000Y-4760000D01*
X147210000Y-4760000D02*
X147210000Y-35240000D01*
D11*
G04 #@! TO.C,K16*
X106675000Y-40165000D02*
X106675000Y-26195000D01*
X120645000Y-40165000D02*
X106675000Y-40165000D01*
X120645000Y-26195000D02*
X120645000Y-40165000D01*
X106675000Y-26195000D02*
X120645000Y-26195000D01*
G04 #@! TO.C,K18*
X106675000Y-78165000D02*
X106675000Y-64195000D01*
X120645000Y-78165000D02*
X106675000Y-78165000D01*
X120645000Y-64195000D02*
X120645000Y-78165000D01*
X106675000Y-64195000D02*
X120645000Y-64195000D01*
G04 #@! TO.C,K13*
X87675000Y-45195000D02*
X101645000Y-45195000D01*
X101645000Y-45195000D02*
X101645000Y-59165000D01*
X101645000Y-59165000D02*
X87675000Y-59165000D01*
X87675000Y-59165000D02*
X87675000Y-45195000D01*
G04 #@! TO.C,K21*
X125675000Y-59165000D02*
X125675000Y-45195000D01*
X139645000Y-59165000D02*
X125675000Y-59165000D01*
X139645000Y-45195000D02*
X139645000Y-59165000D01*
X125675000Y-45195000D02*
X139645000Y-45195000D01*
G04 #@! TO.C,J1*
X161800000Y-41000000D02*
X164600000Y-41000000D01*
X161800000Y-46800000D02*
X164600000Y-46800000D01*
X161800000Y-48000000D02*
X150400000Y-48000000D01*
X164600000Y-46800000D02*
X164600000Y-41000000D01*
X161800000Y-40700000D02*
X161800000Y-41000000D01*
X161800000Y-46800000D02*
X161800000Y-48000000D01*
X150400000Y-48000000D02*
X150400000Y-46900000D01*
X150400000Y-40700000D02*
X150400000Y-45300000D01*
X161800000Y-40700000D02*
X150400000Y-40700000D01*
X152500000Y-40400000D02*
X153000000Y-39900000D01*
X153000000Y-39900000D02*
X152000000Y-39900000D01*
X152000000Y-39900000D02*
X152500000Y-40400000D01*
G04 #@! TO.C,J2*
X18300000Y-48700000D02*
X17800000Y-48200000D01*
X17300000Y-48700000D02*
X18300000Y-48700000D01*
X17800000Y-48200000D02*
X17300000Y-48700000D01*
X8500000Y-47900000D02*
X19900000Y-47900000D01*
X19900000Y-47900000D02*
X19900000Y-43300000D01*
X19900000Y-40600000D02*
X19900000Y-41700000D01*
X8500000Y-41800000D02*
X8500000Y-40600000D01*
X8500000Y-47900000D02*
X8500000Y-47600000D01*
X5700000Y-41800000D02*
X5700000Y-47600000D01*
X8500000Y-40600000D02*
X19900000Y-40600000D01*
X8500000Y-41800000D02*
X5700000Y-41800000D01*
X8500000Y-47600000D02*
X5700000Y-47600000D01*
G04 #@! TO.C,D24*
D12*
X52638095Y-78152380D02*
X52638095Y-77152380D01*
X53209523Y-78152380D02*
X52780952Y-77580952D01*
X53209523Y-77152380D02*
X52638095Y-77723809D01*
G04 #@! TO.C,D23*
X33638095Y-78152380D02*
X33638095Y-77152380D01*
X34209523Y-78152380D02*
X33780952Y-77580952D01*
X34209523Y-77152380D02*
X33638095Y-77723809D01*
G04 #@! TO.C,D2*
X33638095Y-40152380D02*
X33638095Y-39152380D01*
X34209523Y-40152380D02*
X33780952Y-39580952D01*
X34209523Y-39152380D02*
X33638095Y-39723809D01*
G04 #@! TO.C,D7*
X71638095Y-21152380D02*
X71638095Y-20152380D01*
X72209523Y-21152380D02*
X71780952Y-20580952D01*
X72209523Y-20152380D02*
X71638095Y-20723809D01*
G04 #@! TO.C,D10*
X71638095Y-78152380D02*
X71638095Y-77152380D01*
X72209523Y-78152380D02*
X71780952Y-77580952D01*
X72209523Y-77152380D02*
X71638095Y-77723809D01*
G04 #@! TO.C,D9*
X71638095Y-59152380D02*
X71638095Y-58152380D01*
X72209523Y-59152380D02*
X71780952Y-58580952D01*
X72209523Y-58152380D02*
X71638095Y-58723809D01*
G04 #@! TO.C,D16*
X109638095Y-40152380D02*
X109638095Y-39152380D01*
X110209523Y-40152380D02*
X109780952Y-39580952D01*
X110209523Y-39152380D02*
X109638095Y-39723809D01*
G04 #@! TO.C,D15*
X109638095Y-21152380D02*
X109638095Y-20152380D01*
X110209523Y-21152380D02*
X109780952Y-20580952D01*
X110209523Y-20152380D02*
X109638095Y-20723809D01*
G04 #@! TO.C,D17*
X109638095Y-59152380D02*
X109638095Y-58152380D01*
X110209523Y-59152380D02*
X109780952Y-58580952D01*
X110209523Y-58152380D02*
X109638095Y-58723809D01*
G04 #@! TO.C,D12*
X90638095Y-40152380D02*
X90638095Y-39152380D01*
X91209523Y-40152380D02*
X90780952Y-39580952D01*
X91209523Y-39152380D02*
X90638095Y-39723809D01*
G04 #@! TO.C,D4*
X52638095Y-21152380D02*
X52638095Y-20152380D01*
X53209523Y-21152380D02*
X52780952Y-20580952D01*
X53209523Y-20152380D02*
X52638095Y-20723809D01*
G04 #@! TO.C,D6*
X52638095Y-59152380D02*
X52638095Y-58152380D01*
X53209523Y-59152380D02*
X52780952Y-58580952D01*
X53209523Y-58152380D02*
X52638095Y-58723809D01*
G04 #@! TO.C,D14*
X90638095Y-78152380D02*
X90638095Y-77152380D01*
X91209523Y-78152380D02*
X90780952Y-77580952D01*
X91209523Y-77152380D02*
X90638095Y-77723809D01*
G04 #@! TO.C,D18*
X109638095Y-78152380D02*
X109638095Y-77152380D01*
X110209523Y-78152380D02*
X109780952Y-77580952D01*
X110209523Y-77152380D02*
X109638095Y-77723809D01*
G04 #@! TO.C,D21*
X128638095Y-59152380D02*
X128638095Y-58152380D01*
X129209523Y-59152380D02*
X128780952Y-58580952D01*
X129209523Y-58152380D02*
X128638095Y-58723809D01*
G04 #@! TO.C,D22*
X128638095Y-78152380D02*
X128638095Y-77152380D01*
X129209523Y-78152380D02*
X128780952Y-77580952D01*
X129209523Y-77152380D02*
X128638095Y-77723809D01*
G04 #@! TO.C,D3*
X33638095Y-59152380D02*
X33638095Y-58152380D01*
X34209523Y-59152380D02*
X33780952Y-58580952D01*
X34209523Y-58152380D02*
X33638095Y-58723809D01*
G04 #@! TO.C,D11*
X90638095Y-21152380D02*
X90638095Y-20152380D01*
X91209523Y-21152380D02*
X90780952Y-20580952D01*
X91209523Y-20152380D02*
X90638095Y-20723809D01*
G04 #@! TO.C,D20*
X128638095Y-40152380D02*
X128638095Y-39152380D01*
X129209523Y-40152380D02*
X128780952Y-39580952D01*
X129209523Y-39152380D02*
X128638095Y-39723809D01*
G04 #@! TO.C,D8*
X71638095Y-40152380D02*
X71638095Y-39152380D01*
X72209523Y-40152380D02*
X71780952Y-39580952D01*
X72209523Y-39152380D02*
X71638095Y-39723809D01*
G04 #@! TO.C,D13*
X90638095Y-59152380D02*
X90638095Y-58152380D01*
X91209523Y-59152380D02*
X90780952Y-58580952D01*
X91209523Y-58152380D02*
X90638095Y-58723809D01*
G04 #@! TO.C,D1*
X33638095Y-21152380D02*
X33638095Y-20152380D01*
X34209523Y-21152380D02*
X33780952Y-20580952D01*
X34209523Y-20152380D02*
X33638095Y-20723809D01*
G04 #@! TO.C,D5*
X52638095Y-40152380D02*
X52638095Y-39152380D01*
X53209523Y-40152380D02*
X52780952Y-39580952D01*
X53209523Y-39152380D02*
X52638095Y-39723809D01*
G04 #@! TO.C,D19*
X128638095Y-21152380D02*
X128638095Y-20152380D01*
X129209523Y-21152380D02*
X128780952Y-20580952D01*
X129209523Y-20152380D02*
X128638095Y-20723809D01*
G04 #@! TD*
M02*
