G04 #@! TF.GenerationSoftware,KiCad,Pcbnew,(5.0.2)-1*
G04 #@! TF.CreationDate,2019-02-28T20:13:41+09:00*
G04 #@! TF.ProjectId,Keyboard,4b657962-6f61-4726-942e-6b696361645f,rev?*
G04 #@! TF.SameCoordinates,Original*
G04 #@! TF.FileFunction,Legend,Bot*
G04 #@! TF.FilePolarity,Positive*
%FSLAX46Y46*%
G04 Gerber Fmt 4.6, Leading zero omitted, Abs format (unit mm)*
G04 Created by KiCad (PCBNEW (5.0.2)-1) date 2019/02/28 20:13:41*
%MOMM*%
%LPD*%
G01*
G04 APERTURE LIST*
%ADD10C,1.000000*%
%ADD11C,0.150000*%
G04 APERTURE END LIST*
D10*
X147000000Y0D02*
X147000000Y-67000000D01*
X147000000Y-67000000D02*
X109000000Y-86000000D01*
X61000000Y-86000000D02*
X23000000Y-67000000D01*
X23000000Y0D02*
X23000000Y-67000000D01*
D11*
G04 #@! TO.C,U2*
X23090000Y-35140000D02*
X5310000Y-35140000D01*
X5310000Y-35140000D02*
X5310000Y-4660000D01*
X5310000Y-4660000D02*
X10390000Y-4660000D01*
X10390000Y-4660000D02*
X10390000Y-2120000D01*
X10390000Y-2120000D02*
X18010000Y-2120000D01*
X18010000Y-2120000D02*
X18010000Y-4660000D01*
X18010000Y-4660000D02*
X23090000Y-4660000D01*
X23090000Y-4660000D02*
X23090000Y-35140000D01*
G04 #@! TO.C,U1*
X164990000Y-4760000D02*
X164990000Y-35240000D01*
X159910000Y-4760000D02*
X164990000Y-4760000D01*
X159910000Y-2220000D02*
X159910000Y-4760000D01*
X152290000Y-2220000D02*
X159910000Y-2220000D01*
X152290000Y-4760000D02*
X152290000Y-2220000D01*
X147210000Y-4760000D02*
X152290000Y-4760000D01*
X147210000Y-35240000D02*
X147210000Y-4760000D01*
X164990000Y-35240000D02*
X147210000Y-35240000D01*
G04 #@! TD*
M02*
