G04 #@! TF.GenerationSoftware,KiCad,Pcbnew,(5.0.2)-1*
G04 #@! TF.CreationDate,2019-02-28T20:13:41+09:00*
G04 #@! TF.ProjectId,Keyboard,4b657962-6f61-4726-942e-6b696361645f,rev?*
G04 #@! TF.SameCoordinates,Original*
G04 #@! TF.FileFunction,Copper,L2,Bot*
G04 #@! TF.FilePolarity,Positive*
%FSLAX46Y46*%
G04 Gerber Fmt 4.6, Leading zero omitted, Abs format (unit mm)*
G04 Created by KiCad (PCBNEW (5.0.2)-1) date 2019/02/28 20:13:41*
%MOMM*%
%LPD*%
G01*
G04 APERTURE LIST*
G04 #@! TA.AperFunction,ComponentPad*
%ADD10C,2.200000*%
G04 #@! TD*
G04 #@! TA.AperFunction,ComponentPad*
%ADD11R,1.600000X1.600000*%
G04 #@! TD*
G04 #@! TA.AperFunction,ComponentPad*
%ADD12O,1.600000X1.600000*%
G04 #@! TD*
G04 #@! TA.AperFunction,ComponentPad*
%ADD13C,1.600000*%
G04 #@! TD*
G04 #@! TA.AperFunction,ComponentPad*
%ADD14O,2.000000X1.400000*%
G04 #@! TD*
G04 #@! TA.AperFunction,ComponentPad*
%ADD15R,2.000000X1.400000*%
G04 #@! TD*
G04 #@! TA.AperFunction,ViaPad*
%ADD16C,0.800000*%
G04 #@! TD*
G04 #@! TA.AperFunction,Conductor*
%ADD17C,0.500000*%
G04 #@! TD*
G04 APERTURE END LIST*
D10*
G04 #@! TO.P,K23,2*
G04 #@! TO.N,Net-(D23-Pad1)*
X33850000Y-68640000D03*
G04 #@! TO.P,K23,1*
G04 #@! TO.N,COL0*
X40200000Y-66100000D03*
G04 #@! TD*
G04 #@! TO.P,K24,1*
G04 #@! TO.N,COL1*
X59200000Y-66100000D03*
G04 #@! TO.P,K24,2*
G04 #@! TO.N,Net-(D24-Pad1)*
X52850000Y-68640000D03*
G04 #@! TD*
D11*
G04 #@! TO.P,D24,1*
G04 #@! TO.N,Net-(D24-Pad1)*
X52900000Y-79500000D03*
D12*
G04 #@! TO.P,D24,2*
G04 #@! TO.N,ROW3*
X60520000Y-79500000D03*
G04 #@! TD*
G04 #@! TO.P,D23,2*
G04 #@! TO.N,ROW3*
X41520000Y-79500000D03*
D11*
G04 #@! TO.P,D23,1*
G04 #@! TO.N,Net-(D23-Pad1)*
X33900000Y-79500000D03*
G04 #@! TD*
G04 #@! TO.P,U2,1*
G04 #@! TO.N,TX2*
X6580000Y-5930000D03*
D13*
G04 #@! TO.P,U2,2*
G04 #@! TO.N,RX2*
X6580000Y-8470000D03*
G04 #@! TO.P,U2,3*
G04 #@! TO.N,Net-(U2-Pad3)*
X6580000Y-11010000D03*
G04 #@! TO.P,U2,4*
G04 #@! TO.N,Net-(U2-Pad4)*
X6580000Y-13550000D03*
G04 #@! TO.P,U2,5*
G04 #@! TO.N,Net-(U2-Pad5)*
X6580000Y-16090000D03*
G04 #@! TO.P,U2,6*
G04 #@! TO.N,Net-(U2-Pad6)*
X6580000Y-18630000D03*
G04 #@! TO.P,U2,7*
G04 #@! TO.N,Net-(U2-Pad7)*
X6580000Y-21170000D03*
G04 #@! TO.P,U2,8*
G04 #@! TO.N,Net-(U2-Pad8)*
X6580000Y-23710000D03*
G04 #@! TO.P,U2,9*
G04 #@! TO.N,ROW0*
X6580000Y-26250000D03*
G04 #@! TO.P,U2,10*
G04 #@! TO.N,ROW1*
X6580000Y-28790000D03*
G04 #@! TO.P,U2,11*
G04 #@! TO.N,ROW2*
X6580000Y-31330000D03*
G04 #@! TO.P,U2,12*
G04 #@! TO.N,ROW3*
X6580000Y-33870000D03*
G04 #@! TO.P,U2,13*
G04 #@! TO.N,COL5*
X21820000Y-33870000D03*
G04 #@! TO.P,U2,14*
G04 #@! TO.N,COL4*
X21820000Y-31330000D03*
G04 #@! TO.P,U2,15*
G04 #@! TO.N,COL3*
X21820000Y-28790000D03*
G04 #@! TO.P,U2,16*
G04 #@! TO.N,COL2*
X21820000Y-26250000D03*
G04 #@! TO.P,U2,17*
G04 #@! TO.N,COL1*
X21820000Y-23710000D03*
G04 #@! TO.P,U2,18*
G04 #@! TO.N,COL0*
X21820000Y-21170000D03*
G04 #@! TO.P,U2,19*
G04 #@! TO.N,Net-(U2-Pad19)*
X21820000Y-18630000D03*
G04 #@! TO.P,U2,20*
G04 #@! TO.N,Net-(U2-Pad20)*
X21820000Y-16090000D03*
G04 #@! TO.P,U2,21*
G04 #@! TO.N,Net-(U2-Pad21)*
X21820000Y-13550000D03*
G04 #@! TO.P,U2,22*
G04 #@! TO.N,Net-(U2-Pad22)*
X21820000Y-11010000D03*
G04 #@! TO.P,U2,23*
G04 #@! TO.N,Net-(U2-Pad23)*
X21820000Y-8470000D03*
G04 #@! TO.P,U2,24*
G04 #@! TO.N,Net-(U2-Pad24)*
X21820000Y-5930000D03*
G04 #@! TD*
D10*
G04 #@! TO.P,K3,1*
G04 #@! TO.N,COL0*
X40200000Y-47100000D03*
G04 #@! TO.P,K3,2*
G04 #@! TO.N,Net-(D3-Pad1)*
X33850000Y-49640000D03*
G04 #@! TD*
G04 #@! TO.P,K7,1*
G04 #@! TO.N,COL2*
X78200000Y-9100000D03*
G04 #@! TO.P,K7,2*
G04 #@! TO.N,Net-(D7-Pad1)*
X71850000Y-11640000D03*
G04 #@! TD*
G04 #@! TO.P,K8,1*
G04 #@! TO.N,COL2*
X78200000Y-28100000D03*
G04 #@! TO.P,K8,2*
G04 #@! TO.N,Net-(D8-Pad1)*
X71850000Y-30640000D03*
G04 #@! TD*
D11*
G04 #@! TO.P,D2,1*
G04 #@! TO.N,Net-(D2-Pad1)*
X33900000Y-41500000D03*
D12*
G04 #@! TO.P,D2,2*
G04 #@! TO.N,ROW1*
X41520000Y-41500000D03*
G04 #@! TD*
D11*
G04 #@! TO.P,D7,1*
G04 #@! TO.N,Net-(D7-Pad1)*
X71900000Y-22500000D03*
D12*
G04 #@! TO.P,D7,2*
G04 #@! TO.N,ROW0*
X79520000Y-22500000D03*
G04 #@! TD*
D11*
G04 #@! TO.P,D10,1*
G04 #@! TO.N,Net-(D10-Pad1)*
X71900000Y-79500000D03*
D12*
G04 #@! TO.P,D10,2*
G04 #@! TO.N,ROW3*
X79520000Y-79500000D03*
G04 #@! TD*
G04 #@! TO.P,D9,2*
G04 #@! TO.N,ROW2*
X79520000Y-60500000D03*
D11*
G04 #@! TO.P,D9,1*
G04 #@! TO.N,Net-(D9-Pad1)*
X71900000Y-60500000D03*
G04 #@! TD*
G04 #@! TO.P,D16,1*
G04 #@! TO.N,Net-(D16-Pad1)*
X109900000Y-41500000D03*
D12*
G04 #@! TO.P,D16,2*
G04 #@! TO.N,ROW1*
X117520000Y-41500000D03*
G04 #@! TD*
D10*
G04 #@! TO.P,K4,2*
G04 #@! TO.N,Net-(D4-Pad1)*
X52850000Y-11640000D03*
G04 #@! TO.P,K4,1*
G04 #@! TO.N,COL1*
X59200000Y-9100000D03*
G04 #@! TD*
G04 #@! TO.P,K9,1*
G04 #@! TO.N,COL2*
X78200000Y-47100000D03*
G04 #@! TO.P,K9,2*
G04 #@! TO.N,Net-(D9-Pad1)*
X71850000Y-49640000D03*
G04 #@! TD*
G04 #@! TO.P,K5,1*
G04 #@! TO.N,COL1*
X59200000Y-28100000D03*
G04 #@! TO.P,K5,2*
G04 #@! TO.N,Net-(D5-Pad1)*
X52850000Y-30640000D03*
G04 #@! TD*
D12*
G04 #@! TO.P,D15,2*
G04 #@! TO.N,ROW0*
X117520000Y-22500000D03*
D11*
G04 #@! TO.P,D15,1*
G04 #@! TO.N,Net-(D15-Pad1)*
X109900000Y-22500000D03*
G04 #@! TD*
D12*
G04 #@! TO.P,D17,2*
G04 #@! TO.N,ROW2*
X117520000Y-60500000D03*
D11*
G04 #@! TO.P,D17,1*
G04 #@! TO.N,Net-(D17-Pad1)*
X109900000Y-60500000D03*
G04 #@! TD*
D12*
G04 #@! TO.P,D12,2*
G04 #@! TO.N,ROW1*
X98520000Y-41500000D03*
D11*
G04 #@! TO.P,D12,1*
G04 #@! TO.N,Net-(D12-Pad1)*
X90900000Y-41500000D03*
G04 #@! TD*
D12*
G04 #@! TO.P,D4,2*
G04 #@! TO.N,ROW0*
X60520000Y-22500000D03*
D11*
G04 #@! TO.P,D4,1*
G04 #@! TO.N,Net-(D4-Pad1)*
X52900000Y-22500000D03*
G04 #@! TD*
G04 #@! TO.P,D6,1*
G04 #@! TO.N,Net-(D6-Pad1)*
X52900000Y-60500000D03*
D12*
G04 #@! TO.P,D6,2*
G04 #@! TO.N,ROW2*
X60520000Y-60500000D03*
G04 #@! TD*
G04 #@! TO.P,D14,2*
G04 #@! TO.N,ROW3*
X98520000Y-79500000D03*
D11*
G04 #@! TO.P,D14,1*
G04 #@! TO.N,Net-(D14-Pad1)*
X90900000Y-79500000D03*
G04 #@! TD*
G04 #@! TO.P,D18,1*
G04 #@! TO.N,Net-(D18-Pad1)*
X109900000Y-79500000D03*
D12*
G04 #@! TO.P,D18,2*
G04 #@! TO.N,ROW3*
X117520000Y-79500000D03*
G04 #@! TD*
D11*
G04 #@! TO.P,D21,1*
G04 #@! TO.N,Net-(D21-Pad1)*
X128900000Y-60500000D03*
D12*
G04 #@! TO.P,D21,2*
G04 #@! TO.N,ROW2*
X136520000Y-60500000D03*
G04 #@! TD*
G04 #@! TO.P,D22,2*
G04 #@! TO.N,ROW3*
X136520000Y-79500000D03*
D11*
G04 #@! TO.P,D22,1*
G04 #@! TO.N,Net-(D22-Pad1)*
X128900000Y-79500000D03*
G04 #@! TD*
D12*
G04 #@! TO.P,D3,2*
G04 #@! TO.N,ROW2*
X41520000Y-60500000D03*
D11*
G04 #@! TO.P,D3,1*
G04 #@! TO.N,Net-(D3-Pad1)*
X33900000Y-60500000D03*
G04 #@! TD*
D10*
G04 #@! TO.P,K1,1*
G04 #@! TO.N,COL0*
X40200000Y-9100000D03*
G04 #@! TO.P,K1,2*
G04 #@! TO.N,Net-(D1-Pad1)*
X33850000Y-11640000D03*
G04 #@! TD*
G04 #@! TO.P,K2,2*
G04 #@! TO.N,Net-(D2-Pad1)*
X33850000Y-30640000D03*
G04 #@! TO.P,K2,1*
G04 #@! TO.N,COL0*
X40200000Y-28100000D03*
G04 #@! TD*
D11*
G04 #@! TO.P,D11,1*
G04 #@! TO.N,Net-(D11-Pad1)*
X90900000Y-22500000D03*
D12*
G04 #@! TO.P,D11,2*
G04 #@! TO.N,ROW0*
X98520000Y-22500000D03*
G04 #@! TD*
D10*
G04 #@! TO.P,K19,1*
G04 #@! TO.N,COL5*
X135200000Y-9100000D03*
G04 #@! TO.P,K19,2*
G04 #@! TO.N,Net-(D19-Pad1)*
X128850000Y-11640000D03*
G04 #@! TD*
D12*
G04 #@! TO.P,D20,2*
G04 #@! TO.N,ROW1*
X136520000Y-41500000D03*
D11*
G04 #@! TO.P,D20,1*
G04 #@! TO.N,Net-(D20-Pad1)*
X128900000Y-41500000D03*
G04 #@! TD*
G04 #@! TO.P,D8,1*
G04 #@! TO.N,Net-(D8-Pad1)*
X71900000Y-41500000D03*
D12*
G04 #@! TO.P,D8,2*
G04 #@! TO.N,ROW1*
X79520000Y-41500000D03*
G04 #@! TD*
D10*
G04 #@! TO.P,K6,2*
G04 #@! TO.N,Net-(D6-Pad1)*
X52850000Y-49640000D03*
G04 #@! TO.P,K6,1*
G04 #@! TO.N,COL1*
X59200000Y-47100000D03*
G04 #@! TD*
D12*
G04 #@! TO.P,D13,2*
G04 #@! TO.N,ROW2*
X98520000Y-60500000D03*
D11*
G04 #@! TO.P,D13,1*
G04 #@! TO.N,Net-(D13-Pad1)*
X90900000Y-60500000D03*
G04 #@! TD*
D10*
G04 #@! TO.P,K17,2*
G04 #@! TO.N,Net-(D17-Pad1)*
X109850000Y-49640000D03*
G04 #@! TO.P,K17,1*
G04 #@! TO.N,COL4*
X116200000Y-47100000D03*
G04 #@! TD*
D11*
G04 #@! TO.P,D1,1*
G04 #@! TO.N,Net-(D1-Pad1)*
X33900000Y-22500000D03*
D12*
G04 #@! TO.P,D1,2*
G04 #@! TO.N,ROW0*
X41520000Y-22500000D03*
G04 #@! TD*
G04 #@! TO.P,D5,2*
G04 #@! TO.N,ROW1*
X60520000Y-41500000D03*
D11*
G04 #@! TO.P,D5,1*
G04 #@! TO.N,Net-(D5-Pad1)*
X52900000Y-41500000D03*
G04 #@! TD*
G04 #@! TO.P,D19,1*
G04 #@! TO.N,Net-(D19-Pad1)*
X128900000Y-22500000D03*
D12*
G04 #@! TO.P,D19,2*
G04 #@! TO.N,ROW0*
X136520000Y-22500000D03*
G04 #@! TD*
D10*
G04 #@! TO.P,K14,1*
G04 #@! TO.N,COL3*
X97200000Y-66100000D03*
G04 #@! TO.P,K14,2*
G04 #@! TO.N,Net-(D14-Pad1)*
X90850000Y-68640000D03*
G04 #@! TD*
G04 #@! TO.P,K20,1*
G04 #@! TO.N,COL5*
X135200000Y-28100000D03*
G04 #@! TO.P,K20,2*
G04 #@! TO.N,Net-(D20-Pad1)*
X128850000Y-30640000D03*
G04 #@! TD*
G04 #@! TO.P,K22,2*
G04 #@! TO.N,Net-(D22-Pad1)*
X128850000Y-68640000D03*
G04 #@! TO.P,K22,1*
G04 #@! TO.N,COL5*
X135200000Y-66100000D03*
G04 #@! TD*
G04 #@! TO.P,K12,2*
G04 #@! TO.N,Net-(D12-Pad1)*
X90850000Y-30640000D03*
G04 #@! TO.P,K12,1*
G04 #@! TO.N,COL3*
X97200000Y-28100000D03*
G04 #@! TD*
G04 #@! TO.P,K11,2*
G04 #@! TO.N,Net-(D11-Pad1)*
X90850000Y-11640000D03*
G04 #@! TO.P,K11,1*
G04 #@! TO.N,COL3*
X97200000Y-9100000D03*
G04 #@! TD*
G04 #@! TO.P,K10,2*
G04 #@! TO.N,Net-(D10-Pad1)*
X71850000Y-68640000D03*
G04 #@! TO.P,K10,1*
G04 #@! TO.N,COL2*
X78200000Y-66100000D03*
G04 #@! TD*
G04 #@! TO.P,K15,1*
G04 #@! TO.N,COL4*
X116200000Y-9100000D03*
G04 #@! TO.P,K15,2*
G04 #@! TO.N,Net-(D15-Pad1)*
X109850000Y-11640000D03*
G04 #@! TD*
D13*
G04 #@! TO.P,U1,24*
G04 #@! TO.N,Net-(U1-Pad24)*
X163720000Y-6030000D03*
G04 #@! TO.P,U1,23*
G04 #@! TO.N,Net-(U1-Pad23)*
X163720000Y-8570000D03*
G04 #@! TO.P,U1,22*
G04 #@! TO.N,Net-(U1-Pad22)*
X163720000Y-11110000D03*
G04 #@! TO.P,U1,21*
G04 #@! TO.N,Net-(U1-Pad21)*
X163720000Y-13650000D03*
G04 #@! TO.P,U1,20*
G04 #@! TO.N,Net-(U1-Pad20)*
X163720000Y-16190000D03*
G04 #@! TO.P,U1,19*
G04 #@! TO.N,Net-(U1-Pad19)*
X163720000Y-18730000D03*
G04 #@! TO.P,U1,18*
G04 #@! TO.N,COL0*
X163720000Y-21270000D03*
G04 #@! TO.P,U1,17*
G04 #@! TO.N,COL1*
X163720000Y-23810000D03*
G04 #@! TO.P,U1,16*
G04 #@! TO.N,COL2*
X163720000Y-26350000D03*
G04 #@! TO.P,U1,15*
G04 #@! TO.N,COL3*
X163720000Y-28890000D03*
G04 #@! TO.P,U1,14*
G04 #@! TO.N,COL4*
X163720000Y-31430000D03*
G04 #@! TO.P,U1,13*
G04 #@! TO.N,COL5*
X163720000Y-33970000D03*
G04 #@! TO.P,U1,12*
G04 #@! TO.N,ROW3*
X148480000Y-33970000D03*
G04 #@! TO.P,U1,11*
G04 #@! TO.N,ROW2*
X148480000Y-31430000D03*
G04 #@! TO.P,U1,10*
G04 #@! TO.N,ROW1*
X148480000Y-28890000D03*
G04 #@! TO.P,U1,9*
G04 #@! TO.N,ROW0*
X148480000Y-26350000D03*
G04 #@! TO.P,U1,8*
G04 #@! TO.N,Net-(U1-Pad8)*
X148480000Y-23810000D03*
G04 #@! TO.P,U1,7*
G04 #@! TO.N,Net-(U1-Pad7)*
X148480000Y-21270000D03*
G04 #@! TO.P,U1,6*
G04 #@! TO.N,Net-(U1-Pad6)*
X148480000Y-18730000D03*
G04 #@! TO.P,U1,5*
G04 #@! TO.N,Net-(U1-Pad5)*
X148480000Y-16190000D03*
G04 #@! TO.P,U1,4*
G04 #@! TO.N,Net-(U1-Pad4)*
X148480000Y-13650000D03*
G04 #@! TO.P,U1,3*
G04 #@! TO.N,Net-(U1-Pad3)*
X148480000Y-11110000D03*
G04 #@! TO.P,U1,2*
G04 #@! TO.N,RX1*
X148480000Y-8570000D03*
D11*
G04 #@! TO.P,U1,1*
G04 #@! TO.N,TX1*
X148480000Y-6030000D03*
G04 #@! TD*
D10*
G04 #@! TO.P,K16,2*
G04 #@! TO.N,Net-(D16-Pad1)*
X109850000Y-30640000D03*
G04 #@! TO.P,K16,1*
G04 #@! TO.N,COL4*
X116200000Y-28100000D03*
G04 #@! TD*
G04 #@! TO.P,K18,2*
G04 #@! TO.N,Net-(D18-Pad1)*
X109850000Y-68640000D03*
G04 #@! TO.P,K18,1*
G04 #@! TO.N,COL4*
X116200000Y-66100000D03*
G04 #@! TD*
G04 #@! TO.P,K13,1*
G04 #@! TO.N,COL3*
X97200000Y-47100000D03*
G04 #@! TO.P,K13,2*
G04 #@! TO.N,Net-(D13-Pad1)*
X90850000Y-49640000D03*
G04 #@! TD*
G04 #@! TO.P,K21,2*
G04 #@! TO.N,Net-(D21-Pad1)*
X128850000Y-49640000D03*
G04 #@! TO.P,K21,1*
G04 #@! TO.N,COL5*
X135200000Y-47100000D03*
G04 #@! TD*
D14*
G04 #@! TO.P,J1,R2*
G04 #@! TO.N,TX1*
X159500000Y-41600000D03*
G04 #@! TO.P,J1,R1*
G04 #@! TO.N,RX1*
X156500000Y-41600000D03*
D15*
G04 #@! TO.P,J1,T*
G04 #@! TO.N,Net-(J1-PadT)*
X152500000Y-41600000D03*
D14*
G04 #@! TO.P,J1,S*
G04 #@! TO.N,Net-(J1-PadS)*
X151000000Y-46100000D03*
G04 #@! TO.P,J1,*
G04 #@! TO.N,*
X159500000Y-47100000D03*
G04 #@! TD*
G04 #@! TO.P,J2,*
G04 #@! TO.N,*
X10800000Y-41500000D03*
G04 #@! TO.P,J2,S*
G04 #@! TO.N,Net-(J2-PadS)*
X19300000Y-42500000D03*
D15*
G04 #@! TO.P,J2,T*
G04 #@! TO.N,Net-(J2-PadT)*
X17800000Y-47000000D03*
D14*
G04 #@! TO.P,J2,R1*
G04 #@! TO.N,TX2*
X13800000Y-47000000D03*
G04 #@! TO.P,J2,R2*
G04 #@! TO.N,RX2*
X10800000Y-47000000D03*
G04 #@! TD*
D16*
G04 #@! TO.N,COL0*
X40200000Y-2100000D03*
X25550000Y-2100000D03*
G04 #@! TO.N,COL1*
X59200000Y-3000000D03*
X26500000Y-3000000D03*
G04 #@! TO.N,COL2*
X78200000Y-3900000D03*
X27400000Y-3900000D03*
G04 #@! TO.N,COL3*
X97200000Y-4800000D03*
X28300000Y-4800000D03*
G04 #@! TO.N,COL4*
X116200000Y-5700000D03*
X29200000Y-5700000D03*
G04 #@! TO.N,COL5*
X135200000Y-6600000D03*
X30100000Y-6600000D03*
G04 #@! TD*
D17*
G04 #@! TO.N,ROW0*
X59820001Y-23299999D02*
X60620000Y-22500000D01*
X59369999Y-23750001D02*
X59820001Y-23299999D01*
X42870001Y-23750001D02*
X59369999Y-23750001D01*
X41620000Y-22500000D02*
X42870001Y-23750001D01*
X60620000Y-22500000D02*
X61870001Y-23750001D01*
X78820001Y-23299999D02*
X79620000Y-22500000D01*
X61870001Y-23750001D02*
X78369999Y-23750001D01*
X78369999Y-23750001D02*
X78820001Y-23299999D01*
X80870001Y-23750001D02*
X97369999Y-23750001D01*
X97820001Y-23299999D02*
X98620000Y-22500000D01*
X79620000Y-22500000D02*
X80870001Y-23750001D01*
X97369999Y-23750001D02*
X97820001Y-23299999D01*
X116860001Y-23299999D02*
X117660000Y-22500000D01*
X116409999Y-23750001D02*
X116860001Y-23299999D01*
X99910001Y-23750001D02*
X116409999Y-23750001D01*
X98660000Y-22500000D02*
X99910001Y-23750001D01*
X117580000Y-22500000D02*
X118830001Y-23750001D01*
X135329999Y-23750001D02*
X135780001Y-23299999D01*
X135780001Y-23299999D02*
X136580000Y-22500000D01*
X118830001Y-23750001D02*
X135329999Y-23750001D01*
X140470000Y-26350000D02*
X148580000Y-26350000D01*
X136620000Y-22500000D02*
X140470000Y-26350000D01*
X8150000Y-26250000D02*
X6680000Y-26250000D01*
X20300000Y-38400000D02*
X8150000Y-26250000D01*
X23895998Y-38400000D02*
X20300000Y-38400000D01*
X38545997Y-23750001D02*
X23895998Y-38400000D01*
X40369999Y-23750001D02*
X38545997Y-23750001D01*
X41620000Y-22500000D02*
X40369999Y-23750001D01*
G04 #@! TO.N,Net-(D1-Pad1)*
X33950000Y-11640000D02*
X33950000Y-22600000D01*
G04 #@! TO.N,ROW1*
X59820001Y-42299999D02*
X60620000Y-41500000D01*
X59369999Y-42750001D02*
X59820001Y-42299999D01*
X41620000Y-41500000D02*
X42870001Y-42750001D01*
X42870001Y-42750001D02*
X59369999Y-42750001D01*
X60620000Y-41500000D02*
X61870001Y-42750001D01*
X78820001Y-42299999D02*
X79620000Y-41500000D01*
X61870001Y-42750001D02*
X78369999Y-42750001D01*
X78369999Y-42750001D02*
X78820001Y-42299999D01*
X80890001Y-42750001D02*
X97389999Y-42750001D01*
X79640000Y-41500000D02*
X80890001Y-42750001D01*
X97389999Y-42750001D02*
X97840001Y-42299999D01*
X97840001Y-42299999D02*
X98640000Y-41500000D01*
X98660000Y-41500000D02*
X99910001Y-42750001D01*
X116860001Y-42299999D02*
X117660000Y-41500000D01*
X116409999Y-42750001D02*
X116860001Y-42299999D01*
X99910001Y-42750001D02*
X116409999Y-42750001D01*
X117580000Y-41500000D02*
X118830001Y-42750001D01*
X135329999Y-42750001D02*
X135780001Y-42299999D01*
X135780001Y-42299999D02*
X136580000Y-41500000D01*
X118830001Y-42750001D02*
X135329999Y-42750001D01*
X136620000Y-40850000D02*
X136620000Y-41500000D01*
X148580000Y-28890000D02*
X136620000Y-40850000D01*
X40369999Y-42750001D02*
X41620000Y-41500000D01*
X23650001Y-42750001D02*
X40369999Y-42750001D01*
X6680000Y-28790000D02*
X9690000Y-28790000D01*
X9690000Y-28790000D02*
X23650001Y-42750001D01*
G04 #@! TO.N,Net-(D2-Pad1)*
X33950000Y-30640000D02*
X33950000Y-41600000D01*
G04 #@! TO.N,Net-(D3-Pad1)*
X33950000Y-49640000D02*
X33950000Y-60600000D01*
G04 #@! TO.N,ROW2*
X42870001Y-61750001D02*
X59369999Y-61750001D01*
X41620000Y-60500000D02*
X42870001Y-61750001D01*
X59820001Y-61299999D02*
X60620000Y-60500000D01*
X59369999Y-61750001D02*
X59820001Y-61299999D01*
X61870001Y-61750001D02*
X78369999Y-61750001D01*
X60620000Y-60500000D02*
X61870001Y-61750001D01*
X78369999Y-61750001D02*
X78820001Y-61299999D01*
X78820001Y-61299999D02*
X79620000Y-60500000D01*
X97840001Y-61299999D02*
X98640000Y-60500000D01*
X80890001Y-61750001D02*
X97389999Y-61750001D01*
X79640000Y-60500000D02*
X80890001Y-61750001D01*
X97389999Y-61750001D02*
X97840001Y-61299999D01*
X116429999Y-61750001D02*
X116880001Y-61299999D01*
X116880001Y-61299999D02*
X117680000Y-60500000D01*
X98680000Y-60500000D02*
X99930001Y-61750001D01*
X99930001Y-61750001D02*
X116429999Y-61750001D01*
X117580000Y-60500000D02*
X118830001Y-61750001D01*
X118830001Y-61750001D02*
X135329999Y-61750001D01*
X135780001Y-61299999D02*
X136580000Y-60500000D01*
X135329999Y-61750001D02*
X135780001Y-61299999D01*
X7811370Y-31330000D02*
X6680000Y-31330000D01*
X27700000Y-56610002D02*
X27700000Y-47883676D01*
X32839999Y-61750001D02*
X27700000Y-56610002D01*
X27700000Y-47883676D02*
X11146324Y-31330000D01*
X40369999Y-61750001D02*
X32839999Y-61750001D01*
X11146324Y-31330000D02*
X7811370Y-31330000D01*
X41620000Y-60500000D02*
X40369999Y-61750001D01*
X147780001Y-32229999D02*
X148580000Y-31430000D01*
X137419999Y-42590001D02*
X147780001Y-32229999D01*
X137419999Y-59700001D02*
X137419999Y-42590001D01*
X136620000Y-60500000D02*
X137419999Y-59700001D01*
G04 #@! TO.N,Net-(D4-Pad1)*
X52950000Y-11640000D02*
X52950000Y-22600000D01*
G04 #@! TO.N,Net-(D5-Pad1)*
X52950000Y-30640000D02*
X52950000Y-41600000D01*
G04 #@! TO.N,Net-(D6-Pad1)*
X52950000Y-49640000D02*
X52950000Y-60600000D01*
G04 #@! TO.N,Net-(D7-Pad1)*
X71950000Y-11640000D02*
X71950000Y-22500000D01*
G04 #@! TO.N,Net-(D8-Pad1)*
X71950000Y-30640000D02*
X71950000Y-41500000D01*
G04 #@! TO.N,Net-(D9-Pad1)*
X71950000Y-49640000D02*
X71950000Y-60500000D01*
G04 #@! TO.N,ROW3*
X80910001Y-80750001D02*
X97409999Y-80750001D01*
X97860001Y-80299999D02*
X98660000Y-79500000D01*
X97409999Y-80750001D02*
X97860001Y-80299999D01*
X79660000Y-79500000D02*
X80910001Y-80750001D01*
X99930001Y-80750001D02*
X116429999Y-80750001D01*
X116880001Y-80299999D02*
X117680000Y-79500000D01*
X116429999Y-80750001D02*
X116880001Y-80299999D01*
X98680000Y-79500000D02*
X99930001Y-80750001D01*
X135329999Y-80750001D02*
X135780001Y-80299999D01*
X117580000Y-79500000D02*
X118830001Y-80750001D01*
X118830001Y-80750001D02*
X135329999Y-80750001D01*
X135780001Y-80299999D02*
X136580000Y-79500000D01*
X59820001Y-80299999D02*
X60620000Y-79500000D01*
X59369999Y-80750001D02*
X59820001Y-80299999D01*
X42870001Y-80750001D02*
X59369999Y-80750001D01*
X41620000Y-79500000D02*
X42870001Y-80750001D01*
X78820001Y-80299999D02*
X79620000Y-79500000D01*
X78369999Y-80750001D02*
X78820001Y-80299999D01*
X61870001Y-80750001D02*
X78369999Y-80750001D01*
X60620000Y-79500000D02*
X61870001Y-80750001D01*
X40820001Y-80299999D02*
X41620000Y-79500000D01*
X6680000Y-33870000D02*
X12696360Y-33870000D01*
X12696360Y-33870000D02*
X26999989Y-48173629D01*
X26999989Y-48173629D02*
X26999989Y-74909991D01*
X26999989Y-74909991D02*
X32839999Y-80750001D01*
X32839999Y-80750001D02*
X40369999Y-80750001D01*
X40369999Y-80750001D02*
X40820001Y-80299999D01*
X148580000Y-33970000D02*
X139750000Y-42800000D01*
X139520000Y-43030000D02*
X139750000Y-42800000D01*
X139520000Y-76600000D02*
X139520000Y-43030000D01*
X139520000Y-76600000D02*
X136620000Y-79500000D01*
G04 #@! TO.N,Net-(D10-Pad1)*
X71950000Y-68640000D02*
X71950000Y-79500000D01*
G04 #@! TO.N,Net-(D11-Pad1)*
X90950000Y-11640000D02*
X90950000Y-22500000D01*
G04 #@! TO.N,Net-(D12-Pad1)*
X90950000Y-30640000D02*
X90950000Y-41500000D01*
G04 #@! TO.N,Net-(D13-Pad1)*
X90950000Y-49640000D02*
X90950000Y-60500000D01*
G04 #@! TO.N,Net-(D14-Pad1)*
X90950000Y-68640000D02*
X90950000Y-79500000D01*
G04 #@! TO.N,Net-(D15-Pad1)*
X109950000Y-11640000D02*
X109950000Y-22500000D01*
G04 #@! TO.N,Net-(D16-Pad1)*
X109950000Y-30640000D02*
X109950000Y-41500000D01*
G04 #@! TO.N,Net-(D17-Pad1)*
X109950000Y-49640000D02*
X109950000Y-60500000D01*
G04 #@! TO.N,Net-(D18-Pad1)*
X109950000Y-68640000D02*
X109950000Y-79500000D01*
G04 #@! TO.N,Net-(D19-Pad1)*
X128950000Y-11640000D02*
X128950000Y-22500000D01*
G04 #@! TO.N,Net-(D20-Pad1)*
X128950000Y-30640000D02*
X128950000Y-41500000D01*
G04 #@! TO.N,Net-(D21-Pad1)*
X128950000Y-49640000D02*
X128950000Y-60500000D01*
G04 #@! TO.N,Net-(D22-Pad1)*
X128950000Y-68640000D02*
X128950000Y-79500000D01*
G04 #@! TO.N,COL0*
X26215695Y-2099990D02*
X33300000Y-2099990D01*
X25650000Y-2100000D02*
X26215685Y-2100000D01*
X33300000Y-2099990D02*
X40300000Y-2099990D01*
G04 #@! TO.N,COL1*
X27165685Y-3000000D02*
X33890000Y-3000000D01*
X26600000Y-3000000D02*
X27165685Y-3000000D01*
X59300000Y-3000000D02*
X33890000Y-3000000D01*
X33890000Y-3000000D02*
X32930850Y-3000000D01*
G04 #@! TO.N,COL2*
X78300000Y-3900000D02*
X77734315Y-3900000D01*
X28065685Y-3900000D02*
X34590000Y-3900000D01*
X27500000Y-3900000D02*
X28065685Y-3900000D01*
X77734315Y-3900000D02*
X34590000Y-3900000D01*
X34590000Y-3900000D02*
X33800000Y-3900000D01*
G04 #@! TO.N,COL3*
X35400000Y-4800000D02*
X97300000Y-4800000D01*
X28400000Y-4800000D02*
X35400000Y-4800000D01*
G04 #@! TO.N,COL4*
X115734315Y-5700000D02*
X116300000Y-5700000D01*
X29300000Y-5700000D02*
X115734315Y-5700000D01*
G04 #@! TO.N,COL5*
X37600000Y-6600000D02*
X135300000Y-6600000D01*
X30200000Y-6600000D02*
X37600000Y-6600000D01*
G04 #@! TO.N,Net-(D23-Pad1)*
X33950000Y-68640000D02*
X33950000Y-79500000D01*
G04 #@! TO.N,Net-(D24-Pad1)*
X52950000Y-68640000D02*
X52950000Y-79500000D01*
G04 #@! TO.N,TX1*
X159600000Y-40400000D02*
X159600000Y-41600000D01*
X159600000Y-15750000D02*
X159600000Y-40400000D01*
X149880000Y-6030000D02*
X159600000Y-15750000D01*
X148580000Y-6030000D02*
X149880000Y-6030000D01*
G04 #@! TO.N,RX1*
X156600000Y-16590000D02*
X156600000Y-41600000D01*
X148580000Y-8570000D02*
X156600000Y-16590000D01*
G04 #@! TD*
M02*
